{"glyphs":{"0":{"ha":850,"x_min":81,"x_max":769,"o":"m 425 -14 q 241 48 318 -14 q 123 227 164 111 q 81 505 81 342 q 123 783 81 667 q 241 962 164 899 q 425 1024 319 1024 q 610 962 532 1024 q 728 783 687 899 q 769 505 769 667 q 728 227 769 343 q 610 48 687 111 q 425 -14 533 -14 m 425 71 q 561 123 505 71 q 647 272 617 175 q 677 505 677 370 q 647 738 677 641 q 561 888 617 836 q 425 940 505 940 q 290 887 347 940 q 203 738 233 835 q 173 505 173 641 q 203 272 173 370 q 290 123 233 175 q 425 71 347 71 z "},"1":{"ha":531,"x_min":68,"x_max":404,"o":"m 404 1010 l 404 0 l 310 0 l 310 919 l 305 919 l 68 747 l 68 850 l 290 1010 l 404 1010 z "},"2":{"ha":833,"x_min":101,"x_max":736,"o":"m 101 0 l 101 73 l 438 435 q 542 555 503 505 q 601 650 582 606 q 619 743 619 694 q 592 847 619 802 q 518 916 565 891 q 410 940 471 940 q 298 913 346 940 q 225 838 251 886 q 199 728 199 790 l 107 728 q 146 881 107 814 q 254 986 186 948 q 412 1025 323 1025 q 566 988 498 1025 q 672 887 633 951 q 710 744 710 824 q 690 634 710 687 q 622 518 670 582 q 490 366 574 455 l 233 91 l 233 85 l 736 85 l 736 0 l 101 0 z "},"3":{"ha":832,"x_min":85,"x_max":751,"o":"m 419 -14 q 249 21 323 -14 q 131 119 174 56 q 85 263 87 182 l 182 263 q 215 162 184 205 q 299 95 246 119 q 418 71 351 71 q 542 97 488 71 q 626 169 595 123 q 657 273 657 214 q 625 379 657 334 q 534 451 593 425 q 397 476 476 476 l 337 476 l 337 562 l 397 562 q 514 585 463 562 q 595 651 566 608 q 624 751 624 693 q 598 850 624 807 q 526 916 572 892 q 418 940 480 940 q 309 917 357 940 q 231 851 260 894 q 200 751 201 809 l 108 751 q 151 893 109 831 q 262 990 192 955 q 420 1025 332 1025 q 576 988 509 1025 q 680 891 643 951 q 718 755 718 830 q 669 609 718 671 q 539 524 621 548 l 539 519 q 652 472 605 507 q 725 387 700 438 q 751 272 751 335 q 708 125 751 190 q 590 23 665 61 q 419 -14 515 -14 z "},"4":{"ha":866,"x_min":77,"x_max":790,"o":"m 77 225 l 77 302 l 536 1010 l 595 1010 l 595 887 l 555 887 l 184 316 l 184 311 l 790 311 l 790 225 l 77 225 m 559 0 l 559 249 l 559 285 l 559 1010 l 651 1010 l 651 0 l 559 0 z "},"5":{"ha":797,"x_min":82,"x_max":715,"o":"m 389 -14 q 233 22 302 -14 q 125 119 165 58 q 82 260 85 181 l 176 260 q 207 163 178 205 q 282 96 235 120 q 389 72 329 72 q 510 104 458 72 q 593 193 563 136 q 623 320 623 249 q 591 450 623 393 q 507 538 560 507 q 387 570 454 570 q 276 549 328 570 q 195 492 224 527 l 100 501 l 155 1010 l 673 1010 l 673 925 l 237 925 l 199 582 l 203 582 q 290 635 239 615 q 401 655 341 655 q 525 631 468 655 q 625 562 583 606 q 692 456 668 517 q 715 321 715 395 q 673 149 715 224 q 558 30 631 73 q 389 -14 484 -14 z "},"6":{"ha":824,"x_min":81,"x_max":743,"o":"m 420 -14 q 292 13 353 -14 q 183 96 231 39 q 109 243 136 153 q 81 463 81 334 q 103 688 81 585 q 168 866 124 790 q 278 983 212 941 q 433 1024 344 1024 q 579 991 515 1024 q 682 898 642 958 q 731 759 722 838 l 637 759 q 572 888 624 838 q 434 939 519 939 q 292 887 351 939 q 202 736 233 835 q 172 497 172 637 l 178 497 q 239 575 200 542 q 328 627 277 609 q 433 646 378 646 q 588 603 518 646 q 701 487 659 561 q 743 318 743 413 q 702 151 743 227 q 589 31 662 76 q 420 -14 517 -14 m 420 71 q 537 104 485 71 q 620 194 589 138 q 650 318 650 250 q 620 441 650 386 q 537 529 589 496 q 419 562 485 562 q 326 542 369 562 q 250 487 282 522 q 202 407 218 452 q 190 312 186 361 q 226 188 195 242 q 307 102 257 134 q 420 71 357 71 z "},"7":{"ha":764,"x_min":65,"x_max":699,"o":"m 138 0 l 599 920 l 599 925 l 65 925 l 65 1010 l 699 1010 l 699 920 l 239 0 l 138 0 z "},"8":{"ha":833,"x_min":81,"x_max":752,"o":"m 416 -14 q 244 23 319 -14 q 125 122 168 59 q 81 266 81 186 q 109 384 81 330 q 182 476 136 439 q 289 524 229 513 l 289 528 q 164 613 211 549 q 117 760 117 677 q 156 895 117 835 q 263 989 195 955 q 416 1024 331 1024 q 569 989 501 1024 q 676 895 637 955 q 715 760 715 836 q 669 613 715 677 q 545 528 622 549 l 545 524 q 650 476 604 513 q 725 384 697 439 q 752 266 752 330 q 708 122 752 186 q 589 23 665 59 q 416 -14 513 -14 m 416 71 q 542 96 488 71 q 627 167 596 122 q 657 271 657 212 q 626 378 657 331 q 539 453 594 426 q 416 481 485 481 q 293 453 347 481 q 207 378 238 426 q 175 271 175 331 q 205 167 175 212 q 291 96 236 122 q 416 71 345 71 m 416 562 q 522 586 475 562 q 596 655 568 611 q 623 753 623 699 q 596 850 623 808 q 523 917 570 892 q 416 941 476 941 q 310 917 357 941 q 236 850 263 892 q 210 753 210 808 q 236 655 210 699 q 310 587 263 612 q 416 562 357 562 z "},"9":{"ha":824,"x_min":81,"x_max":743,"o":"m 391 -14 q 245 20 309 -14 q 141 114 181 54 q 92 254 102 174 l 186 254 q 252 123 199 174 q 389 72 304 72 q 532 124 473 72 q 621 275 591 176 q 652 515 652 374 l 646 515 q 585 437 624 470 q 497 385 547 404 q 392 366 448 366 q 236 409 307 366 q 123 525 165 451 q 81 694 81 600 q 122 861 81 785 q 236 981 163 937 q 406 1024 309 1025 q 533 998 472 1024 q 641 915 593 971 q 715 768 688 859 q 743 549 743 677 q 721 323 743 426 q 656 145 699 220 q 546 28 612 69 q 391 -14 480 -14 m 404 451 q 498 471 455 451 q 574 526 542 491 q 623 606 606 561 q 635 701 639 651 q 598 823 629 770 q 517 908 567 877 q 405 939 467 939 q 287 906 339 939 q 204 818 235 873 q 174 694 174 762 q 204 571 174 626 q 287 484 235 516 q 404 451 339 451 z "},"\u0000":{"ha":693,"x_min":0,"x_max":0,"o":""},"A":{"ha":923,"x_min":33,"x_max":890,"o":"m 33 0 l 404 1010 l 516 1010 l 890 0 l 789 0 l 549 662 q 505 790 529 718 q 449 966 481 863 l 471 966 q 415 789 439 863 q 372 662 391 715 l 134 0 l 33 0 m 207 300 l 207 385 l 716 385 l 716 300 l 207 300 z "},"Ä":{"ha":923,"x_min":33,"x_max":890,"o":"m 33 0 l 404 1010 l 516 1010 l 890 0 l 789 0 l 549 662 q 505 790 529 718 q 449 966 481 863 l 471 966 q 415 789 439 863 q 372 662 391 715 l 134 0 l 33 0 m 207 300 l 207 385 l 716 385 l 716 300 l 207 300 m 602 1154 q 557 1173 576 1154 q 538 1219 538 1192 q 557 1264 538 1245 q 602 1282 576 1282 q 647 1264 629 1282 q 666 1219 666 1245 q 647 1173 666 1192 q 602 1154 629 1154 m 321 1154 q 276 1173 294 1154 q 257 1219 257 1192 q 276 1264 257 1245 q 321 1282 294 1282 q 366 1264 347 1282 q 385 1219 385 1245 q 366 1173 385 1192 q 321 1154 347 1154 z "},"Ã":{"ha":923,"x_min":33,"x_max":890,"o":"m 33 0 l 404 1010 l 516 1010 l 890 0 l 789 0 l 549 662 q 505 790 529 718 q 449 966 481 863 l 471 966 q 415 789 439 863 q 372 662 391 715 l 134 0 l 33 0 m 207 300 l 207 385 l 716 385 l 716 300 l 207 300 m 550 1150 q 501 1160 524 1150 q 458 1182 478 1170 q 420 1205 438 1195 q 385 1215 401 1215 q 350 1197 362 1215 q 335 1154 337 1179 l 268 1154 q 298 1246 271 1209 q 376 1282 325 1282 q 426 1273 404 1282 q 467 1250 448 1263 q 504 1228 486 1238 q 540 1218 522 1218 q 573 1232 561 1218 q 590 1278 585 1246 l 656 1278 q 624 1185 652 1220 q 550 1150 596 1150 z "},"À":{"ha":923,"x_min":33,"x_max":890,"o":"m 33 0 l 404 1010 l 516 1010 l 890 0 l 789 0 l 549 662 q 505 790 529 718 q 449 966 481 863 l 471 966 q 415 789 439 863 q 372 662 391 715 l 134 0 l 33 0 m 207 300 l 207 385 l 716 385 l 716 300 l 207 300 m 426 1112 l 303 1308 l 406 1308 l 503 1112 l 426 1112 z "},"Á":{"ha":923,"x_min":33,"x_max":890,"o":"m 33 0 l 404 1010 l 516 1010 l 890 0 l 789 0 l 549 662 q 505 790 529 718 q 449 966 481 863 l 471 966 q 415 789 439 863 q 372 662 391 715 l 134 0 l 33 0 m 207 300 l 207 385 l 716 385 l 716 300 l 207 300 m 421 1112 l 517 1308 l 621 1308 l 497 1112 l 421 1112 z "},"Â":{"ha":923,"x_min":33,"x_max":890,"o":"m 33 0 l 404 1010 l 516 1010 l 890 0 l 789 0 l 549 662 q 505 790 529 718 q 449 966 481 863 l 471 966 q 415 789 439 863 q 372 662 391 715 l 134 0 l 33 0 m 207 300 l 207 385 l 716 385 l 716 300 l 207 300 m 347 1122 l 256 1122 l 256 1127 l 420 1310 l 502 1310 l 668 1127 l 668 1122 l 575 1122 l 461 1253 l 347 1122 z "},"Å":{"ha":923,"x_min":33,"x_max":890,"o":"m 33 0 l 404 1010 l 516 1010 l 890 0 l 789 0 l 549 662 q 505 790 529 718 q 449 966 481 863 l 471 966 q 415 789 439 863 q 372 662 391 715 l 134 0 l 33 0 m 207 300 l 207 385 l 716 385 l 716 300 l 207 300 m 461 1070 q 384 1090 419 1070 q 329 1144 349 1110 q 308 1218 308 1177 q 329 1293 308 1259 q 384 1346 349 1326 q 461 1366 419 1366 q 539 1346 504 1366 q 594 1293 574 1326 q 615 1218 615 1259 q 594 1144 615 1177 q 539 1090 574 1110 q 461 1070 504 1070 m 462 1137 q 519 1161 496 1137 q 543 1219 543 1185 q 519 1276 543 1253 q 461 1299 496 1299 q 404 1276 427 1299 q 380 1219 380 1252 q 404 1161 380 1185 q 462 1137 427 1137 z "},"Ǻ":{"ha":923,"x_min":33,"x_max":890,"o":"m 33 0 l 404 1010 l 516 1010 l 890 0 l 789 0 l 549 662 q 505 790 529 718 q 449 966 481 863 l 471 966 q 415 789 439 863 q 372 662 391 715 l 134 0 l 33 0 m 207 300 l 207 385 l 716 385 l 716 300 l 207 300 m 424 1402 l 516 1515 l 612 1515 l 498 1402 l 424 1402 m 461 1070 q 384 1090 419 1070 q 329 1144 349 1110 q 308 1218 308 1177 q 329 1293 308 1259 q 384 1346 349 1326 q 461 1366 419 1366 q 539 1346 504 1366 q 594 1293 574 1326 q 615 1218 615 1259 q 594 1144 615 1177 q 539 1090 574 1110 q 461 1070 504 1070 m 462 1137 q 519 1161 496 1137 q 543 1219 543 1185 q 519 1276 543 1253 q 461 1299 496 1299 q 404 1276 427 1299 q 380 1219 380 1252 q 404 1161 380 1185 q 462 1137 427 1137 z "},"":{"ha":923,"x_min":33,"x_max":917,"o":"m 33 0 l 404 1010 l 516 1010 l 890 0 l 789 0 l 549 662 q 505 790 529 718 q 449 966 481 863 l 471 966 q 415 789 439 863 q 372 662 391 715 l 134 0 l 33 0 m 207 300 l 207 385 l 716 385 l 716 300 l 207 300 m 461 1070 q 384 1090 419 1070 q 329 1144 349 1110 q 308 1218 308 1177 q 329 1293 308 1259 q 384 1346 349 1326 q 461 1366 419 1366 q 539 1346 504 1366 q 594 1293 574 1326 q 615 1218 615 1259 q 594 1144 615 1177 q 539 1090 574 1110 q 461 1070 504 1070 m 462 1137 q 519 1161 496 1137 q 543 1219 543 1185 q 519 1276 543 1253 q 461 1299 496 1299 q 404 1276 427 1299 q 380 1219 380 1252 q 404 1161 380 1185 q 462 1137 427 1137 m 826 -291 q 724 -260 766 -291 q 682 -169 682 -229 q 715 -72 682 -117 q 801 12 749 -27 l 890 0 q 807 -77 840 -41 q 774 -154 774 -113 q 792 -198 774 -183 q 842 -213 810 -213 q 869 -210 857 -213 q 892 -201 882 -206 l 916 -271 q 877 -284 899 -278 q 826 -291 854 -291 z "},"Ā":{"ha":923,"x_min":33,"x_max":890,"o":"m 33 0 l 404 1010 l 516 1010 l 890 0 l 789 0 l 549 662 q 505 790 529 718 q 449 966 481 863 l 471 966 q 415 789 439 863 q 372 662 391 715 l 134 0 l 33 0 m 207 300 l 207 385 l 716 385 l 716 300 l 207 300 m 639 1253 l 639 1178 l 283 1178 l 283 1253 l 639 1253 z "},"Ă":{"ha":923,"x_min":33,"x_max":890,"o":"m 33 0 l 404 1010 l 516 1010 l 890 0 l 789 0 l 549 662 q 505 790 529 718 q 449 966 481 863 l 471 966 q 415 789 439 863 q 372 662 391 715 l 134 0 l 33 0 m 207 300 l 207 385 l 716 385 l 716 300 l 207 300 m 461 1117 q 365 1142 408 1117 q 297 1209 322 1166 q 271 1303 271 1252 l 341 1303 q 376 1218 341 1252 q 461 1184 410 1184 q 547 1218 513 1184 q 581 1303 581 1253 l 651 1303 q 626 1210 651 1252 q 558 1142 601 1167 q 461 1117 515 1117 z "},"Ą":{"ha":923,"x_min":33,"x_max":917,"o":"m 33 0 l 404 1010 l 516 1010 l 890 0 l 789 0 l 549 662 q 505 790 529 718 q 449 966 481 863 l 471 966 q 415 789 439 863 q 372 662 391 715 l 134 0 l 33 0 m 207 300 l 207 385 l 716 385 l 716 300 l 207 300 m 826 -291 q 724 -260 766 -291 q 682 -169 682 -229 q 715 -72 682 -117 q 801 12 749 -27 l 890 0 q 807 -77 840 -41 q 774 -154 774 -113 q 792 -198 774 -183 q 842 -213 810 -213 q 869 -210 857 -213 q 892 -201 882 -206 l 916 -271 q 877 -284 899 -278 q 826 -291 854 -291 z "},"Ǎ":{"ha":923,"x_min":33,"x_max":890,"o":"m 33 0 l 404 1010 l 516 1010 l 890 0 l 789 0 l 549 662 q 505 790 529 718 q 449 966 481 863 l 471 966 q 415 789 439 863 q 372 662 391 715 l 134 0 l 33 0 m 207 300 l 207 385 l 716 385 l 716 300 l 207 300 m 347 1309 l 461 1179 l 575 1309 l 668 1309 l 668 1305 l 502 1122 l 420 1122 l 256 1305 l 256 1309 l 347 1309 z "},"Ǟ":{"ha":923,"x_min":33,"x_max":890,"o":"m 33 0 l 404 1010 l 516 1010 l 890 0 l 789 0 l 549 662 q 505 790 529 718 q 449 966 481 863 l 471 966 q 415 789 439 863 q 372 662 391 715 l 134 0 l 33 0 m 207 300 l 207 385 l 716 385 l 716 300 l 207 300 m 606 1132 q 561 1151 580 1132 q 542 1196 542 1170 q 561 1241 542 1223 q 606 1260 580 1260 q 651 1241 633 1260 q 670 1196 670 1223 q 651 1151 670 1170 q 606 1132 633 1132 m 325 1132 q 280 1151 298 1132 q 261 1196 261 1170 q 280 1241 261 1223 q 325 1260 298 1260 q 370 1241 351 1260 q 389 1196 389 1223 q 370 1151 389 1170 q 325 1132 351 1132 m 640 1438 l 640 1370 l 284 1370 l 284 1438 l 640 1438 z "},"Ǡ":{"ha":923,"x_min":33,"x_max":890,"o":"m 33 0 l 404 1010 l 516 1010 l 890 0 l 789 0 l 549 662 q 505 790 529 718 q 449 966 481 863 l 471 966 q 415 789 439 863 q 372 662 391 715 l 134 0 l 33 0 m 207 300 l 207 385 l 716 385 l 716 300 l 207 300 m 463 1132 q 416 1151 435 1132 q 396 1196 396 1170 q 416 1241 396 1223 q 463 1260 435 1260 q 509 1241 490 1260 q 529 1196 529 1223 q 509 1151 529 1170 q 463 1132 490 1132 m 640 1438 l 640 1370 l 284 1370 l 284 1438 l 640 1438 z "},"Ȁ":{"ha":923,"x_min":33,"x_max":890,"o":"m 33 0 l 404 1010 l 516 1010 l 890 0 l 789 0 l 549 662 q 505 790 529 718 q 449 966 481 863 l 471 966 q 415 789 439 863 q 372 662 391 715 l 134 0 l 33 0 m 207 300 l 207 385 l 716 385 l 716 300 l 207 300 m 526 1112 l 416 1308 l 518 1308 l 602 1112 l 526 1112 m 323 1112 l 184 1308 l 287 1308 l 400 1112 l 323 1112 z "},"Ȃ":{"ha":923,"x_min":33,"x_max":890,"o":"m 33 0 l 404 1010 l 516 1010 l 890 0 l 789 0 l 549 662 q 505 790 529 718 q 449 966 481 863 l 471 966 q 415 789 439 863 q 372 662 391 715 l 134 0 l 33 0 m 207 300 l 207 385 l 716 385 l 716 300 l 207 300 m 462 1310 q 562 1285 518 1310 q 631 1218 606 1260 q 657 1122 657 1175 l 588 1122 q 551 1207 588 1174 q 462 1240 513 1240 q 373 1207 410 1240 q 336 1122 336 1174 l 267 1122 q 292 1218 267 1175 q 362 1285 318 1260 q 462 1310 406 1310 z "},"Ȧ":{"ha":923,"x_min":33,"x_max":890,"o":"m 33 0 l 404 1010 l 516 1010 l 890 0 l 789 0 l 549 662 q 505 790 529 718 q 449 966 481 863 l 471 966 q 415 789 439 863 q 372 662 391 715 l 134 0 l 33 0 m 207 300 l 207 385 l 716 385 l 716 300 l 207 300 m 462 1154 q 415 1173 435 1154 q 395 1219 395 1192 q 415 1264 395 1245 q 462 1282 435 1282 q 509 1264 489 1282 q 528 1219 528 1245 q 509 1173 528 1192 q 462 1154 489 1154 z "},"Ḁ":{"ha":923,"x_min":33,"x_max":890,"o":"m 33 0 l 404 1010 l 516 1010 l 890 0 l 789 0 l 549 662 q 505 790 529 718 q 449 966 481 863 l 471 966 q 415 789 439 863 q 372 662 391 715 l 134 0 l 33 0 m 207 300 l 207 385 l 716 385 l 716 300 l 207 300 m 462 -341 q 387 -322 420 -341 q 333 -271 353 -303 q 313 -201 313 -239 q 333 -131 313 -163 q 387 -81 353 -100 q 462 -62 420 -62 q 536 -81 503 -62 q 590 -131 570 -100 q 610 -201 610 -163 q 590 -271 610 -239 q 536 -322 570 -303 q 462 -341 503 -341 m 462 -278 q 518 -256 495 -278 q 541 -201 541 -233 q 518 -147 541 -170 q 462 -124 495 -124 q 405 -147 429 -124 q 382 -201 382 -170 q 405 -256 382 -233 q 462 -278 429 -278 z "},"Ạ":{"ha":923,"x_min":33,"x_max":890,"o":"m 33 0 l 404 1010 l 516 1010 l 890 0 l 789 0 l 549 662 q 505 790 529 718 q 449 966 481 863 l 471 966 q 415 789 439 863 q 372 662 391 715 l 134 0 l 33 0 m 207 300 l 207 385 l 716 385 l 716 300 l 207 300 m 463 -266 q 416 -247 435 -266 q 396 -201 396 -228 q 416 -156 396 -175 q 463 -138 435 -138 q 509 -156 490 -138 q 529 -201 529 -175 q 509 -247 529 -228 q 463 -266 490 -266 z "},"Ả":{"ha":923,"x_min":33,"x_max":890,"o":"m 33 0 l 404 1010 l 516 1010 l 890 0 l 789 0 l 549 662 q 505 790 529 718 q 449 966 481 863 l 471 966 q 415 789 439 863 q 372 662 391 715 l 134 0 l 33 0 m 207 300 l 207 385 l 716 385 l 716 300 l 207 300 m 494 1112 l 422 1112 l 467 1197 q 475 1233 479 1221 q 446 1245 471 1245 l 359 1245 l 359 1308 l 446 1308 q 509 1297 484 1308 q 544 1268 533 1286 q 550 1224 554 1249 q 529 1171 547 1199 l 494 1112 z "},"Ấ":{"ha":923,"x_min":33,"x_max":890,"o":"m 33 0 l 404 1010 l 516 1010 l 890 0 l 789 0 l 549 662 q 505 790 529 718 q 449 966 481 863 l 471 966 q 415 789 439 863 q 372 662 391 715 l 134 0 l 33 0 m 207 300 l 207 385 l 716 385 l 716 300 l 207 300 m 350 1102 l 258 1102 l 258 1107 l 423 1290 l 505 1290 l 671 1107 l 671 1102 l 578 1102 l 464 1233 l 350 1102 m 561 1338 l 661 1525 l 764 1525 l 637 1338 l 561 1338 z "},"Ầ":{"ha":923,"x_min":33,"x_max":890,"o":"m 33 0 l 404 1010 l 516 1010 l 890 0 l 789 0 l 549 662 q 505 790 529 718 q 449 966 481 863 l 471 966 q 415 789 439 863 q 372 662 391 715 l 134 0 l 33 0 m 207 300 l 207 385 l 716 385 l 716 300 l 207 300 m 350 1102 l 258 1102 l 258 1107 l 423 1290 l 505 1290 l 671 1107 l 671 1102 l 578 1102 l 464 1233 l 350 1102 m 600 1338 l 473 1525 l 576 1525 l 676 1338 l 600 1338 z "},"Ẩ":{"ha":923,"x_min":33,"x_max":890,"o":"m 33 0 l 404 1010 l 516 1010 l 890 0 l 789 0 l 549 662 q 505 790 529 718 q 449 966 481 863 l 471 966 q 415 789 439 863 q 372 662 391 715 l 134 0 l 33 0 m 207 300 l 207 385 l 716 385 l 716 300 l 207 300 m 350 1102 l 258 1102 l 258 1107 l 423 1290 l 505 1290 l 671 1107 l 671 1102 l 578 1102 l 464 1233 l 350 1102 m 627 1338 l 555 1338 l 596 1414 q 606 1450 610 1438 q 575 1461 601 1461 l 489 1461 l 489 1525 l 575 1525 q 654 1506 627 1525 q 683 1456 682 1487 q 659 1388 684 1426 l 627 1338 z "},"Ẫ":{"ha":923,"x_min":33,"x_max":890,"o":"m 33 0 l 404 1010 l 516 1010 l 890 0 l 789 0 l 549 662 q 505 790 529 718 q 449 966 481 863 l 471 966 q 415 789 439 863 q 372 662 391 715 l 134 0 l 33 0 m 207 300 l 207 385 l 716 385 l 716 300 l 207 300 m 349 1102 l 258 1102 l 258 1107 l 422 1290 l 504 1290 l 670 1107 l 670 1102 l 577 1102 l 464 1233 l 349 1102 m 551 1366 q 503 1376 526 1366 q 459 1398 479 1385 q 421 1420 439 1411 q 387 1430 403 1430 q 351 1412 363 1430 q 336 1369 338 1394 l 269 1369 q 299 1462 272 1426 q 377 1499 326 1499 q 427 1489 405 1499 q 469 1466 450 1478 q 505 1443 488 1453 q 541 1434 523 1434 q 574 1448 562 1434 q 591 1494 586 1462 l 657 1494 q 625 1401 653 1436 q 551 1366 597 1366 z "},"Ậ":{"ha":923,"x_min":33,"x_max":890,"o":"m 33 0 l 404 1010 l 516 1010 l 890 0 l 789 0 l 549 662 q 505 790 529 718 q 449 966 481 863 l 471 966 q 415 789 439 863 q 372 662 391 715 l 134 0 l 33 0 m 207 300 l 207 385 l 716 385 l 716 300 l 207 300 m 347 1122 l 256 1122 l 256 1127 l 420 1310 l 502 1310 l 668 1127 l 668 1122 l 575 1122 l 461 1253 l 347 1122 m 463 -266 q 416 -247 435 -266 q 396 -201 396 -228 q 416 -156 396 -175 q 463 -138 435 -138 q 509 -156 490 -138 q 529 -201 529 -175 q 509 -247 529 -228 q 463 -266 490 -266 z "},"Ắ":{"ha":923,"x_min":33,"x_max":890,"o":"m 33 0 l 404 1010 l 516 1010 l 890 0 l 789 0 l 549 662 q 505 790 529 718 q 449 966 481 863 l 471 966 q 415 789 439 863 q 372 662 391 715 l 134 0 l 33 0 m 207 300 l 207 385 l 716 385 l 716 300 l 207 300 m 463 1097 q 367 1122 410 1097 q 299 1190 324 1147 q 273 1284 273 1232 l 343 1284 q 378 1199 343 1233 q 463 1165 412 1165 q 549 1199 515 1165 q 583 1284 583 1233 l 653 1284 q 628 1190 653 1232 q 560 1122 603 1147 q 463 1097 517 1097 m 423 1338 l 524 1525 l 627 1525 l 500 1338 l 423 1338 z "},"Ằ":{"ha":923,"x_min":33,"x_max":890,"o":"m 33 0 l 404 1010 l 516 1010 l 890 0 l 789 0 l 549 662 q 505 790 529 718 q 449 966 481 863 l 471 966 q 415 789 439 863 q 372 662 391 715 l 134 0 l 33 0 m 207 300 l 207 385 l 716 385 l 716 300 l 207 300 m 460 1097 q 364 1122 407 1097 q 295 1190 321 1147 q 270 1284 270 1232 l 340 1284 q 374 1199 340 1233 q 460 1165 409 1165 q 546 1199 511 1165 q 580 1284 580 1233 l 650 1284 q 625 1190 650 1232 q 556 1122 600 1147 q 460 1097 513 1097 m 500 1338 l 423 1338 l 296 1525 l 400 1525 l 500 1338 z "},"Ẳ":{"ha":923,"x_min":33,"x_max":890,"o":"m 33 0 l 404 1010 l 516 1010 l 890 0 l 789 0 l 549 662 q 505 790 529 718 q 449 966 481 863 l 471 966 q 415 789 439 863 q 372 662 391 715 l 134 0 l 33 0 m 207 300 l 207 385 l 716 385 l 716 300 l 207 300 m 463 1097 q 367 1122 410 1097 q 299 1190 324 1147 q 273 1284 273 1232 l 343 1284 q 378 1199 343 1233 q 463 1165 412 1165 q 549 1199 515 1165 q 583 1284 583 1233 l 653 1284 q 628 1190 653 1232 q 560 1122 603 1147 q 463 1097 517 1097 m 500 1338 l 428 1338 l 469 1414 q 479 1450 484 1438 q 448 1461 474 1461 l 362 1461 l 362 1525 l 448 1525 q 528 1506 500 1525 q 556 1456 555 1487 q 532 1388 557 1426 l 500 1338 z "},"Ẵ":{"ha":923,"x_min":33,"x_max":890,"o":"m 33 0 l 404 1010 l 516 1010 l 890 0 l 789 0 l 549 662 q 505 790 529 718 q 449 966 481 863 l 471 966 q 415 789 439 863 q 372 662 391 715 l 134 0 l 33 0 m 207 300 l 207 385 l 716 385 l 716 300 l 207 300 m 462 1103 q 366 1127 409 1103 q 298 1195 323 1152 q 273 1289 273 1237 l 342 1289 q 376 1202 342 1236 q 462 1168 410 1168 q 547 1202 513 1168 q 581 1289 581 1236 l 650 1289 q 625 1195 650 1237 q 557 1127 600 1152 q 462 1103 515 1103 m 557 1366 q 508 1375 531 1366 q 465 1398 485 1385 q 426 1420 444 1411 q 392 1430 408 1430 q 356 1412 369 1430 q 342 1369 344 1394 l 275 1369 q 304 1461 277 1425 q 382 1498 332 1498 q 433 1488 410 1498 q 474 1466 455 1478 q 511 1443 493 1453 q 547 1433 528 1433 q 580 1447 568 1433 q 597 1494 592 1461 l 663 1494 q 631 1401 659 1436 q 557 1366 603 1366 z "},"Ặ":{"ha":923,"x_min":33,"x_max":890,"o":"m 33 0 l 404 1010 l 516 1010 l 890 0 l 789 0 l 549 662 q 505 790 529 718 q 449 966 481 863 l 471 966 q 415 789 439 863 q 372 662 391 715 l 134 0 l 33 0 m 207 300 l 207 385 l 716 385 l 716 300 l 207 300 m 461 1117 q 365 1142 408 1117 q 297 1209 322 1166 q 271 1303 271 1252 l 341 1303 q 376 1218 341 1252 q 461 1184 410 1184 q 547 1218 513 1184 q 581 1303 581 1253 l 651 1303 q 626 1210 651 1252 q 558 1142 601 1167 q 461 1117 515 1117 m 463 -266 q 416 -247 435 -266 q 396 -201 396 -228 q 416 -156 396 -175 q 463 -138 435 -138 q 509 -156 490 -138 q 529 -201 529 -175 q 509 -247 529 -228 q 463 -266 490 -266 z "},"Α":{"ha":923,"x_min":33,"x_max":890,"o":"m 33 0 l 404 1010 l 516 1010 l 890 0 l 789 0 l 549 662 q 505 790 529 718 q 449 966 481 863 l 471 966 q 415 789 439 863 q 372 662 391 715 l 134 0 l 33 0 m 207 300 l 207 385 l 716 385 l 716 300 l 207 300 z "},"Ά":{"ha":923,"x_min":33,"x_max":890,"o":"m 33 0 l 404 1010 l 516 1010 l 890 0 l 789 0 l 549 662 q 505 790 529 718 q 449 966 481 863 l 471 966 q 415 789 439 863 q 372 662 391 715 l 134 0 l 33 0 m 207 300 l 207 385 l 716 385 l 716 300 l 207 300 m 136 814 l 160 1010 l 256 1010 l 200 814 l 136 814 z "},"Ἀ":{"ha":955,"x_min":65,"x_max":922,"o":"m 65 0 l 436 1010 l 548 1010 l 922 0 l 821 0 l 581 662 q 537 790 561 718 q 481 966 513 863 l 503 966 q 447 789 471 863 q 404 662 422 715 l 165 0 l 65 0 m 239 300 l 239 385 l 748 385 l 748 300 l 239 300 m 131 821 l 122 821 l 122 864 l 131 864 q 187 879 168 864 q 207 920 207 894 q 187 957 207 944 q 131 969 168 969 l 104 969 l 104 1029 l 131 1029 q 240 1003 201 1029 q 278 927 278 977 q 240 849 278 877 q 131 821 201 821 z "},"Ἁ":{"ha":955,"x_min":65,"x_max":922,"o":"m 65 0 l 436 1010 l 548 1010 l 922 0 l 821 0 l 581 662 q 537 790 561 718 q 481 966 513 863 l 503 966 q 447 789 471 863 q 404 662 422 715 l 165 0 l 65 0 m 239 300 l 239 385 l 748 385 l 748 300 l 239 300 m 245 808 q 137 836 176 808 q 98 914 98 864 q 137 990 98 964 q 245 1016 176 1016 l 272 1016 l 272 956 l 245 956 q 190 944 210 956 q 170 907 170 931 q 190 866 170 881 q 245 851 210 851 l 255 851 l 255 808 l 245 808 z "},"Ἂ":{"ha":1099,"x_min":65,"x_max":1067,"o":"m 210 0 l 581 1010 l 692 1010 l 1066 0 l 966 0 l 726 662 q 681 790 705 718 q 625 966 657 863 l 647 966 q 591 789 616 863 q 548 662 567 715 l 310 0 l 210 0 m 383 300 l 383 385 l 892 385 l 892 300 l 383 300 m 92 808 l 83 808 l 83 851 l 92 851 q 148 866 128 851 q 168 907 168 881 q 148 944 168 931 q 92 956 128 956 l 65 956 l 65 1016 l 92 1016 q 200 990 162 1016 q 239 914 239 964 q 200 836 239 864 q 92 808 162 808 m 397 813 l 333 813 l 277 1010 l 372 1010 l 397 813 z "},"Ἃ":{"ha":1112,"x_min":65,"x_max":1078,"o":"m 222 0 l 593 1010 l 705 1010 l 1078 0 l 978 0 l 738 662 q 693 790 718 718 q 637 966 669 863 l 659 966 q 604 789 628 863 q 560 662 579 715 l 322 0 l 222 0 m 395 300 l 395 385 l 905 385 l 905 300 l 395 300 m 212 808 q 104 836 142 808 q 65 914 65 864 q 104 990 65 964 q 212 1016 142 1016 l 239 1016 l 239 956 l 212 956 q 156 944 176 956 q 136 907 136 931 q 156 866 136 881 q 212 851 176 851 l 222 851 l 222 808 l 212 808 m 418 813 l 354 813 l 298 1010 l 394 1010 l 418 813 z "},"Ἄ":{"ha":1102,"x_min":65,"x_max":1069,"o":"m 212 0 l 583 1010 l 695 1010 l 1069 0 l 968 0 l 728 662 q 684 790 708 718 q 628 966 660 863 l 650 966 q 594 789 618 863 q 551 662 570 715 l 313 0 l 212 0 m 386 300 l 386 385 l 895 385 l 895 300 l 386 300 m 92 808 l 83 808 l 83 851 l 92 851 q 148 866 128 851 q 168 907 168 881 q 148 944 168 931 q 92 956 128 956 l 65 956 l 65 1016 l 92 1016 q 200 990 162 1016 q 239 914 239 964 q 200 836 239 864 q 92 808 162 808 m 316 813 l 340 1010 l 436 1010 l 380 813 l 316 813 z "},"Ἅ":{"ha":1107,"x_min":65,"x_max":1074,"o":"m 218 0 l 589 1010 l 701 1010 l 1074 0 l 974 0 l 734 662 q 689 790 713 718 q 633 966 665 863 l 655 966 q 600 789 624 863 q 556 662 575 715 l 318 0 l 218 0 m 391 300 l 391 385 l 901 385 l 901 300 l 391 300 m 212 808 q 104 836 142 808 q 65 914 65 864 q 104 990 65 964 q 212 1016 142 1016 l 239 1016 l 239 956 l 212 956 q 156 944 176 956 q 136 907 136 931 q 156 866 136 881 q 212 851 176 851 l 222 851 l 222 808 l 212 808 m 321 813 l 346 1010 l 441 1010 l 385 813 l 321 813 z "},"Ἆ":{"ha":1027,"x_min":65,"x_max":994,"o":"m 138 0 l 509 1010 l 621 1010 l 994 0 l 894 0 l 654 662 q 609 790 633 718 q 553 966 585 863 l 575 966 q 519 789 544 863 q 476 662 495 715 l 238 0 l 138 0 m 311 300 l 311 385 l 821 385 l 821 300 l 311 300 m 199 812 l 189 812 l 189 855 l 199 855 q 255 870 235 855 q 275 911 275 885 q 255 948 275 935 q 199 960 235 960 l 172 960 l 172 1020 l 199 1020 q 308 994 269 1020 q 346 918 346 968 q 308 840 346 868 q 199 812 269 812 m 347 1087 q 298 1097 321 1087 q 255 1119 275 1107 q 217 1142 235 1132 q 182 1152 199 1152 q 147 1134 159 1152 q 132 1090 134 1116 l 65 1090 q 95 1183 68 1146 q 173 1219 122 1219 q 223 1210 201 1219 q 264 1187 245 1200 q 301 1165 283 1175 q 337 1155 319 1155 q 370 1169 358 1155 q 387 1215 382 1183 l 453 1215 q 421 1122 449 1157 q 347 1087 393 1087 z "},"Ἇ":{"ha":1029,"x_min":65,"x_max":996,"o":"m 139 0 l 510 1010 l 622 1010 l 996 0 l 895 0 l 655 662 q 611 790 635 718 q 555 966 587 863 l 576 966 q 521 789 545 863 q 477 662 496 715 l 239 0 l 139 0 m 313 300 l 313 385 l 822 385 l 822 300 l 313 300 m 319 805 q 211 833 249 805 q 172 911 172 861 q 211 987 172 961 q 319 1013 249 1013 l 346 1013 l 346 954 l 319 954 q 263 941 283 954 q 243 904 243 928 q 263 863 243 878 q 319 848 283 848 l 328 848 l 328 805 l 319 805 m 347 1080 q 298 1090 321 1080 q 255 1113 275 1100 q 217 1135 235 1125 q 182 1145 199 1145 q 147 1127 159 1145 q 132 1084 134 1109 l 65 1084 q 95 1176 68 1139 q 173 1213 122 1213 q 223 1203 201 1213 q 264 1180 245 1193 q 301 1158 283 1168 q 337 1148 319 1148 q 370 1162 358 1148 q 387 1208 382 1177 l 453 1208 q 421 1115 449 1150 q 347 1080 393 1080 z "},"Ᾰ":{"ha":923,"x_min":33,"x_max":890,"o":"m 33 0 l 404 1010 l 516 1010 l 890 0 l 789 0 l 549 662 q 505 790 529 718 q 449 966 481 863 l 471 966 q 415 789 439 863 q 372 662 391 715 l 134 0 l 33 0 m 207 300 l 207 385 l 716 385 l 716 300 l 207 300 m 461 1117 q 365 1142 408 1117 q 297 1209 322 1166 q 271 1303 271 1252 l 341 1303 q 376 1218 341 1252 q 461 1184 410 1184 q 547 1218 513 1184 q 581 1303 581 1253 l 651 1303 q 626 1210 651 1252 q 558 1142 601 1167 q 461 1117 515 1117 z "},"Ᾱ":{"ha":923,"x_min":33,"x_max":890,"o":"m 33 0 l 404 1010 l 516 1010 l 890 0 l 789 0 l 549 662 q 505 790 529 718 q 449 966 481 863 l 471 966 q 415 789 439 863 q 372 662 391 715 l 134 0 l 33 0 m 207 300 l 207 385 l 716 385 l 716 300 l 207 300 m 639 1253 l 639 1178 l 283 1178 l 283 1253 l 639 1253 z "},"Ὰ":{"ha":923,"x_min":33,"x_max":890,"o":"m 33 0 l 404 1010 l 516 1010 l 890 0 l 789 0 l 549 662 q 505 790 529 718 q 449 966 481 863 l 471 966 q 415 789 439 863 q 372 662 391 715 l 134 0 l 33 0 m 207 300 l 207 385 l 716 385 l 716 300 l 207 300 m 176 848 l 111 848 l 55 1044 l 151 1044 l 176 848 z "},"Ⱥ":{"ha":923,"x_min":33,"x_max":890,"o":"m 734 1138 l 284 -129 l 198 -129 l 648 1138 l 734 1138 m 33 0 l 404 1010 l 516 1010 l 890 0 l 789 0 l 549 662 q 505 790 529 718 q 449 966 481 863 l 471 966 q 415 789 439 863 q 372 662 391 715 l 134 0 l 33 0 m 207 300 l 207 385 l 716 385 l 716 300 l 207 300 z "},"Ά":{"ha":955,"x_min":65,"x_max":922,"o":"m 65 0 l 436 1010 l 548 1010 l 922 0 l 821 0 l 581 662 q 537 790 561 718 q 481 966 513 863 l 503 966 q 447 789 471 863 q 404 662 422 715 l 165 0 l 65 0 m 239 300 l 239 385 l 748 385 l 748 300 l 239 300 m 168 814 l 193 1010 l 289 1010 l 233 814 l 168 814 z "},"А":{"ha":923,"x_min":33,"x_max":890,"o":"m 33 0 l 404 1010 l 516 1010 l 890 0 l 789 0 l 549 662 q 505 790 529 718 q 449 966 481 863 l 471 966 q 415 789 439 863 q 372 662 391 715 l 134 0 l 33 0 m 207 300 l 207 385 l 716 385 l 716 300 l 207 300 z "},"Ӑ":{"ha":923,"x_min":33,"x_max":890,"o":"m 33 0 l 404 1010 l 516 1010 l 890 0 l 789 0 l 549 662 q 505 790 529 718 q 449 966 481 863 l 471 966 q 415 789 439 863 q 372 662 391 715 l 134 0 l 33 0 m 207 300 l 207 385 l 716 385 l 716 300 l 207 300 m 461 1117 q 365 1142 408 1117 q 297 1209 322 1166 q 271 1303 271 1252 l 341 1303 q 376 1218 341 1252 q 461 1184 410 1184 q 547 1218 513 1184 q 581 1303 581 1253 l 651 1303 q 626 1210 651 1252 q 558 1142 601 1167 q 461 1117 515 1117 z "},"Ӓ":{"ha":923,"x_min":33,"x_max":890,"o":"m 33 0 l 404 1010 l 516 1010 l 890 0 l 789 0 l 549 662 q 505 790 529 718 q 449 966 481 863 l 471 966 q 415 789 439 863 q 372 662 391 715 l 134 0 l 33 0 m 207 300 l 207 385 l 716 385 l 716 300 l 207 300 m 602 1154 q 557 1173 576 1154 q 538 1219 538 1192 q 557 1264 538 1245 q 602 1282 576 1282 q 647 1264 629 1282 q 666 1219 666 1245 q 647 1173 666 1192 q 602 1154 629 1154 m 321 1154 q 276 1173 294 1154 q 257 1219 257 1192 q 276 1264 257 1245 q 321 1282 294 1282 q 366 1264 347 1282 q 385 1219 385 1245 q 366 1173 385 1192 q 321 1154 347 1154 z "},"ᾈ":{"ha":955,"x_min":65,"x_max":922,"o":"m 65 0 l 436 1010 l 548 1010 l 922 0 l 821 0 l 581 662 q 537 790 561 718 q 481 966 513 863 l 503 966 q 447 789 471 863 q 404 662 422 715 l 165 0 l 65 0 m 239 300 l 239 385 l 748 385 l 748 300 l 239 300 m 553 -321 q 479 -292 506 -321 q 452 -211 452 -262 l 452 -75 l 535 -75 l 535 -209 q 544 -247 535 -234 q 572 -259 553 -259 q 586 -258 580 -259 q 600 -256 593 -258 l 601 -316 q 578 -319 591 -318 q 553 -321 565 -321 m 131 821 l 122 821 l 122 864 l 131 864 q 187 879 168 864 q 207 920 207 894 q 187 957 207 944 q 131 969 168 969 l 104 969 l 104 1029 l 131 1029 q 240 1003 201 1029 q 278 927 278 977 q 240 849 278 877 q 131 821 201 821 z "},"ᾉ":{"ha":955,"x_min":65,"x_max":922,"o":"m 65 0 l 436 1010 l 548 1010 l 922 0 l 821 0 l 581 662 q 537 790 561 718 q 481 966 513 863 l 503 966 q 447 789 471 863 q 404 662 422 715 l 165 0 l 65 0 m 239 300 l 239 385 l 748 385 l 748 300 l 239 300 m 553 -321 q 479 -292 506 -321 q 452 -211 452 -262 l 452 -75 l 535 -75 l 535 -209 q 544 -247 535 -234 q 572 -259 553 -259 q 586 -258 580 -259 q 600 -256 593 -258 l 601 -316 q 578 -319 591 -318 q 553 -321 565 -321 m 245 808 q 137 836 176 808 q 98 914 98 864 q 137 990 98 964 q 245 1016 176 1016 l 272 1016 l 272 956 l 245 956 q 190 944 210 956 q 170 907 170 931 q 190 866 170 881 q 245 851 210 851 l 255 851 l 255 808 l 245 808 z "},"ᾊ":{"ha":1099,"x_min":65,"x_max":1067,"o":"m 210 0 l 581 1010 l 692 1010 l 1066 0 l 966 0 l 726 662 q 681 790 705 718 q 625 966 657 863 l 647 966 q 591 789 616 863 q 548 662 567 715 l 310 0 l 210 0 m 383 300 l 383 385 l 892 385 l 892 300 l 383 300 m 698 -321 q 623 -292 650 -321 q 596 -211 596 -262 l 596 -75 l 680 -75 l 680 -209 q 688 -247 680 -234 q 716 -259 697 -259 q 731 -258 724 -259 q 744 -256 737 -258 l 745 -316 q 723 -319 736 -318 q 698 -321 709 -321 m 92 808 l 83 808 l 83 851 l 92 851 q 148 866 128 851 q 168 907 168 881 q 148 944 168 931 q 92 956 128 956 l 65 956 l 65 1016 l 92 1016 q 200 990 162 1016 q 239 914 239 964 q 200 836 239 864 q 92 808 162 808 m 397 813 l 333 813 l 277 1010 l 372 1010 l 397 813 z "},"ᾋ":{"ha":1112,"x_min":65,"x_max":1078,"o":"m 222 0 l 593 1010 l 705 1010 l 1078 0 l 978 0 l 738 662 q 693 790 718 718 q 637 966 669 863 l 659 966 q 604 789 628 863 q 560 662 579 715 l 322 0 l 222 0 m 395 300 l 395 385 l 905 385 l 905 300 l 395 300 m 710 -321 q 635 -292 663 -321 q 608 -211 608 -262 l 608 -75 l 692 -75 l 692 -209 q 701 -247 692 -234 q 728 -259 709 -259 q 743 -258 736 -259 q 756 -256 749 -258 l 758 -316 q 735 -319 748 -318 q 710 -321 722 -321 m 212 808 q 104 836 142 808 q 65 914 65 864 q 104 990 65 964 q 212 1016 142 1016 l 239 1016 l 239 956 l 212 956 q 156 944 176 956 q 136 907 136 931 q 156 866 136 881 q 212 851 176 851 l 222 851 l 222 808 l 212 808 m 418 813 l 354 813 l 298 1010 l 394 1010 l 418 813 z "},"ᾌ":{"ha":1102,"x_min":65,"x_max":1069,"o":"m 212 0 l 583 1010 l 695 1010 l 1069 0 l 968 0 l 728 662 q 684 790 708 718 q 628 966 660 863 l 650 966 q 594 789 618 863 q 551 662 570 715 l 313 0 l 212 0 m 386 300 l 386 385 l 895 385 l 895 300 l 386 300 m 92 808 l 83 808 l 83 851 l 92 851 q 148 866 128 851 q 168 907 168 881 q 148 944 168 931 q 92 956 128 956 l 65 956 l 65 1016 l 92 1016 q 200 990 162 1016 q 239 914 239 964 q 200 836 239 864 q 92 808 162 808 m 316 813 l 340 1010 l 436 1010 l 380 813 l 316 813 m 701 -321 q 626 -292 653 -321 q 599 -211 599 -262 l 599 -75 l 682 -75 l 682 -209 q 691 -247 682 -234 q 719 -259 700 -259 q 733 -258 727 -259 q 747 -256 740 -258 l 748 -316 q 725 -319 739 -318 q 701 -321 712 -321 z "},"ᾍ":{"ha":1107,"x_min":65,"x_max":1074,"o":"m 218 0 l 589 1010 l 701 1010 l 1074 0 l 974 0 l 734 662 q 689 790 713 718 q 633 966 665 863 l 655 966 q 600 789 624 863 q 556 662 575 715 l 318 0 l 218 0 m 391 300 l 391 385 l 901 385 l 901 300 l 391 300 m 705 -321 q 631 -292 658 -321 q 604 -211 604 -262 l 604 -75 l 687 -75 l 687 -209 q 696 -247 687 -234 q 724 -259 705 -259 q 738 -258 732 -259 q 751 -256 745 -258 l 753 -316 q 730 -319 743 -318 q 705 -321 717 -321 m 212 808 q 104 836 142 808 q 65 914 65 864 q 104 990 65 964 q 212 1016 142 1016 l 239 1016 l 239 956 l 212 956 q 156 944 176 956 q 136 907 136 931 q 156 866 136 881 q 212 851 176 851 l 222 851 l 222 808 l 212 808 m 321 813 l 346 1010 l 441 1010 l 385 813 l 321 813 z "},"ᾎ":{"ha":1027,"x_min":65,"x_max":994,"o":"m 138 0 l 509 1010 l 621 1010 l 994 0 l 894 0 l 654 662 q 609 790 633 718 q 553 966 585 863 l 575 966 q 519 789 544 863 q 476 662 495 715 l 238 0 l 138 0 m 311 300 l 311 385 l 821 385 l 821 300 l 311 300 m 199 812 l 189 812 l 189 855 l 199 855 q 255 870 235 855 q 275 911 275 885 q 255 948 275 935 q 199 960 235 960 l 172 960 l 172 1020 l 199 1020 q 308 994 269 1020 q 346 918 346 968 q 308 840 346 868 q 199 812 269 812 m 347 1087 q 298 1097 321 1087 q 255 1119 275 1107 q 217 1142 235 1132 q 182 1152 199 1152 q 147 1134 159 1152 q 132 1090 134 1116 l 65 1090 q 95 1183 68 1146 q 173 1219 122 1219 q 223 1210 201 1219 q 264 1187 245 1200 q 301 1165 283 1175 q 337 1155 319 1155 q 370 1169 358 1155 q 387 1215 382 1183 l 453 1215 q 421 1122 449 1157 q 347 1087 393 1087 m 625 -321 q 551 -292 578 -321 q 524 -211 524 -262 l 524 -75 l 607 -75 l 607 -209 q 616 -247 607 -234 q 644 -259 625 -259 q 658 -258 652 -259 q 671 -256 665 -258 l 673 -316 q 650 -319 663 -318 q 625 -321 637 -321 z "},"ᾏ":{"ha":1029,"x_min":65,"x_max":996,"o":"m 139 0 l 510 1010 l 622 1010 l 996 0 l 895 0 l 655 662 q 611 790 635 718 q 555 966 587 863 l 576 966 q 521 789 545 863 q 477 662 496 715 l 239 0 l 139 0 m 313 300 l 313 385 l 822 385 l 822 300 l 313 300 m 627 -321 q 553 -292 580 -321 q 526 -211 526 -262 l 526 -75 l 609 -75 l 609 -209 q 618 -247 609 -234 q 646 -259 627 -259 q 660 -258 654 -259 q 673 -256 667 -258 l 675 -316 q 652 -319 665 -318 q 627 -321 639 -321 m 319 805 q 211 833 249 805 q 172 911 172 861 q 211 987 172 961 q 319 1013 249 1013 l 346 1013 l 346 954 l 319 954 q 263 941 283 954 q 243 904 243 928 q 263 863 243 878 q 319 848 283 848 l 328 848 l 328 805 l 319 805 m 347 1080 q 298 1090 321 1080 q 255 1113 275 1100 q 217 1135 235 1125 q 182 1145 199 1145 q 147 1127 159 1145 q 132 1084 134 1109 l 65 1084 q 95 1176 68 1139 q 173 1213 122 1213 q 223 1203 201 1213 q 264 1180 245 1193 q 301 1158 283 1168 q 337 1148 319 1148 q 370 1162 358 1148 q 387 1208 382 1177 l 453 1208 q 421 1115 449 1150 q 347 1080 393 1080 z "},"ᾼ":{"ha":923,"x_min":33,"x_max":890,"o":"m 33 0 l 404 1010 l 516 1010 l 890 0 l 789 0 l 549 662 q 505 790 529 718 q 449 966 481 863 l 471 966 q 415 789 439 863 q 372 662 391 715 l 134 0 l 33 0 m 207 300 l 207 385 l 716 385 l 716 300 l 207 300 m 522 -321 q 447 -292 474 -321 q 420 -211 420 -262 l 420 -75 l 503 -75 l 503 -209 q 512 -247 503 -234 q 540 -259 521 -259 q 554 -258 548 -259 q 568 -256 561 -258 l 569 -316 q 546 -319 559 -318 q 522 -321 533 -321 z "},"Λ":{"ha":923,"x_min":33,"x_max":890,"o":"m 33 0 l 404 1010 l 516 1010 l 890 0 l 789 0 l 549 662 q 505 790 529 718 q 449 966 481 863 l 471 966 q 415 789 439 863 q 372 662 391 715 l 134 0 l 33 0 z "},"Æ":{"ha":1352,"x_min":33,"x_max":1268,"o":"m 33 0 l 524 1010 l 1259 1010 l 1259 925 l 760 925 l 760 549 l 1228 549 l 1228 463 l 760 463 l 760 85 l 1268 85 l 1268 0 l 667 0 l 667 941 l 587 941 l 137 0 l 33 0 m 252 305 l 252 387 l 713 387 l 713 305 l 252 305 z "},"Ǣ":{"ha":1352,"x_min":33,"x_max":1268,"o":"m 33 0 l 524 1010 l 1259 1010 l 1259 925 l 760 925 l 760 549 l 1228 549 l 1228 463 l 760 463 l 760 85 l 1268 85 l 1268 0 l 667 0 l 667 941 l 587 941 l 137 0 l 33 0 m 252 305 l 252 387 l 713 387 l 713 305 l 252 305 m 1057 1253 l 1057 1178 l 701 1178 l 701 1253 l 1057 1253 z "},"Ǽ":{"ha":1352,"x_min":33,"x_max":1268,"o":"m 33 0 l 524 1010 l 1259 1010 l 1259 925 l 760 925 l 760 549 l 1228 549 l 1228 463 l 760 463 l 760 85 l 1268 85 l 1268 0 l 667 0 l 667 941 l 587 941 l 137 0 l 33 0 m 252 305 l 252 387 l 713 387 l 713 305 l 252 305 m 839 1112 l 935 1308 l 1038 1308 l 915 1112 l 839 1112 z "},"Ӕ":{"ha":1352,"x_min":33,"x_max":1268,"o":"m 33 0 l 524 1010 l 1259 1010 l 1259 925 l 760 925 l 760 549 l 1228 549 l 1228 463 l 760 463 l 760 85 l 1268 85 l 1268 0 l 667 0 l 667 941 l 587 941 l 137 0 l 33 0 m 252 305 l 252 387 l 713 387 l 713 305 l 252 305 z "},"B":{"ha":895,"x_min":127,"x_max":813,"o":"m 127 0 l 127 1010 l 472 1010 q 638 977 570 1010 q 740 883 705 943 q 774 747 774 823 q 752 640 774 684 q 694 566 731 595 q 610 524 657 538 l 610 518 q 707 483 661 513 q 783 398 753 452 q 813 269 813 344 q 778 130 813 191 q 671 35 743 69 q 490 0 600 0 l 127 0 m 222 85 l 488 85 q 663 137 605 85 q 720 269 720 188 q 692 373 720 327 q 612 445 663 418 q 493 472 562 472 l 222 472 l 222 85 m 222 554 l 481 554 q 586 579 541 554 q 656 646 631 604 q 682 744 682 689 q 628 875 682 825 q 471 925 574 925 l 222 925 l 222 554 z "},"Ḃ":{"ha":895,"x_min":127,"x_max":813,"o":"m 127 0 l 127 1010 l 472 1010 q 638 977 570 1010 q 740 883 705 943 q 774 747 774 823 q 752 640 774 684 q 694 566 731 595 q 610 524 657 538 l 610 518 q 707 483 661 513 q 783 398 753 452 q 813 269 813 344 q 778 130 813 191 q 671 35 743 69 q 490 0 600 0 l 127 0 m 222 85 l 488 85 q 663 137 605 85 q 720 269 720 188 q 692 373 720 327 q 612 445 663 418 q 493 472 562 472 l 222 472 l 222 85 m 222 554 l 481 554 q 586 579 541 554 q 656 646 631 604 q 682 744 682 689 q 628 875 682 825 q 471 925 574 925 l 222 925 l 222 554 m 427 1154 q 380 1173 400 1154 q 361 1218 361 1192 q 380 1263 361 1244 q 427 1282 400 1282 q 474 1263 454 1282 q 494 1218 494 1244 q 474 1173 494 1192 q 427 1154 454 1154 z "},"Ḅ":{"ha":895,"x_min":127,"x_max":813,"o":"m 127 0 l 127 1010 l 472 1010 q 638 977 570 1010 q 740 883 705 943 q 774 747 774 823 q 752 640 774 684 q 694 566 731 595 q 610 524 657 538 l 610 518 q 707 483 661 513 q 783 398 753 452 q 813 269 813 344 q 778 130 813 191 q 671 35 743 69 q 490 0 600 0 l 127 0 m 222 85 l 488 85 q 663 137 605 85 q 720 269 720 188 q 692 373 720 327 q 612 445 663 418 q 493 472 562 472 l 222 472 l 222 85 m 222 554 l 481 554 q 586 579 541 554 q 656 646 631 604 q 682 744 682 689 q 628 875 682 825 q 471 925 574 925 l 222 925 l 222 554 m 436 -266 q 389 -247 409 -266 q 370 -201 370 -228 q 389 -156 370 -175 q 436 -138 409 -138 q 483 -156 463 -138 q 503 -201 503 -175 q 483 -247 503 -228 q 436 -266 463 -266 z "},"Ḇ":{"ha":895,"x_min":127,"x_max":813,"o":"m 127 0 l 127 1010 l 472 1010 q 638 977 570 1010 q 740 883 705 943 q 774 747 774 823 q 752 640 774 684 q 694 566 731 595 q 610 524 657 538 l 610 518 q 707 483 661 513 q 783 398 753 452 q 813 269 813 344 q 778 130 813 191 q 671 35 743 69 q 490 0 600 0 l 127 0 m 222 85 l 488 85 q 663 137 605 85 q 720 269 720 188 q 692 373 720 327 q 612 445 663 418 q 493 472 562 472 l 222 472 l 222 85 m 222 554 l 481 554 q 586 579 541 554 q 656 646 631 604 q 682 744 682 689 q 628 875 682 825 q 471 925 574 925 l 222 925 l 222 554 m 612 -161 l 612 -235 l 257 -235 l 257 -161 l 612 -161 z "},"Ƀ":{"ha":898,"x_min":19,"x_max":817,"o":"m 130 0 l 130 1010 l 475 1010 q 641 977 573 1010 q 742 883 708 943 q 777 747 777 823 q 755 640 777 684 q 697 566 734 595 q 613 524 660 538 l 613 518 q 710 483 663 513 q 786 398 756 452 q 816 269 816 344 q 781 130 816 191 q 674 35 745 69 q 493 0 602 0 l 130 0 m 225 85 l 491 85 q 665 137 608 85 q 723 269 723 188 q 694 373 723 327 q 615 445 666 418 q 496 472 564 472 l 225 472 l 225 85 m 225 554 l 484 554 q 589 579 544 554 q 659 646 634 604 q 684 744 684 689 q 630 875 684 825 q 474 925 576 925 l 225 925 l 225 554 m 19 243 l 19 315 l 408 315 l 408 243 l 19 243 z "},"Ɓ":{"ha":1058,"x_min":41,"x_max":976,"o":"m 41 750 l 41 831 q 87 965 41 920 q 222 1010 132 1010 l 290 1010 l 290 925 l 224 925 q 153 902 176 925 q 131 830 131 880 l 131 750 l 41 750 m 290 0 l 290 1010 l 635 1010 q 801 977 733 1010 q 902 883 868 943 q 937 747 937 823 q 915 640 937 684 q 857 566 894 595 q 773 524 820 538 l 773 518 q 870 483 823 513 q 946 398 916 452 q 976 269 976 344 q 941 130 976 191 q 834 35 905 69 q 653 0 762 0 l 290 0 m 385 85 l 651 85 q 825 137 768 85 q 883 269 883 188 q 854 373 883 327 q 775 445 826 418 q 656 472 724 472 l 385 472 l 385 85 m 385 554 l 644 554 q 749 579 704 554 q 819 646 794 604 q 844 744 844 689 q 790 875 844 825 q 634 925 736 925 l 385 925 l 385 554 z "},"В":{"ha":895,"x_min":127,"x_max":813,"o":"m 127 0 l 127 1010 l 472 1010 q 638 977 570 1010 q 740 883 705 943 q 774 747 774 823 q 752 640 774 684 q 694 566 731 595 q 610 524 657 538 l 610 518 q 707 483 661 513 q 783 398 753 452 q 813 269 813 344 q 778 130 813 191 q 671 35 743 69 q 490 0 600 0 l 127 0 m 222 85 l 488 85 q 663 137 605 85 q 720 269 720 188 q 692 373 720 327 q 612 445 663 418 q 493 472 562 472 l 222 472 l 222 85 m 222 554 l 481 554 q 586 579 541 554 q 656 646 631 604 q 682 744 682 689 q 628 875 682 825 q 471 925 574 925 l 222 925 l 222 554 z "},"Β":{"ha":895,"x_min":127,"x_max":813,"o":"m 127 0 l 127 1010 l 472 1010 q 638 977 570 1010 q 740 883 705 943 q 774 747 774 823 q 752 640 774 684 q 694 566 731 595 q 610 524 657 538 l 610 518 q 707 483 661 513 q 783 398 753 452 q 813 269 813 344 q 778 130 813 191 q 671 35 743 69 q 490 0 600 0 l 127 0 m 222 85 l 488 85 q 663 137 605 85 q 720 269 720 188 q 692 373 720 327 q 612 445 663 418 q 493 472 562 472 l 222 472 l 222 85 m 222 554 l 481 554 q 586 579 541 554 q 656 646 631 604 q 682 744 682 689 q 628 875 682 825 q 471 925 574 925 l 222 925 l 222 554 z "},"C":{"ha":1003,"x_min":82,"x_max":926,"o":"m 524 -14 q 294 51 394 -14 q 138 231 195 115 q 82 505 82 347 q 138 779 82 663 q 294 960 195 895 q 524 1024 394 1024 q 673 999 605 1024 q 793 928 741 974 q 879 823 846 883 q 926 692 913 762 l 829 692 q 792 789 819 745 q 726 866 766 833 q 635 917 686 899 q 524 935 584 935 q 347 885 426 935 q 222 738 269 834 q 176 505 176 642 q 222 271 176 367 q 348 125 269 175 q 524 75 427 75 q 635 94 584 75 q 726 145 686 112 q 792 222 766 178 q 829 319 819 267 l 926 319 q 880 189 913 249 q 794 83 846 129 q 673 12 742 37 q 524 -14 605 -14 z "},"Ƈ":{"ha":1003,"x_min":82,"x_max":1072,"o":"m 837 692 l 837 981 q 881 1100 837 1059 q 1009 1140 924 1140 q 1044 1139 1027 1140 q 1072 1137 1061 1138 l 1072 1059 q 1047 1060 1061 1060 q 1025 1061 1034 1061 q 949 1042 973 1061 q 926 981 926 1023 l 926 692 l 837 692 m 524 -14 q 294 51 394 -14 q 138 231 195 115 q 82 505 82 347 q 138 779 82 663 q 294 960 195 895 q 524 1024 394 1024 q 673 999 605 1024 q 793 928 741 974 q 879 823 846 883 q 926 692 913 762 l 829 692 q 792 789 819 745 q 726 866 766 833 q 635 917 686 899 q 524 935 584 935 q 347 885 426 935 q 222 738 269 834 q 176 505 176 642 q 222 271 176 367 q 348 125 269 175 q 524 75 427 75 q 635 94 584 75 q 726 145 686 112 q 792 222 766 178 q 829 319 819 267 l 926 319 q 880 189 913 249 q 794 83 846 129 q 673 12 742 37 q 524 -14 605 -14 z "},"Ç":{"ha":1003,"x_min":82,"x_max":926,"o":"m 524 -14 q 294 51 394 -14 q 138 231 195 115 q 82 505 82 347 q 138 779 82 663 q 294 960 195 895 q 524 1024 394 1024 q 673 999 605 1024 q 793 928 741 974 q 879 823 846 883 q 926 692 913 762 l 829 692 q 792 789 819 745 q 726 866 766 833 q 635 917 686 899 q 524 935 584 935 q 347 885 426 935 q 222 738 269 834 q 176 505 176 642 q 222 271 176 367 q 348 125 269 175 q 524 75 427 75 q 635 94 584 75 q 726 145 686 112 q 792 222 766 178 q 829 319 819 267 l 926 319 q 880 189 913 249 q 794 83 846 129 q 673 12 742 37 q 524 -14 605 -14 m 450 -288 l 450 -230 l 526 -230 q 582 -216 564 -230 q 600 -175 600 -203 q 582 -134 600 -147 q 524 -120 564 -120 l 473 -120 l 496 22 l 549 22 l 549 -4 l 543 -66 q 639 -96 606 -68 q 671 -175 671 -123 q 634 -259 671 -231 q 526 -288 597 -288 l 450 -288 z "},"Ć":{"ha":1003,"x_min":82,"x_max":926,"o":"m 524 -14 q 294 51 394 -14 q 138 231 195 115 q 82 505 82 347 q 138 779 82 663 q 294 960 195 895 q 524 1024 394 1024 q 673 999 605 1024 q 793 928 741 974 q 879 823 846 883 q 926 692 913 762 l 829 692 q 792 789 819 745 q 726 866 766 833 q 635 917 686 899 q 524 935 584 935 q 347 885 426 935 q 222 738 269 834 q 176 505 176 642 q 222 271 176 367 q 348 125 269 175 q 524 75 427 75 q 635 94 584 75 q 726 145 686 112 q 792 222 766 178 q 829 319 819 267 l 926 319 q 880 189 913 249 q 794 83 846 129 q 673 12 742 37 q 524 -14 605 -14 m 481 1112 l 577 1308 l 680 1308 l 557 1112 l 481 1112 z "},"Ĉ":{"ha":1003,"x_min":82,"x_max":926,"o":"m 524 -14 q 294 51 394 -14 q 138 231 195 115 q 82 505 82 347 q 138 779 82 663 q 294 960 195 895 q 524 1024 394 1024 q 673 999 605 1024 q 793 928 741 974 q 879 823 846 883 q 926 692 913 762 l 829 692 q 792 789 819 745 q 726 866 766 833 q 635 917 686 899 q 524 935 584 935 q 347 885 426 935 q 222 738 269 834 q 176 505 176 642 q 222 271 176 367 q 348 125 269 175 q 524 75 427 75 q 635 94 584 75 q 726 145 686 112 q 792 222 766 178 q 829 319 819 267 l 926 319 q 880 189 913 249 q 794 83 846 129 q 673 12 742 37 q 524 -14 605 -14 m 407 1122 l 315 1122 l 315 1127 l 480 1310 l 562 1310 l 728 1127 l 728 1122 l 635 1122 l 521 1253 l 407 1122 z "},"Ċ":{"ha":1003,"x_min":82,"x_max":926,"o":"m 524 -14 q 294 51 394 -14 q 138 231 195 115 q 82 505 82 347 q 138 779 82 663 q 294 960 195 895 q 524 1024 394 1024 q 673 999 605 1024 q 793 928 741 974 q 879 823 846 883 q 926 692 913 762 l 829 692 q 792 789 819 745 q 726 866 766 833 q 635 917 686 899 q 524 935 584 935 q 347 885 426 935 q 222 738 269 834 q 176 505 176 642 q 222 271 176 367 q 348 125 269 175 q 524 75 427 75 q 635 94 584 75 q 726 145 686 112 q 792 222 766 178 q 829 319 819 267 l 926 319 q 880 189 913 249 q 794 83 846 129 q 673 12 742 37 q 524 -14 605 -14 m 522 1154 q 475 1173 494 1154 q 455 1219 455 1192 q 475 1264 455 1245 q 522 1282 494 1282 q 568 1264 549 1282 q 588 1219 588 1245 q 568 1173 588 1192 q 522 1154 549 1154 z "},"Č":{"ha":1003,"x_min":82,"x_max":926,"o":"m 524 -14 q 294 51 394 -14 q 138 231 195 115 q 82 505 82 347 q 138 779 82 663 q 294 960 195 895 q 524 1024 394 1024 q 673 999 605 1024 q 793 928 741 974 q 879 823 846 883 q 926 692 913 762 l 829 692 q 792 789 819 745 q 726 866 766 833 q 635 917 686 899 q 524 935 584 935 q 347 885 426 935 q 222 738 269 834 q 176 505 176 642 q 222 271 176 367 q 348 125 269 175 q 524 75 427 75 q 635 94 584 75 q 726 145 686 112 q 792 222 766 178 q 829 319 819 267 l 926 319 q 880 189 913 249 q 794 83 846 129 q 673 12 742 37 q 524 -14 605 -14 m 407 1309 l 521 1179 l 635 1309 l 728 1309 l 728 1305 l 562 1122 l 480 1122 l 315 1305 l 315 1309 l 407 1309 z "},"Ḉ":{"ha":1003,"x_min":82,"x_max":926,"o":"m 524 -14 q 294 51 394 -14 q 138 231 195 115 q 82 505 82 347 q 138 779 82 663 q 294 960 195 895 q 524 1024 394 1024 q 673 999 605 1024 q 793 928 741 974 q 879 823 846 883 q 926 692 913 762 l 829 692 q 792 789 819 745 q 726 866 766 833 q 635 917 686 899 q 524 935 584 935 q 347 885 426 935 q 222 738 269 834 q 176 505 176 642 q 222 271 176 367 q 348 125 269 175 q 524 75 427 75 q 635 94 584 75 q 726 145 686 112 q 792 222 766 178 q 829 319 819 267 l 926 319 q 880 189 913 249 q 794 83 846 129 q 673 12 742 37 q 524 -14 605 -14 m 450 -288 l 450 -230 l 526 -230 q 582 -216 564 -230 q 600 -175 600 -203 q 582 -134 600 -147 q 524 -120 564 -120 l 473 -120 l 496 22 l 549 22 l 549 -4 l 543 -66 q 639 -96 606 -68 q 671 -175 671 -123 q 634 -259 671 -231 q 526 -288 597 -288 l 450 -288 m 481 1112 l 577 1308 l 680 1308 l 557 1112 l 481 1112 z "},"Ȼ":{"ha":1003,"x_min":82,"x_max":926,"o":"m 229 -129 l 692 1138 l 779 1138 l 315 -129 l 229 -129 m 524 -14 q 294 51 394 -14 q 138 231 195 115 q 82 505 82 347 q 138 779 82 663 q 294 960 195 895 q 524 1024 394 1024 q 673 999 605 1024 q 793 928 741 974 q 879 823 846 883 q 926 692 913 762 l 829 692 q 792 789 819 745 q 726 866 766 833 q 635 917 686 899 q 524 935 584 935 q 347 885 426 935 q 222 738 269 834 q 176 505 176 642 q 222 271 176 367 q 348 125 269 175 q 524 75 427 75 q 635 94 584 75 q 726 145 686 112 q 792 222 766 178 q 829 319 819 267 l 926 319 q 880 189 913 249 q 794 83 846 129 q 673 12 742 37 q 524 -14 605 -14 z "},"Ɔ":{"ha":1003,"x_min":77,"x_max":920,"o":"m 479 1024 q 708 960 609 1024 q 864 780 808 896 q 920 506 920 663 q 864 232 920 349 q 708 51 808 115 q 479 -14 609 -14 q 330 12 398 -14 q 209 82 261 37 q 123 189 157 128 q 77 319 90 249 l 174 319 q 211 222 184 267 q 277 145 237 178 q 368 94 317 112 q 479 75 419 75 q 655 126 576 75 q 781 273 734 176 q 827 506 827 369 q 781 740 827 644 q 655 885 734 836 q 479 935 576 935 q 368 917 419 935 q 277 866 317 899 q 211 788 237 833 q 173 692 184 744 l 77 692 q 123 822 90 762 q 209 927 157 882 q 330 999 261 973 q 479 1024 398 1024 z "},"Ϲ":{"ha":1003,"x_min":82,"x_max":926,"o":"m 524 -14 q 294 51 394 -14 q 138 231 195 115 q 82 505 82 347 q 138 779 82 663 q 294 960 195 895 q 524 1024 394 1024 q 673 999 605 1024 q 793 928 741 974 q 879 823 846 883 q 926 692 913 762 l 829 692 q 792 789 819 745 q 726 866 766 833 q 635 917 686 899 q 524 935 584 935 q 347 885 426 935 q 222 738 269 834 q 176 505 176 642 q 222 271 176 367 q 348 125 269 175 q 524 75 427 75 q 635 94 584 75 q 726 145 686 112 q 792 222 766 178 q 829 319 819 267 l 926 319 q 880 189 913 249 q 794 83 846 129 q 673 12 742 37 q 524 -14 605 -14 z "},"D":{"ha":985,"x_min":127,"x_max":903,"o":"m 425 0 l 180 0 l 180 85 l 420 85 q 636 136 549 85 q 767 281 723 186 q 810 508 810 376 q 768 731 810 638 q 642 875 725 825 q 437 925 559 925 l 176 925 l 176 1010 l 443 1010 q 690 950 587 1010 q 848 777 793 890 q 903 508 903 665 q 847 235 903 349 q 685 61 791 121 q 425 0 578 0 m 222 1010 l 222 0 l 127 0 l 127 1010 l 222 1010 z "},"Ɗ":{"ha":1148,"x_min":42,"x_max":1066,"o":"m 42 750 l 42 831 q 87 965 42 920 q 223 1010 133 1010 l 290 1010 l 290 925 l 224 925 q 154 902 176 925 q 132 830 132 880 l 132 750 l 42 750 m 588 0 l 342 0 l 342 85 l 583 85 q 799 136 712 85 q 929 281 886 186 q 973 508 973 376 q 930 731 973 638 q 805 875 888 825 q 600 925 722 925 l 339 925 l 339 1010 l 606 1010 q 853 950 750 1010 q 1011 777 956 890 q 1066 508 1066 665 q 1010 235 1066 349 q 847 61 954 121 q 588 0 740 0 m 385 1010 l 385 0 l 290 0 l 290 1010 l 385 1010 z "},"Ď":{"ha":985,"x_min":127,"x_max":903,"o":"m 425 0 l 180 0 l 180 85 l 420 85 q 636 136 549 85 q 767 281 723 186 q 810 508 810 376 q 768 731 810 638 q 642 875 725 825 q 437 925 559 925 l 176 925 l 176 1010 l 443 1010 q 690 950 587 1010 q 848 777 793 890 q 903 508 903 665 q 847 235 903 349 q 685 61 791 121 q 425 0 578 0 m 222 1010 l 222 0 l 127 0 l 127 1010 l 222 1010 m 302 1309 l 416 1179 l 530 1309 l 623 1309 l 623 1305 l 456 1122 l 375 1122 l 210 1305 l 210 1309 l 302 1309 z "},"Ḋ":{"ha":985,"x_min":127,"x_max":903,"o":"m 425 0 l 180 0 l 180 85 l 420 85 q 636 136 549 85 q 767 281 723 186 q 810 508 810 376 q 768 731 810 638 q 642 875 725 825 q 437 925 559 925 l 176 925 l 176 1010 l 443 1010 q 690 950 587 1010 q 848 777 793 890 q 903 508 903 665 q 847 235 903 349 q 685 61 791 121 q 425 0 578 0 m 222 1010 l 222 0 l 127 0 l 127 1010 l 222 1010 m 416 1154 q 370 1173 389 1154 q 350 1219 350 1192 q 370 1264 350 1245 q 416 1282 389 1282 q 463 1264 444 1282 q 483 1219 483 1245 q 463 1173 483 1192 q 416 1154 444 1154 z "},"Ḍ":{"ha":985,"x_min":127,"x_max":903,"o":"m 425 0 l 180 0 l 180 85 l 420 85 q 636 136 549 85 q 767 281 723 186 q 810 508 810 376 q 768 731 810 638 q 642 875 725 825 q 437 925 559 925 l 176 925 l 176 1010 l 443 1010 q 690 950 587 1010 q 848 777 793 890 q 903 508 903 665 q 847 235 903 349 q 685 61 791 121 q 425 0 578 0 m 222 1010 l 222 0 l 127 0 l 127 1010 l 222 1010 m 412 -266 q 365 -247 385 -266 q 345 -201 345 -228 q 365 -156 345 -175 q 412 -138 385 -138 q 458 -156 439 -138 q 478 -201 478 -175 q 458 -247 478 -228 q 412 -266 439 -266 z "},"Ḏ":{"ha":985,"x_min":127,"x_max":903,"o":"m 425 0 l 180 0 l 180 85 l 420 85 q 636 136 549 85 q 767 281 723 186 q 810 508 810 376 q 768 731 810 638 q 642 875 725 825 q 437 925 559 925 l 176 925 l 176 1010 l 443 1010 q 690 950 587 1010 q 848 777 793 890 q 903 508 903 665 q 847 235 903 349 q 685 61 791 121 q 425 0 578 0 m 222 1010 l 222 0 l 127 0 l 127 1010 l 222 1010 m 588 -161 l 588 -235 l 233 -235 l 233 -161 l 588 -161 z "},"Ḑ":{"ha":985,"x_min":127,"x_max":903,"o":"m 425 0 l 180 0 l 180 85 l 420 85 q 636 136 549 85 q 767 281 723 186 q 810 508 810 376 q 768 731 810 638 q 642 875 725 825 q 437 925 559 925 l 176 925 l 176 1010 l 443 1010 q 690 950 587 1010 q 848 777 793 890 q 903 508 903 665 q 847 235 903 349 q 685 61 791 121 q 425 0 578 0 m 222 1010 l 222 0 l 127 0 l 127 1010 l 222 1010 m 304 -334 l 362 -80 l 456 -80 l 374 -334 l 304 -334 z "},"Ḓ":{"ha":985,"x_min":127,"x_max":903,"o":"m 425 0 l 180 0 l 180 85 l 420 85 q 636 136 549 85 q 767 281 723 186 q 810 508 810 376 q 768 731 810 638 q 642 875 725 825 q 437 925 559 925 l 176 925 l 176 1010 l 443 1010 q 690 950 587 1010 q 848 777 793 890 q 903 508 903 665 q 847 235 903 349 q 685 61 791 121 q 425 0 578 0 m 222 1010 l 222 0 l 127 0 l 127 1010 l 222 1010 m 298 -296 l 207 -296 l 207 -291 l 372 -108 l 453 -108 l 619 -291 l 619 -296 l 526 -296 l 412 -165 l 298 -296 z "},"Ɖ":{"ha":1003,"x_min":20,"x_max":921,"o":"m 443 0 l 197 0 l 197 85 l 437 85 q 654 136 567 85 q 784 281 741 186 q 828 508 828 376 q 785 731 828 638 q 660 875 743 825 q 454 925 576 925 l 194 925 l 194 1010 l 460 1010 q 708 950 605 1010 q 866 777 811 890 q 921 508 921 665 q 865 235 921 349 q 702 61 809 121 q 443 0 595 0 m 240 1010 l 240 0 l 145 0 l 145 1010 l 240 1010 m 20 465 l 20 545 l 498 545 l 498 465 l 20 465 z "},"ǲ":{"ha":1716,"x_min":127,"x_max":1631,"o":"m 425 0 l 180 0 l 180 85 l 420 85 q 636 136 549 85 q 767 281 723 186 q 810 508 810 376 q 768 731 810 638 q 642 875 725 825 q 437 925 559 925 l 176 925 l 176 1010 l 443 1010 q 690 950 587 1010 q 848 777 793 890 q 903 508 903 665 q 847 235 903 349 q 685 61 791 121 q 425 0 578 0 m 222 1010 l 222 0 l 127 0 l 127 1010 l 222 1010 m 1071 0 l 1071 71 l 1502 659 l 1502 665 l 1086 665 l 1086 749 l 1617 749 l 1617 674 l 1194 90 l 1194 84 l 1630 84 l 1630 0 l 1071 0 z "},"ǅ":{"ha":1716,"x_min":127,"x_max":1631,"o":"m 425 0 l 180 0 l 180 85 l 420 85 q 636 136 549 85 q 767 281 723 186 q 810 508 810 376 q 768 731 810 638 q 642 875 725 825 q 437 925 559 925 l 176 925 l 176 1010 l 443 1010 q 690 950 587 1010 q 848 777 793 890 q 903 508 903 665 q 847 235 903 349 q 685 61 791 121 q 425 0 578 0 m 222 1010 l 222 0 l 127 0 l 127 1010 l 222 1010 m 1071 0 l 1071 71 l 1502 659 l 1502 665 l 1086 665 l 1086 749 l 1617 749 l 1617 674 l 1194 90 l 1194 84 l 1630 84 l 1630 0 l 1071 0 m 1230 1047 l 1344 917 l 1458 1047 l 1551 1047 l 1551 1043 l 1385 860 l 1303 860 l 1139 1043 l 1139 1047 l 1230 1047 z "},"E":{"ha":820,"x_min":127,"x_max":736,"o":"m 127 0 l 127 1010 l 729 1010 l 729 925 l 222 925 l 222 553 l 694 553 l 694 467 l 222 467 l 222 85 l 736 85 l 736 0 l 127 0 z "},"È":{"ha":820,"x_min":127,"x_max":736,"o":"m 127 0 l 127 1010 l 729 1010 l 729 925 l 222 925 l 222 553 l 694 553 l 694 467 l 222 467 l 222 85 l 736 85 l 736 0 l 127 0 m 396 1112 l 273 1308 l 376 1308 l 473 1112 l 396 1112 z "},"É":{"ha":820,"x_min":127,"x_max":736,"o":"m 127 0 l 127 1010 l 729 1010 l 729 925 l 222 925 l 222 553 l 694 553 l 694 467 l 222 467 l 222 85 l 736 85 l 736 0 l 127 0 m 391 1112 l 488 1308 l 591 1308 l 467 1112 l 391 1112 z "},"Ê":{"ha":820,"x_min":127,"x_max":736,"o":"m 127 0 l 127 1010 l 729 1010 l 729 925 l 222 925 l 222 553 l 694 553 l 694 467 l 222 467 l 222 85 l 736 85 l 736 0 l 127 0 m 317 1122 l 226 1122 l 226 1127 l 391 1310 l 472 1310 l 638 1127 l 638 1122 l 545 1122 l 431 1253 l 317 1122 z "},"Ë":{"ha":820,"x_min":127,"x_max":736,"o":"m 127 0 l 127 1010 l 729 1010 l 729 925 l 222 925 l 222 553 l 694 553 l 694 467 l 222 467 l 222 85 l 736 85 l 736 0 l 127 0 m 572 1154 q 527 1173 546 1154 q 508 1219 508 1192 q 527 1264 508 1245 q 572 1282 546 1282 q 617 1264 599 1282 q 636 1219 636 1245 q 617 1173 636 1192 q 572 1154 599 1154 m 291 1154 q 246 1173 264 1154 q 227 1219 227 1192 q 246 1264 227 1245 q 291 1282 264 1282 q 336 1264 317 1282 q 355 1219 355 1245 q 336 1173 355 1192 q 291 1154 317 1154 z "},"Ē":{"ha":820,"x_min":127,"x_max":736,"o":"m 127 0 l 127 1010 l 729 1010 l 729 925 l 222 925 l 222 553 l 694 553 l 694 467 l 222 467 l 222 85 l 736 85 l 736 0 l 127 0 m 609 1253 l 609 1178 l 254 1178 l 254 1253 l 609 1253 z "},"Ĕ":{"ha":820,"x_min":127,"x_max":736,"o":"m 127 0 l 127 1010 l 729 1010 l 729 925 l 222 925 l 222 553 l 694 553 l 694 467 l 222 467 l 222 85 l 736 85 l 736 0 l 127 0 m 431 1117 q 335 1142 378 1117 q 267 1209 292 1166 q 241 1303 241 1252 l 311 1303 q 346 1218 311 1252 q 431 1184 380 1184 q 517 1218 483 1184 q 551 1303 551 1253 l 621 1303 q 596 1210 621 1252 q 528 1142 571 1167 q 431 1117 485 1117 z "},"Ė":{"ha":820,"x_min":127,"x_max":736,"o":"m 127 0 l 127 1010 l 729 1010 l 729 925 l 222 925 l 222 553 l 694 553 l 694 467 l 222 467 l 222 85 l 736 85 l 736 0 l 127 0 m 432 1154 q 385 1173 405 1154 q 366 1219 366 1192 q 385 1264 366 1245 q 432 1282 405 1282 q 479 1264 459 1282 q 498 1219 498 1245 q 479 1173 498 1192 q 432 1154 459 1154 z "},"Ę":{"ha":820,"x_min":127,"x_max":762,"o":"m 127 0 l 127 1010 l 729 1010 l 729 925 l 222 925 l 222 553 l 694 553 l 694 467 l 222 467 l 222 85 l 736 85 l 736 0 l 127 0 m 672 -291 q 571 -260 612 -291 q 529 -169 529 -229 q 563 -72 529 -118 q 654 15 596 -26 l 736 0 q 653 -76 686 -40 q 621 -154 621 -112 q 638 -198 621 -183 q 688 -213 656 -213 q 715 -210 703 -213 q 739 -201 728 -206 l 762 -271 q 723 -284 745 -278 q 672 -291 701 -291 z "},"Ě":{"ha":820,"x_min":127,"x_max":736,"o":"m 127 0 l 127 1010 l 729 1010 l 729 925 l 222 925 l 222 553 l 694 553 l 694 467 l 222 467 l 222 85 l 736 85 l 736 0 l 127 0 m 317 1309 l 431 1179 l 545 1309 l 638 1309 l 638 1305 l 472 1122 l 391 1122 l 226 1305 l 226 1309 l 317 1309 z "},"Ȅ":{"ha":820,"x_min":127,"x_max":736,"o":"m 127 0 l 127 1010 l 729 1010 l 729 925 l 222 925 l 222 553 l 694 553 l 694 467 l 222 467 l 222 85 l 736 85 l 736 0 l 127 0 m 496 1112 l 387 1308 l 488 1308 l 572 1112 l 496 1112 m 293 1112 l 155 1308 l 257 1308 l 370 1112 l 293 1112 z "},"Ȇ":{"ha":820,"x_min":127,"x_max":736,"o":"m 127 0 l 127 1010 l 729 1010 l 729 925 l 222 925 l 222 553 l 694 553 l 694 467 l 222 467 l 222 85 l 736 85 l 736 0 l 127 0 m 432 1310 q 532 1285 488 1310 q 602 1218 576 1260 q 627 1122 627 1175 l 558 1122 q 521 1207 558 1174 q 432 1240 484 1240 q 343 1207 380 1240 q 306 1122 306 1174 l 237 1122 q 262 1218 237 1175 q 332 1285 288 1260 q 432 1310 376 1310 z "},"Ȩ":{"ha":820,"x_min":127,"x_max":736,"o":"m 127 0 l 127 1010 l 729 1010 l 729 925 l 222 925 l 222 553 l 694 553 l 694 467 l 222 467 l 222 85 l 736 85 l 736 0 l 127 0 m 362 -283 l 362 -226 l 437 -226 q 494 -212 476 -226 q 512 -171 512 -199 q 494 -130 512 -143 q 436 -116 476 -116 l 385 -116 l 408 26 l 460 26 l 460 0 l 455 -62 q 551 -92 518 -64 q 583 -171 583 -119 q 546 -255 583 -227 q 437 -283 509 -283 l 362 -283 z "},"Ḕ":{"ha":820,"x_min":127,"x_max":736,"o":"m 127 0 l 127 1010 l 729 1010 l 729 925 l 222 925 l 222 553 l 694 553 l 694 467 l 222 467 l 222 85 l 736 85 l 736 0 l 127 0 m 610 1234 l 610 1159 l 254 1159 l 254 1234 l 610 1234 m 398 1343 l 271 1529 l 375 1529 l 475 1343 l 398 1343 z "},"Ḗ":{"ha":820,"x_min":127,"x_max":736,"o":"m 127 0 l 127 1010 l 729 1010 l 729 925 l 222 925 l 222 553 l 694 553 l 694 467 l 222 467 l 222 85 l 736 85 l 736 0 l 127 0 m 610 1234 l 610 1159 l 254 1159 l 254 1234 l 610 1234 m 396 1343 l 496 1529 l 600 1529 l 473 1343 l 396 1343 z "},"Ḙ":{"ha":820,"x_min":127,"x_max":736,"o":"m 127 0 l 127 1010 l 729 1010 l 729 925 l 222 925 l 222 553 l 694 553 l 694 467 l 222 467 l 222 85 l 736 85 l 736 0 l 127 0 m 320 -296 l 229 -296 l 229 -291 l 393 -108 l 475 -108 l 641 -291 l 641 -296 l 548 -296 l 434 -165 l 320 -296 z "},"Ḛ":{"ha":820,"x_min":127,"x_max":736,"o":"m 127 0 l 127 1010 l 729 1010 l 729 925 l 222 925 l 222 553 l 694 553 l 694 467 l 222 467 l 222 85 l 736 85 l 736 0 l 127 0 m 522 -268 q 473 -258 496 -268 q 430 -236 450 -248 q 391 -213 410 -223 q 357 -203 373 -203 q 321 -221 334 -203 q 307 -264 309 -239 l 239 -264 q 269 -172 242 -209 q 347 -136 296 -136 q 398 -145 376 -136 q 439 -168 420 -155 q 475 -190 458 -180 q 511 -200 493 -200 q 545 -186 532 -200 q 562 -140 557 -172 l 627 -140 q 595 -233 623 -198 q 522 -268 568 -268 z "},"Ḝ":{"ha":820,"x_min":127,"x_max":736,"o":"m 127 0 l 127 1010 l 729 1010 l 729 925 l 222 925 l 222 553 l 694 553 l 694 467 l 222 467 l 222 85 l 736 85 l 736 0 l 127 0 m 362 -283 l 362 -226 l 437 -226 q 494 -212 476 -226 q 512 -171 512 -199 q 494 -130 512 -143 q 436 -116 476 -116 l 385 -116 l 408 26 l 460 26 l 460 0 l 455 -62 q 551 -92 518 -64 q 583 -171 583 -119 q 546 -255 583 -227 q 437 -283 509 -283 l 362 -283 m 431 1117 q 335 1142 378 1117 q 267 1209 292 1166 q 241 1303 241 1252 l 311 1303 q 346 1218 311 1252 q 431 1184 380 1184 q 517 1218 483 1184 q 551 1303 551 1253 l 621 1303 q 596 1210 621 1252 q 528 1142 571 1167 q 431 1117 485 1117 z "},"Ẹ":{"ha":820,"x_min":127,"x_max":736,"o":"m 127 0 l 127 1010 l 729 1010 l 729 925 l 222 925 l 222 553 l 694 553 l 694 467 l 222 467 l 222 85 l 736 85 l 736 0 l 127 0 m 433 -266 q 387 -247 406 -266 q 367 -201 367 -228 q 387 -156 367 -175 q 433 -138 406 -138 q 480 -156 460 -138 q 500 -201 500 -175 q 480 -247 500 -228 q 433 -266 460 -266 z "},"Ẻ":{"ha":820,"x_min":127,"x_max":736,"o":"m 127 0 l 127 1010 l 729 1010 l 729 925 l 222 925 l 222 553 l 694 553 l 694 467 l 222 467 l 222 85 l 736 85 l 736 0 l 127 0 m 464 1112 l 392 1112 l 437 1197 q 445 1233 450 1221 q 416 1245 441 1245 l 329 1245 l 329 1308 l 416 1308 q 479 1297 454 1308 q 514 1268 503 1286 q 520 1224 524 1249 q 499 1171 517 1199 l 464 1112 z "},"Ẽ":{"ha":820,"x_min":127,"x_max":736,"o":"m 127 0 l 127 1010 l 729 1010 l 729 925 l 222 925 l 222 553 l 694 553 l 694 467 l 222 467 l 222 85 l 736 85 l 736 0 l 127 0 m 520 1150 q 471 1160 494 1150 q 428 1182 448 1170 q 390 1205 408 1195 q 355 1215 372 1215 q 320 1197 332 1215 q 305 1154 307 1179 l 238 1154 q 268 1246 241 1209 q 346 1282 295 1282 q 396 1273 374 1282 q 437 1250 418 1263 q 474 1228 456 1238 q 510 1218 492 1218 q 543 1232 531 1218 q 560 1278 555 1246 l 626 1278 q 594 1185 622 1220 q 520 1150 566 1150 z "},"Ế":{"ha":820,"x_min":127,"x_max":736,"o":"m 127 0 l 127 1010 l 729 1010 l 729 925 l 222 925 l 222 553 l 694 553 l 694 467 l 222 467 l 222 85 l 736 85 l 736 0 l 127 0 m 320 1102 l 229 1102 l 229 1107 l 393 1290 l 475 1290 l 641 1107 l 641 1102 l 548 1102 l 434 1233 l 320 1102 m 531 1338 l 631 1525 l 734 1525 l 608 1338 l 531 1338 z "},"Ề":{"ha":820,"x_min":127,"x_max":736,"o":"m 127 0 l 127 1010 l 729 1010 l 729 925 l 222 925 l 222 553 l 694 553 l 694 467 l 222 467 l 222 85 l 736 85 l 736 0 l 127 0 m 320 1102 l 229 1102 l 229 1107 l 393 1290 l 475 1290 l 641 1107 l 641 1102 l 548 1102 l 434 1233 l 320 1102 m 570 1338 l 443 1525 l 547 1525 l 646 1338 l 570 1338 z "},"Ể":{"ha":820,"x_min":127,"x_max":736,"o":"m 127 0 l 127 1010 l 729 1010 l 729 925 l 222 925 l 222 553 l 694 553 l 694 467 l 222 467 l 222 85 l 736 85 l 736 0 l 127 0 m 320 1102 l 229 1102 l 229 1107 l 393 1290 l 475 1290 l 641 1107 l 641 1102 l 548 1102 l 434 1233 l 320 1102 m 597 1338 l 526 1338 l 566 1414 q 576 1450 581 1438 q 545 1461 571 1461 l 459 1461 l 459 1525 l 545 1525 q 625 1506 597 1525 q 653 1456 652 1487 q 629 1388 654 1426 l 597 1338 z "},"Ễ":{"ha":820,"x_min":127,"x_max":736,"o":"m 127 0 l 127 1010 l 729 1010 l 729 925 l 222 925 l 222 553 l 694 553 l 694 467 l 222 467 l 222 85 l 736 85 l 736 0 l 127 0 m 319 1102 l 228 1102 l 228 1107 l 393 1290 l 474 1290 l 640 1107 l 640 1102 l 547 1102 l 434 1233 l 319 1102 m 522 1366 q 473 1376 496 1366 q 429 1398 450 1385 q 391 1420 409 1411 q 357 1430 373 1430 q 321 1412 334 1430 q 307 1369 309 1394 l 239 1369 q 269 1462 242 1426 q 347 1499 296 1499 q 397 1489 375 1499 q 439 1466 420 1478 q 475 1443 458 1453 q 511 1434 493 1434 q 544 1448 532 1434 q 562 1494 556 1462 l 627 1494 q 595 1401 623 1436 q 522 1366 568 1366 z "},"Ệ":{"ha":820,"x_min":127,"x_max":736,"o":"m 127 0 l 127 1010 l 729 1010 l 729 925 l 222 925 l 222 553 l 694 553 l 694 467 l 222 467 l 222 85 l 736 85 l 736 0 l 127 0 m 317 1122 l 226 1122 l 226 1127 l 391 1310 l 472 1310 l 638 1127 l 638 1122 l 545 1122 l 431 1253 l 317 1122 m 433 -266 q 387 -247 406 -266 q 367 -201 367 -228 q 387 -156 367 -175 q 433 -138 406 -138 q 480 -156 460 -138 q 500 -201 500 -175 q 480 -247 500 -228 q 433 -266 460 -266 z "},"Ɇ":{"ha":820,"x_min":127,"x_max":736,"o":"m 222 -129 l 588 1138 l 672 1138 l 307 -129 l 222 -129 m 127 0 l 127 1010 l 729 1010 l 729 925 l 222 925 l 222 553 l 694 553 l 694 467 l 222 467 l 222 85 l 736 85 l 736 0 l 127 0 z "},"Ǝ":{"ha":820,"x_min":84,"x_max":692,"o":"m 692 1010 l 692 0 l 91 0 l 91 85 l 597 85 l 597 457 l 125 457 l 125 543 l 597 543 l 597 925 l 84 925 l 84 1010 l 692 1010 z "},"Ε":{"ha":820,"x_min":127,"x_max":736,"o":"m 127 0 l 127 1010 l 729 1010 l 729 925 l 222 925 l 222 553 l 694 553 l 694 467 l 222 467 l 222 85 l 736 85 l 736 0 l 127 0 z "},"Έ":{"ha":968,"x_min":65,"x_max":885,"o":"m 276 0 l 276 1010 l 878 1010 l 878 925 l 371 925 l 371 553 l 843 553 l 843 467 l 371 467 l 371 85 l 884 85 l 884 0 l 276 0 m 65 814 l 90 1010 l 186 1010 l 130 814 l 65 814 z "},"Ἐ":{"ha":1032,"x_min":65,"x_max":948,"o":"m 340 0 l 340 1010 l 941 1010 l 941 925 l 435 925 l 435 553 l 907 553 l 907 467 l 435 467 l 435 85 l 948 85 l 948 0 l 340 0 m 92 821 l 83 821 l 83 864 l 92 864 q 148 879 128 864 q 168 920 168 894 q 148 957 168 944 q 92 969 128 969 l 65 969 l 65 1029 l 92 1029 q 200 1003 162 1029 q 239 927 239 977 q 200 849 239 877 q 92 821 162 821 z "},"Ἑ":{"ha":1038,"x_min":65,"x_max":954,"o":"m 346 0 l 346 1010 l 947 1010 l 947 925 l 441 925 l 441 553 l 913 553 l 913 467 l 441 467 l 441 85 l 954 85 l 954 0 l 346 0 m 212 808 q 104 836 142 808 q 65 914 65 864 q 104 990 65 964 q 212 1016 142 1016 l 239 1016 l 239 956 l 212 956 q 156 944 176 956 q 136 907 136 931 q 156 866 136 881 q 212 851 176 851 l 222 851 l 222 808 l 212 808 z "},"Ἒ":{"ha":1216,"x_min":65,"x_max":1133,"o":"m 524 0 l 524 1010 l 1125 1010 l 1125 925 l 618 925 l 618 553 l 1090 553 l 1090 467 l 618 467 l 618 85 l 1132 85 l 1132 0 l 524 0 m 92 808 l 83 808 l 83 851 l 92 851 q 148 866 128 851 q 168 907 168 881 q 148 944 168 931 q 92 956 128 956 l 65 956 l 65 1016 l 92 1016 q 200 990 162 1016 q 239 914 239 964 q 200 836 239 864 q 92 808 162 808 m 397 813 l 333 813 l 277 1010 l 372 1010 l 397 813 z "},"Ἓ":{"ha":1228,"x_min":65,"x_max":1144,"o":"m 536 0 l 536 1010 l 1137 1010 l 1137 925 l 631 925 l 631 553 l 1103 553 l 1103 467 l 631 467 l 631 85 l 1144 85 l 1144 0 l 536 0 m 212 808 q 104 836 142 808 q 65 914 65 864 q 104 990 65 964 q 212 1016 142 1016 l 239 1016 l 239 956 l 212 956 q 156 944 176 956 q 136 907 136 931 q 156 866 136 881 q 212 851 176 851 l 222 851 l 222 808 l 212 808 m 418 813 l 354 813 l 298 1010 l 394 1010 l 418 813 z "},"Ἔ":{"ha":1219,"x_min":65,"x_max":1135,"o":"m 526 0 l 526 1010 l 1128 1010 l 1128 925 l 621 925 l 621 553 l 1093 553 l 1093 467 l 621 467 l 621 85 l 1135 85 l 1135 0 l 526 0 m 92 808 l 83 808 l 83 851 l 92 851 q 148 866 128 851 q 168 907 168 881 q 148 944 168 931 q 92 956 128 956 l 65 956 l 65 1016 l 92 1016 q 200 990 162 1016 q 239 914 239 964 q 200 836 239 864 q 92 808 162 808 m 316 813 l 340 1010 l 436 1010 l 380 813 l 316 813 z "},"Ἕ":{"ha":1224,"x_min":65,"x_max":1140,"o":"m 532 0 l 532 1010 l 1133 1010 l 1133 925 l 627 925 l 627 553 l 1099 553 l 1099 467 l 627 467 l 627 85 l 1140 85 l 1140 0 l 532 0 m 212 808 q 104 836 142 808 q 65 914 65 864 q 104 990 65 964 q 212 1016 142 1016 l 239 1016 l 239 956 l 212 956 q 156 944 176 956 q 136 907 136 931 q 156 866 136 881 q 212 851 176 851 l 222 851 l 222 808 l 212 808 m 321 813 l 346 1010 l 441 1010 l 385 813 l 321 813 z "},"Ὲ":{"ha":935,"x_min":-51,"x_max":850,"o":"m 242 0 l 242 1010 l 844 1010 l 844 925 l 337 925 l 337 553 l 809 553 l 809 467 l 337 467 l 337 85 l 850 85 l 850 0 l 242 0 m 70 848 l 5 848 l -51 1044 l 45 1044 l 70 848 z "},"Έ":{"ha":968,"x_min":65,"x_max":885,"o":"m 276 0 l 276 1010 l 878 1010 l 878 925 l 371 925 l 371 553 l 843 553 l 843 467 l 371 467 l 371 85 l 884 85 l 884 0 l 276 0 m 65 814 l 90 1010 l 186 1010 l 130 814 l 65 814 z "},"Е":{"ha":820,"x_min":127,"x_max":736,"o":"m 127 0 l 127 1010 l 729 1010 l 729 925 l 222 925 l 222 553 l 694 553 l 694 467 l 222 467 l 222 85 l 736 85 l 736 0 l 127 0 z "},"Ѐ":{"ha":820,"x_min":127,"x_max":736,"o":"m 127 0 l 127 1010 l 729 1010 l 729 925 l 222 925 l 222 553 l 694 553 l 694 467 l 222 467 l 222 85 l 736 85 l 736 0 l 127 0 m 396 1112 l 273 1308 l 376 1308 l 473 1112 l 396 1112 z "},"Ё":{"ha":820,"x_min":127,"x_max":736,"o":"m 127 0 l 127 1010 l 729 1010 l 729 925 l 222 925 l 222 553 l 694 553 l 694 467 l 222 467 l 222 85 l 736 85 l 736 0 l 127 0 m 572 1154 q 527 1173 546 1154 q 508 1219 508 1192 q 527 1264 508 1245 q 572 1282 546 1282 q 617 1264 599 1282 q 636 1219 636 1245 q 617 1173 636 1192 q 572 1154 599 1154 m 291 1154 q 246 1173 264 1154 q 227 1219 227 1192 q 246 1264 227 1245 q 291 1282 264 1282 q 336 1264 317 1282 q 355 1219 355 1245 q 336 1173 355 1192 q 291 1154 317 1154 z "},"Ӗ":{"ha":820,"x_min":127,"x_max":736,"o":"m 127 0 l 127 1010 l 729 1010 l 729 925 l 222 925 l 222 553 l 694 553 l 694 467 l 222 467 l 222 85 l 736 85 l 736 0 l 127 0 m 431 1117 q 335 1142 378 1117 q 267 1209 292 1166 q 241 1303 241 1252 l 311 1303 q 346 1218 311 1252 q 431 1184 380 1184 q 517 1218 483 1184 q 551 1303 551 1253 l 621 1303 q 596 1210 621 1252 q 528 1142 571 1167 q 431 1117 485 1117 z "},"F":{"ha":804,"x_min":127,"x_max":722,"o":"m 127 0 l 127 1010 l 722 1010 l 722 925 l 222 925 l 222 545 l 675 545 l 675 459 l 222 459 l 222 0 l 127 0 z "},"Ƒ":{"ha":804,"x_min":-14,"x_max":722,"o":"m -14 -283 l -14 -201 q 12 -203 -2 -203 q 33 -203 25 -203 q 106 -184 85 -203 q 127 -123 127 -165 l 127 87 l 222 87 l 222 -127 q 179 -246 222 -205 q 50 -287 135 -287 q 15 -286 33 -287 q -14 -283 -3 -285 m 127 0 l 127 1010 l 722 1010 l 722 925 l 222 925 l 222 545 l 675 545 l 675 459 l 222 459 l 222 0 l 127 0 z "},"Ḟ":{"ha":804,"x_min":127,"x_max":722,"o":"m 127 0 l 127 1010 l 722 1010 l 722 925 l 222 925 l 222 545 l 675 545 l 675 459 l 222 459 l 222 0 l 127 0 m 425 1154 q 378 1173 398 1154 q 359 1219 359 1192 q 378 1264 359 1245 q 425 1282 398 1282 q 472 1264 452 1282 q 492 1219 492 1245 q 472 1173 492 1192 q 425 1154 452 1154 z "},"Ⅎ":{"ha":804,"x_min":82,"x_max":677,"o":"m 677 1010 l 677 0 l 82 0 l 82 85 l 581 85 l 581 466 l 130 466 l 130 551 l 581 551 l 581 1010 l 677 1010 z "},"G":{"ha":1023,"x_min":82,"x_max":934,"o":"m 526 -14 q 294 51 393 -14 q 138 231 194 115 q 82 505 82 348 q 138 779 82 663 q 293 960 194 896 q 521 1024 392 1024 q 673 998 604 1024 q 795 926 742 972 q 881 820 848 880 q 927 692 915 760 l 829 692 q 790 786 817 743 q 724 864 764 830 q 634 916 685 897 q 521 935 583 935 q 343 883 421 935 q 220 735 265 831 q 176 505 176 639 q 220 276 176 372 q 344 127 265 180 q 526 75 423 75 q 690 117 619 75 q 801 234 761 158 q 840 412 840 309 l 871 406 l 549 406 l 549 490 l 934 490 l 934 407 q 882 185 934 280 q 738 39 829 91 q 526 -14 646 -14 z "},"Ǥ":{"ha":1023,"x_min":82,"x_max":994,"o":"m 526 -14 q 294 51 393 -14 q 138 231 194 115 q 82 505 82 348 q 138 779 82 663 q 293 960 194 896 q 521 1024 392 1024 q 673 998 604 1024 q 795 926 742 972 q 881 820 848 880 q 927 692 915 760 l 829 692 q 790 786 817 743 q 724 864 764 830 q 634 916 685 897 q 521 935 583 935 q 343 883 421 935 q 220 735 265 831 q 176 505 176 639 q 220 276 176 372 q 344 127 265 180 q 526 75 423 75 q 690 117 619 75 q 801 234 761 158 q 840 412 840 309 l 871 406 l 549 406 l 549 490 l 934 490 l 934 407 q 882 185 934 280 q 738 39 829 91 q 526 -14 646 -14 m 549 221 l 549 293 l 994 293 l 994 221 l 549 221 z "},"Ɠ":{"ha":1023,"x_min":82,"x_max":1074,"o":"m 839 692 l 839 980 q 883 1099 839 1059 q 1011 1139 926 1139 q 1046 1139 1029 1139 q 1074 1136 1063 1138 l 1074 1059 q 1049 1060 1063 1059 q 1027 1060 1036 1060 q 951 1041 975 1060 q 927 980 927 1022 l 927 692 l 839 692 m 526 -14 q 294 51 393 -14 q 138 231 194 115 q 82 505 82 348 q 138 779 82 663 q 293 960 194 896 q 521 1024 392 1024 q 673 998 604 1024 q 795 926 742 972 q 881 820 848 880 q 927 692 915 760 l 829 692 q 790 786 817 743 q 724 864 764 830 q 634 916 685 897 q 521 935 583 935 q 343 883 421 935 q 220 735 265 831 q 176 505 176 639 q 220 276 176 372 q 344 127 265 180 q 526 75 423 75 q 690 117 619 75 q 801 234 761 158 q 840 412 840 309 l 871 406 l 549 406 l 549 490 l 934 490 l 934 407 q 882 185 934 280 q 738 39 829 91 q 526 -14 646 -14 z "},"Ĝ":{"ha":1023,"x_min":82,"x_max":934,"o":"m 526 -14 q 294 51 393 -14 q 138 231 194 115 q 82 505 82 348 q 138 779 82 663 q 293 960 194 896 q 521 1024 392 1024 q 673 998 604 1024 q 795 926 742 972 q 881 820 848 880 q 927 692 915 760 l 829 692 q 790 786 817 743 q 724 864 764 830 q 634 916 685 897 q 521 935 583 935 q 343 883 421 935 q 220 735 265 831 q 176 505 176 639 q 220 276 176 372 q 344 127 265 180 q 526 75 423 75 q 690 117 619 75 q 801 234 761 158 q 840 412 840 309 l 871 406 l 549 406 l 549 490 l 934 490 l 934 407 q 882 185 934 280 q 738 39 829 91 q 526 -14 646 -14 m 403 1122 l 311 1122 l 311 1127 l 476 1310 l 557 1310 l 724 1127 l 724 1122 l 631 1122 l 517 1253 l 403 1122 z "},"Ğ":{"ha":1023,"x_min":82,"x_max":934,"o":"m 526 -14 q 294 51 393 -14 q 138 231 194 115 q 82 505 82 348 q 138 779 82 663 q 293 960 194 896 q 521 1024 392 1024 q 673 998 604 1024 q 795 926 742 972 q 881 820 848 880 q 927 692 915 760 l 829 692 q 790 786 817 743 q 724 864 764 830 q 634 916 685 897 q 521 935 583 935 q 343 883 421 935 q 220 735 265 831 q 176 505 176 639 q 220 276 176 372 q 344 127 265 180 q 526 75 423 75 q 690 117 619 75 q 801 234 761 158 q 840 412 840 309 l 871 406 l 549 406 l 549 490 l 934 490 l 934 407 q 882 185 934 280 q 738 39 829 91 q 526 -14 646 -14 m 517 1117 q 421 1142 464 1117 q 352 1209 378 1166 q 327 1303 327 1252 l 397 1303 q 431 1218 397 1252 q 517 1184 466 1184 q 603 1218 568 1184 q 637 1303 637 1253 l 707 1303 q 682 1210 707 1252 q 613 1142 656 1167 q 517 1117 570 1117 z "},"Ġ":{"ha":1023,"x_min":82,"x_max":934,"o":"m 526 -14 q 294 51 393 -14 q 138 231 194 115 q 82 505 82 348 q 138 779 82 663 q 293 960 194 896 q 521 1024 392 1024 q 673 998 604 1024 q 795 926 742 972 q 881 820 848 880 q 927 692 915 760 l 829 692 q 790 786 817 743 q 724 864 764 830 q 634 916 685 897 q 521 935 583 935 q 343 883 421 935 q 220 735 265 831 q 176 505 176 639 q 220 276 176 372 q 344 127 265 180 q 526 75 423 75 q 690 117 619 75 q 801 234 761 158 q 840 412 840 309 l 871 406 l 549 406 l 549 490 l 934 490 l 934 407 q 882 185 934 280 q 738 39 829 91 q 526 -14 646 -14 m 517 1154 q 471 1173 490 1154 q 451 1219 451 1192 q 471 1264 451 1245 q 517 1282 490 1282 q 564 1264 545 1282 q 584 1219 584 1245 q 564 1173 584 1192 q 517 1154 545 1154 z "},"Ģ":{"ha":1023,"x_min":82,"x_max":934,"o":"m 526 -14 q 294 51 393 -14 q 138 231 194 115 q 82 505 82 348 q 138 779 82 663 q 293 960 194 896 q 521 1024 392 1024 q 673 998 604 1024 q 795 926 742 972 q 881 820 848 880 q 927 692 915 760 l 829 692 q 790 786 817 743 q 724 864 764 830 q 634 916 685 897 q 521 935 583 935 q 343 883 421 935 q 220 735 265 831 q 176 505 176 639 q 220 276 176 372 q 344 127 265 180 q 526 75 423 75 q 690 117 619 75 q 801 234 761 158 q 840 412 840 309 l 871 406 l 549 406 l 549 490 l 934 490 l 934 407 q 882 185 934 280 q 738 39 829 91 q 526 -14 646 -14 m 409 -334 l 467 -80 l 561 -80 l 479 -334 l 409 -334 z "},"Ǧ":{"ha":1023,"x_min":82,"x_max":934,"o":"m 526 -14 q 294 51 393 -14 q 138 231 194 115 q 82 505 82 348 q 138 779 82 663 q 293 960 194 896 q 521 1024 392 1024 q 673 998 604 1024 q 795 926 742 972 q 881 820 848 880 q 927 692 915 760 l 829 692 q 790 786 817 743 q 724 864 764 830 q 634 916 685 897 q 521 935 583 935 q 343 883 421 935 q 220 735 265 831 q 176 505 176 639 q 220 276 176 372 q 344 127 265 180 q 526 75 423 75 q 690 117 619 75 q 801 234 761 158 q 840 412 840 309 l 871 406 l 549 406 l 549 490 l 934 490 l 934 407 q 882 185 934 280 q 738 39 829 91 q 526 -14 646 -14 m 403 1309 l 517 1179 l 631 1309 l 724 1309 l 724 1305 l 557 1122 l 476 1122 l 311 1305 l 311 1309 l 403 1309 z "},"Ǵ":{"ha":1023,"x_min":82,"x_max":934,"o":"m 526 -14 q 294 51 393 -14 q 138 231 194 115 q 82 505 82 348 q 138 779 82 663 q 293 960 194 896 q 521 1024 392 1024 q 673 998 604 1024 q 795 926 742 972 q 881 820 848 880 q 927 692 915 760 l 829 692 q 790 786 817 743 q 724 864 764 830 q 634 916 685 897 q 521 935 583 935 q 343 883 421 935 q 220 735 265 831 q 176 505 176 639 q 220 276 176 372 q 344 127 265 180 q 526 75 423 75 q 690 117 619 75 q 801 234 761 158 q 840 412 840 309 l 871 406 l 549 406 l 549 490 l 934 490 l 934 407 q 882 185 934 280 q 738 39 829 91 q 526 -14 646 -14 m 476 1112 l 572 1308 l 675 1308 l 552 1112 l 476 1112 z "},"Ḡ":{"ha":1023,"x_min":82,"x_max":934,"o":"m 526 -14 q 294 51 393 -14 q 138 231 194 115 q 82 505 82 348 q 138 779 82 663 q 293 960 194 896 q 521 1024 392 1024 q 673 998 604 1024 q 795 926 742 972 q 881 820 848 880 q 927 692 915 760 l 829 692 q 790 786 817 743 q 724 864 764 830 q 634 916 685 897 q 521 935 583 935 q 343 883 421 935 q 220 735 265 831 q 176 505 176 639 q 220 276 176 372 q 344 127 265 180 q 526 75 423 75 q 690 117 619 75 q 801 234 761 158 q 840 412 840 309 l 871 406 l 549 406 l 549 490 l 934 490 l 934 407 q 882 185 934 280 q 738 39 829 91 q 526 -14 646 -14 m 694 1253 l 694 1178 l 339 1178 l 339 1253 l 694 1253 z "},"":{"ha":1040,"x_min":82,"x_max":934,"o":"m 519 -14 q 292 51 391 -14 q 138 231 194 115 q 82 505 82 348 q 138 779 82 663 q 293 960 194 896 q 521 1024 392 1024 q 673 998 604 1024 q 795 926 742 972 q 881 820 848 880 q 927 692 915 760 l 829 692 q 790 786 817 743 q 724 864 764 830 q 634 916 685 897 q 521 935 583 935 q 343 883 421 935 q 220 735 265 831 q 176 505 176 639 q 220 276 176 372 q 344 127 265 180 q 526 75 423 75 q 693 118 622 75 q 803 238 764 160 q 842 423 842 316 l 869 423 l 869 361 q 848 219 869 286 q 785 99 827 151 q 676 16 742 46 q 519 -14 610 -14 m 859 0 l 844 262 l 846 406 l 549 406 l 549 490 l 934 490 l 934 0 l 859 0 z "},"":{"ha":1040,"x_min":82,"x_max":994,"o":"m 519 -14 q 292 51 391 -14 q 138 231 194 115 q 82 505 82 348 q 138 779 82 663 q 293 960 194 896 q 521 1024 392 1024 q 673 998 604 1024 q 795 926 742 972 q 881 820 848 880 q 927 692 915 760 l 829 692 q 790 786 817 743 q 724 864 764 830 q 634 916 685 897 q 521 935 583 935 q 343 883 421 935 q 220 735 265 831 q 176 505 176 639 q 220 276 176 372 q 344 127 265 180 q 526 75 423 75 q 693 118 622 75 q 803 238 764 160 q 842 423 842 316 l 869 423 l 869 361 q 848 219 869 286 q 785 99 827 151 q 676 16 742 46 q 519 -14 610 -14 m 859 0 l 844 262 l 846 406 l 549 406 l 549 490 l 934 490 l 934 0 l 859 0 m 549 221 l 549 293 l 994 293 l 994 221 l 549 221 z "},"":{"ha":1040,"x_min":82,"x_max":1074,"o":"m 839 692 l 839 980 q 883 1099 839 1059 q 1011 1139 926 1139 q 1046 1139 1029 1139 q 1074 1136 1063 1138 l 1074 1059 q 1049 1060 1063 1059 q 1027 1060 1036 1060 q 951 1041 975 1060 q 927 980 927 1022 l 927 692 l 839 692 m 519 -14 q 292 51 391 -14 q 138 231 194 115 q 82 505 82 348 q 138 779 82 663 q 293 960 194 896 q 521 1024 392 1024 q 673 998 604 1024 q 795 926 742 972 q 881 820 848 880 q 927 692 915 760 l 829 692 q 790 786 817 743 q 724 864 764 830 q 634 916 685 897 q 521 935 583 935 q 343 883 421 935 q 220 735 265 831 q 176 505 176 639 q 220 276 176 372 q 344 127 265 180 q 526 75 423 75 q 693 118 622 75 q 803 238 764 160 q 842 423 842 316 l 869 423 l 869 361 q 848 219 869 286 q 785 99 827 151 q 676 16 742 46 q 519 -14 610 -14 m 859 0 l 844 262 l 846 406 l 549 406 l 549 490 l 934 490 l 934 0 l 859 0 z "},"":{"ha":1040,"x_min":82,"x_max":934,"o":"m 519 -14 q 292 51 391 -14 q 138 231 194 115 q 82 505 82 348 q 138 779 82 663 q 293 960 194 896 q 521 1024 392 1024 q 673 998 604 1024 q 795 926 742 972 q 881 820 848 880 q 927 692 915 760 l 829 692 q 790 786 817 743 q 724 864 764 830 q 634 916 685 897 q 521 935 583 935 q 343 883 421 935 q 220 735 265 831 q 176 505 176 639 q 220 276 176 372 q 344 127 265 180 q 526 75 423 75 q 693 118 622 75 q 803 238 764 160 q 842 423 842 316 l 869 423 l 869 361 q 848 219 869 286 q 785 99 827 151 q 676 16 742 46 q 519 -14 610 -14 m 859 0 l 844 262 l 846 406 l 549 406 l 549 490 l 934 490 l 934 0 l 859 0 m 403 1122 l 311 1122 l 311 1127 l 476 1310 l 557 1310 l 724 1127 l 724 1122 l 631 1122 l 517 1253 l 403 1122 z "},"":{"ha":1040,"x_min":82,"x_max":934,"o":"m 519 -14 q 292 51 391 -14 q 138 231 194 115 q 82 505 82 348 q 138 779 82 663 q 293 960 194 896 q 521 1024 392 1024 q 673 998 604 1024 q 795 926 742 972 q 881 820 848 880 q 927 692 915 760 l 829 692 q 790 786 817 743 q 724 864 764 830 q 634 916 685 897 q 521 935 583 935 q 343 883 421 935 q 220 735 265 831 q 176 505 176 639 q 220 276 176 372 q 344 127 265 180 q 526 75 423 75 q 693 118 622 75 q 803 238 764 160 q 842 423 842 316 l 869 423 l 869 361 q 848 219 869 286 q 785 99 827 151 q 676 16 742 46 q 519 -14 610 -14 m 859 0 l 844 262 l 846 406 l 549 406 l 549 490 l 934 490 l 934 0 l 859 0 m 517 1117 q 421 1142 464 1117 q 352 1209 378 1166 q 327 1303 327 1252 l 397 1303 q 431 1218 397 1252 q 517 1184 466 1184 q 603 1218 568 1184 q 637 1303 637 1253 l 707 1303 q 682 1210 707 1252 q 613 1142 656 1167 q 517 1117 570 1117 z "},"":{"ha":1040,"x_min":82,"x_max":934,"o":"m 519 -14 q 292 51 391 -14 q 138 231 194 115 q 82 505 82 348 q 138 779 82 663 q 293 960 194 896 q 521 1024 392 1024 q 673 998 604 1024 q 795 926 742 972 q 881 820 848 880 q 927 692 915 760 l 829 692 q 790 786 817 743 q 724 864 764 830 q 634 916 685 897 q 521 935 583 935 q 343 883 421 935 q 220 735 265 831 q 176 505 176 639 q 220 276 176 372 q 344 127 265 180 q 526 75 423 75 q 693 118 622 75 q 803 238 764 160 q 842 423 842 316 l 869 423 l 869 361 q 848 219 869 286 q 785 99 827 151 q 676 16 742 46 q 519 -14 610 -14 m 859 0 l 844 262 l 846 406 l 549 406 l 549 490 l 934 490 l 934 0 l 859 0 m 517 1154 q 471 1173 490 1154 q 451 1219 451 1192 q 471 1264 451 1245 q 517 1282 490 1282 q 564 1264 545 1282 q 584 1219 584 1245 q 564 1173 584 1192 q 517 1154 545 1154 z "},"":{"ha":1040,"x_min":82,"x_max":934,"o":"m 519 -14 q 292 51 391 -14 q 138 231 194 115 q 82 505 82 348 q 138 779 82 663 q 293 960 194 896 q 521 1024 392 1024 q 673 998 604 1024 q 795 926 742 972 q 881 820 848 880 q 927 692 915 760 l 829 692 q 790 786 817 743 q 724 864 764 830 q 634 916 685 897 q 521 935 583 935 q 343 883 421 935 q 220 735 265 831 q 176 505 176 639 q 220 276 176 372 q 344 127 265 180 q 526 75 423 75 q 693 118 622 75 q 803 238 764 160 q 842 423 842 316 l 869 423 l 869 361 q 848 219 869 286 q 785 99 827 151 q 676 16 742 46 q 519 -14 610 -14 m 859 0 l 844 262 l 846 406 l 549 406 l 549 490 l 934 490 l 934 0 l 859 0 m 410 -334 l 468 -80 l 562 -80 l 480 -334 l 410 -334 z "},"":{"ha":1040,"x_min":82,"x_max":934,"o":"m 519 -14 q 292 51 391 -14 q 138 231 194 115 q 82 505 82 348 q 138 779 82 663 q 293 960 194 896 q 521 1024 392 1024 q 673 998 604 1024 q 795 926 742 972 q 881 820 848 880 q 927 692 915 760 l 829 692 q 790 786 817 743 q 724 864 764 830 q 634 916 685 897 q 521 935 583 935 q 343 883 421 935 q 220 735 265 831 q 176 505 176 639 q 220 276 176 372 q 344 127 265 180 q 526 75 423 75 q 693 118 622 75 q 803 238 764 160 q 842 423 842 316 l 869 423 l 869 361 q 848 219 869 286 q 785 99 827 151 q 676 16 742 46 q 519 -14 610 -14 m 859 0 l 844 262 l 846 406 l 549 406 l 549 490 l 934 490 l 934 0 l 859 0 m 403 1309 l 517 1179 l 631 1309 l 724 1309 l 724 1305 l 557 1122 l 476 1122 l 311 1305 l 311 1309 l 403 1309 z "},"":{"ha":1040,"x_min":82,"x_max":934,"o":"m 519 -14 q 292 51 391 -14 q 138 231 194 115 q 82 505 82 348 q 138 779 82 663 q 293 960 194 896 q 521 1024 392 1024 q 673 998 604 1024 q 795 926 742 972 q 881 820 848 880 q 927 692 915 760 l 829 692 q 790 786 817 743 q 724 864 764 830 q 634 916 685 897 q 521 935 583 935 q 343 883 421 935 q 220 735 265 831 q 176 505 176 639 q 220 276 176 372 q 344 127 265 180 q 526 75 423 75 q 693 118 622 75 q 803 238 764 160 q 842 423 842 316 l 869 423 l 869 361 q 848 219 869 286 q 785 99 827 151 q 676 16 742 46 q 519 -14 610 -14 m 859 0 l 844 262 l 846 406 l 549 406 l 549 490 l 934 490 l 934 0 l 859 0 m 477 1112 l 573 1308 l 676 1308 l 553 1112 l 477 1112 z "},"":{"ha":1040,"x_min":82,"x_max":934,"o":"m 519 -14 q 292 51 391 -14 q 138 231 194 115 q 82 505 82 348 q 138 779 82 663 q 293 960 194 896 q 521 1024 392 1024 q 673 998 604 1024 q 795 926 742 972 q 881 820 848 880 q 927 692 915 760 l 829 692 q 790 786 817 743 q 724 864 764 830 q 634 916 685 897 q 521 935 583 935 q 343 883 421 935 q 220 735 265 831 q 176 505 176 639 q 220 276 176 372 q 344 127 265 180 q 526 75 423 75 q 693 118 622 75 q 803 238 764 160 q 842 423 842 316 l 869 423 l 869 361 q 848 219 869 286 q 785 99 827 151 q 676 16 742 46 q 519 -14 610 -14 m 859 0 l 844 262 l 846 406 l 549 406 l 549 490 l 934 490 l 934 0 l 859 0 m 694 1253 l 694 1178 l 339 1178 l 339 1253 l 694 1253 z "},"H":{"ha":1015,"x_min":127,"x_max":887,"o":"m 127 0 l 127 1010 l 222 1010 l 222 559 l 791 559 l 791 1010 l 887 1010 l 887 0 l 791 0 l 791 474 l 222 474 l 222 0 l 127 0 z "},"Ḩ":{"ha":1015,"x_min":104,"x_max":887,"o":"m 127 0 l 127 1010 l 222 1010 l 222 559 l 791 559 l 791 1010 l 887 1010 l 887 0 l 791 0 l 791 474 l 222 474 l 222 0 l 127 0 m 105 -283 l 105 -225 l 180 -225 q 237 -212 219 -225 q 255 -170 255 -198 q 237 -129 255 -142 q 179 -115 219 -115 l 128 -115 l 151 26 l 203 26 l 203 1 l 198 -62 q 294 -91 261 -64 q 326 -170 326 -119 q 289 -255 326 -227 q 180 -283 252 -283 l 105 -283 z "},"Ĥ":{"ha":1015,"x_min":127,"x_max":887,"o":"m 127 0 l 127 1010 l 222 1010 l 222 559 l 791 559 l 791 1010 l 887 1010 l 887 0 l 791 0 l 791 474 l 222 474 l 222 0 l 127 0 m 393 1122 l 301 1122 l 301 1127 l 466 1310 l 547 1310 l 713 1127 l 713 1122 l 621 1122 l 507 1253 l 393 1122 z "},"Ȟ":{"ha":1015,"x_min":127,"x_max":887,"o":"m 127 0 l 127 1010 l 222 1010 l 222 559 l 791 559 l 791 1010 l 887 1010 l 887 0 l 791 0 l 791 474 l 222 474 l 222 0 l 127 0 m 393 1309 l 507 1179 l 621 1309 l 713 1309 l 713 1305 l 547 1122 l 466 1122 l 301 1305 l 301 1309 l 393 1309 z "},"Ḣ":{"ha":1015,"x_min":127,"x_max":887,"o":"m 127 0 l 127 1010 l 222 1010 l 222 559 l 791 559 l 791 1010 l 887 1010 l 887 0 l 791 0 l 791 474 l 222 474 l 222 0 l 127 0 m 507 1154 q 460 1173 480 1154 q 441 1219 441 1192 q 460 1264 441 1245 q 507 1282 480 1282 q 554 1264 534 1282 q 574 1219 574 1245 q 554 1173 574 1192 q 507 1154 534 1154 z "},"Ḥ":{"ha":1015,"x_min":127,"x_max":887,"o":"m 127 0 l 127 1010 l 222 1010 l 222 559 l 791 559 l 791 1010 l 887 1010 l 887 0 l 791 0 l 791 474 l 222 474 l 222 0 l 127 0 m 508 -266 q 461 -247 481 -266 q 441 -201 441 -228 q 461 -156 441 -175 q 508 -138 481 -138 q 555 -156 535 -138 q 574 -201 574 -175 q 555 -247 574 -228 q 508 -266 535 -266 z "},"Ḧ":{"ha":1015,"x_min":127,"x_max":887,"o":"m 127 0 l 127 1010 l 222 1010 l 222 559 l 791 559 l 791 1010 l 887 1010 l 887 0 l 791 0 l 791 474 l 222 474 l 222 0 l 127 0 m 648 1154 q 602 1173 621 1154 q 583 1219 583 1192 q 602 1264 583 1245 q 648 1282 621 1282 q 693 1264 674 1282 q 711 1219 711 1245 q 693 1173 711 1192 q 648 1154 674 1154 m 366 1154 q 321 1173 340 1154 q 302 1219 302 1192 q 321 1264 302 1245 q 366 1282 340 1282 q 411 1264 393 1282 q 430 1219 430 1245 q 411 1173 430 1192 q 366 1154 393 1154 z "},"Ḫ":{"ha":1015,"x_min":127,"x_max":887,"o":"m 127 0 l 127 1010 l 222 1010 l 222 559 l 791 559 l 791 1010 l 887 1010 l 887 0 l 791 0 l 791 474 l 222 474 l 222 0 l 127 0 m 509 -300 q 413 -275 456 -300 q 344 -208 370 -250 q 319 -113 319 -165 l 389 -113 q 423 -199 389 -165 q 509 -233 458 -233 q 594 -198 560 -233 q 629 -113 629 -164 l 699 -113 q 673 -207 699 -165 q 605 -275 648 -250 q 509 -300 562 -300 z "},"Ħ":{"ha":1048,"x_min":65,"x_max":983,"o":"m 983 776 l 983 696 l 65 696 l 65 776 l 983 776 m 146 0 l 146 1010 l 241 1010 l 241 559 l 810 559 l 810 1010 l 905 1010 l 905 0 l 810 0 l 810 474 l 241 474 l 241 0 l 146 0 z "},"Ӈ":{"ha":1015,"x_min":127,"x_max":887,"o":"m 650 -283 l 650 -201 q 676 -203 663 -203 q 698 -203 690 -203 q 770 -184 749 -203 q 791 -123 791 -165 l 791 87 l 887 87 l 887 -127 q 843 -246 887 -205 q 715 -287 800 -287 q 680 -286 697 -287 q 650 -283 662 -285 m 127 0 l 127 1010 l 222 1010 l 222 559 l 791 559 l 791 1010 l 887 1010 l 887 0 l 791 0 l 791 474 l 222 474 l 222 0 l 127 0 z "},"Ң":{"ha":1029,"x_min":127,"x_max":984,"o":"m 127 0 l 127 1010 l 222 1010 l 222 559 l 791 559 l 791 1010 l 887 1010 l 887 0 l 791 0 l 791 474 l 222 474 l 222 0 l 127 0 m 893 -217 l 893 0 l 835 0 l 835 85 l 984 85 l 984 -217 l 893 -217 z "},"Ӊ":{"ha":1015,"x_min":127,"x_max":1011,"o":"m 127 0 l 127 1010 l 222 1010 l 222 559 l 791 559 l 791 1010 l 887 1010 l 887 0 l 791 0 l 791 474 l 222 474 l 222 0 l 127 0 m 822 -217 l 894 0 l 836 0 l 836 85 l 1011 85 l 913 -217 l 822 -217 z "},"Ҥ":{"ha":1345,"x_min":127,"x_max":1281,"o":"m 1281 1010 l 1281 927 l 853 927 l 795 1010 l 1281 1010 m 127 0 l 127 1010 l 222 1010 l 222 559 l 791 559 l 791 1010 l 887 1010 l 887 0 l 791 0 l 791 474 l 222 474 l 222 0 l 127 0 z "},"Ƕ":{"ha":1523,"x_min":127,"x_max":1413,"o":"m 1105 -14 q 942 22 1013 -14 q 832 128 871 58 q 792 303 792 199 l 792 465 l 223 465 l 223 0 l 127 0 l 127 1010 l 223 1010 l 223 551 l 792 551 l 792 1010 l 888 1010 l 888 304 q 914 175 888 227 q 988 98 939 123 q 1105 73 1037 73 q 1222 98 1175 73 q 1294 175 1269 123 q 1318 304 1318 227 l 1318 753 l 1413 753 l 1413 303 q 1374 126 1413 197 q 1265 21 1335 56 q 1105 -14 1196 -14 z "},"Η":{"ha":1015,"x_min":127,"x_max":887,"o":"m 127 0 l 127 1010 l 222 1010 l 222 559 l 791 559 l 791 1010 l 887 1010 l 887 0 l 791 0 l 791 474 l 222 474 l 222 0 l 127 0 z "},"Ή":{"ha":1163,"x_min":65,"x_max":1036,"o":"m 276 0 l 276 1010 l 371 1010 l 371 559 l 940 559 l 940 1010 l 1036 1010 l 1036 0 l 940 0 l 940 474 l 371 474 l 371 0 l 276 0 m 65 814 l 90 1010 l 186 1010 l 130 814 l 65 814 z "},"Ἠ":{"ha":1227,"x_min":65,"x_max":1099,"o":"m 340 0 l 340 1010 l 435 1010 l 435 559 l 1004 559 l 1004 1010 l 1099 1010 l 1099 0 l 1004 0 l 1004 474 l 435 474 l 435 0 l 340 0 m 92 821 l 83 821 l 83 864 l 92 864 q 148 879 128 864 q 168 920 168 894 q 148 957 168 944 q 92 969 128 969 l 65 969 l 65 1029 l 92 1029 q 200 1003 162 1029 q 239 927 239 977 q 200 849 239 877 q 92 821 162 821 z "},"Ἡ":{"ha":1233,"x_min":65,"x_max":1105,"o":"m 346 0 l 346 1010 l 441 1010 l 441 559 l 1010 559 l 1010 1010 l 1105 1010 l 1105 0 l 1010 0 l 1010 474 l 441 474 l 441 0 l 346 0 m 212 808 q 104 836 142 808 q 65 914 65 864 q 104 990 65 964 q 212 1016 142 1016 l 239 1016 l 239 956 l 212 956 q 156 944 176 956 q 136 907 136 931 q 156 866 136 881 q 212 851 176 851 l 222 851 l 222 808 l 212 808 z "},"Ἢ":{"ha":1411,"x_min":65,"x_max":1283,"o":"m 524 0 l 524 1010 l 618 1010 l 618 559 l 1187 559 l 1187 1010 l 1283 1010 l 1283 0 l 1187 0 l 1187 474 l 618 474 l 618 0 l 524 0 m 92 808 l 83 808 l 83 851 l 92 851 q 148 866 128 851 q 168 907 168 881 q 148 944 168 931 q 92 956 128 956 l 65 956 l 65 1016 l 92 1016 q 200 990 162 1016 q 239 914 239 964 q 200 836 239 864 q 92 808 162 808 m 397 813 l 333 813 l 277 1010 l 372 1010 l 397 813 z "},"Ἣ":{"ha":1423,"x_min":65,"x_max":1295,"o":"m 536 0 l 536 1010 l 631 1010 l 631 559 l 1200 559 l 1200 1010 l 1295 1010 l 1295 0 l 1200 0 l 1200 474 l 631 474 l 631 0 l 536 0 m 212 808 q 104 836 142 808 q 65 914 65 864 q 104 990 65 964 q 212 1016 142 1016 l 239 1016 l 239 956 l 212 956 q 156 944 176 956 q 136 907 136 931 q 156 866 136 881 q 212 851 176 851 l 222 851 l 222 808 l 212 808 m 418 813 l 354 813 l 298 1010 l 394 1010 l 418 813 z "},"Ἤ":{"ha":1413,"x_min":65,"x_max":1286,"o":"m 526 0 l 526 1010 l 621 1010 l 621 559 l 1190 559 l 1190 1010 l 1286 1010 l 1286 0 l 1190 0 l 1190 474 l 621 474 l 621 0 l 526 0 m 92 808 l 83 808 l 83 851 l 92 851 q 148 866 128 851 q 168 907 168 881 q 148 944 168 931 q 92 956 128 956 l 65 956 l 65 1016 l 92 1016 q 200 990 162 1016 q 239 914 239 964 q 200 836 239 864 q 92 808 162 808 m 316 813 l 340 1010 l 436 1010 l 380 813 l 316 813 z "},"Ἥ":{"ha":1418,"x_min":65,"x_max":1291,"o":"m 532 0 l 532 1010 l 627 1010 l 627 559 l 1196 559 l 1196 1010 l 1291 1010 l 1291 0 l 1196 0 l 1196 474 l 627 474 l 627 0 l 532 0 m 212 808 q 104 836 142 808 q 65 914 65 864 q 104 990 65 964 q 212 1016 142 1016 l 239 1016 l 239 956 l 212 956 q 156 944 176 956 q 136 907 136 931 q 156 866 136 881 q 212 851 176 851 l 222 851 l 222 808 l 212 808 m 321 813 l 346 1010 l 441 1010 l 385 813 l 321 813 z "},"Ἦ":{"ha":1338,"x_min":65,"x_max":1211,"o":"m 452 0 l 452 1010 l 547 1010 l 547 559 l 1116 559 l 1116 1010 l 1211 1010 l 1211 0 l 1116 0 l 1116 474 l 547 474 l 547 0 l 452 0 m 199 812 l 189 812 l 189 855 l 199 855 q 255 870 235 855 q 275 911 275 885 q 255 948 275 935 q 199 960 235 960 l 172 960 l 172 1020 l 199 1020 q 308 994 269 1020 q 346 918 346 968 q 308 840 346 868 q 199 812 269 812 m 347 1087 q 298 1097 321 1087 q 255 1119 275 1107 q 217 1142 235 1132 q 182 1152 199 1152 q 147 1134 159 1152 q 132 1090 134 1116 l 65 1090 q 95 1183 68 1146 q 173 1219 122 1219 q 223 1210 201 1219 q 264 1187 245 1200 q 301 1165 283 1175 q 337 1155 319 1155 q 370 1169 358 1155 q 387 1215 382 1183 l 453 1215 q 421 1122 449 1157 q 347 1087 393 1087 z "},"Ἧ":{"ha":1340,"x_min":65,"x_max":1213,"o":"m 453 0 l 453 1010 l 548 1010 l 548 559 l 1117 559 l 1117 1010 l 1213 1010 l 1213 0 l 1117 0 l 1117 474 l 548 474 l 548 0 l 453 0 m 319 805 q 211 833 249 805 q 172 911 172 861 q 211 987 172 961 q 319 1013 249 1013 l 346 1013 l 346 954 l 319 954 q 263 941 283 954 q 243 904 243 928 q 263 863 243 878 q 319 848 283 848 l 328 848 l 328 805 l 319 805 m 347 1080 q 298 1090 321 1080 q 255 1113 275 1100 q 217 1135 235 1125 q 182 1145 199 1145 q 147 1127 159 1145 q 132 1084 134 1109 l 65 1084 q 95 1176 68 1139 q 173 1213 122 1213 q 223 1203 201 1213 q 264 1180 245 1193 q 301 1158 283 1168 q 337 1148 319 1148 q 370 1162 358 1148 q 387 1208 382 1177 l 453 1208 q 421 1115 449 1150 q 347 1080 393 1080 z "},"Ὴ":{"ha":1128,"x_min":-51,"x_max":1002,"o":"m 242 0 l 242 1010 l 337 1010 l 337 559 l 906 559 l 906 1010 l 1002 1010 l 1002 0 l 906 0 l 906 474 l 337 474 l 337 0 l 242 0 m 70 848 l 5 848 l -51 1044 l 45 1044 l 70 848 z "},"Ή":{"ha":1163,"x_min":65,"x_max":1036,"o":"m 276 0 l 276 1010 l 371 1010 l 371 559 l 940 559 l 940 1010 l 1036 1010 l 1036 0 l 940 0 l 940 474 l 371 474 l 371 0 l 276 0 m 65 814 l 90 1010 l 186 1010 l 130 814 l 65 814 z "},"Н":{"ha":1015,"x_min":127,"x_max":887,"o":"m 127 0 l 127 1010 l 222 1010 l 222 559 l 791 559 l 791 1010 l 887 1010 l 887 0 l 791 0 l 791 474 l 222 474 l 222 0 l 127 0 z "},"ᾘ":{"ha":1227,"x_min":65,"x_max":1099,"o":"m 340 0 l 340 1010 l 435 1010 l 435 559 l 1004 559 l 1004 1010 l 1099 1010 l 1099 0 l 1004 0 l 1004 474 l 435 474 l 435 0 l 340 0 m 779 -321 q 705 -292 732 -321 q 677 -211 677 -262 l 677 -75 l 761 -75 l 761 -209 q 770 -247 761 -234 q 798 -259 779 -259 q 812 -258 806 -259 q 825 -256 819 -258 l 827 -316 q 804 -319 817 -318 q 779 -321 791 -321 m 92 821 l 83 821 l 83 864 l 92 864 q 148 879 128 864 q 168 920 168 894 q 148 957 168 944 q 92 969 128 969 l 65 969 l 65 1029 l 92 1029 q 200 1003 162 1029 q 239 927 239 977 q 200 849 239 877 q 92 821 162 821 z "},"ᾙ":{"ha":1233,"x_min":65,"x_max":1105,"o":"m 346 0 l 346 1010 l 441 1010 l 441 559 l 1010 559 l 1010 1010 l 1105 1010 l 1105 0 l 1010 0 l 1010 474 l 441 474 l 441 0 l 346 0 m 785 -321 q 710 -292 737 -321 q 683 -211 683 -262 l 683 -75 l 766 -75 l 766 -209 q 775 -247 766 -234 q 803 -259 784 -259 q 818 -258 811 -259 q 831 -256 824 -258 l 832 -316 q 809 -319 823 -318 q 785 -321 796 -321 m 212 808 q 104 836 142 808 q 65 914 65 864 q 104 990 65 964 q 212 1016 142 1016 l 239 1016 l 239 956 l 212 956 q 156 944 176 956 q 136 907 136 931 q 156 866 136 881 q 212 851 176 851 l 222 851 l 222 808 l 212 808 z "},"ᾚ":{"ha":1411,"x_min":65,"x_max":1283,"o":"m 524 0 l 524 1010 l 618 1010 l 618 559 l 1187 559 l 1187 1010 l 1283 1010 l 1283 0 l 1187 0 l 1187 474 l 618 474 l 618 0 l 524 0 m 963 -321 q 888 -292 916 -321 q 861 -211 861 -262 l 861 -75 l 945 -75 l 945 -209 q 954 -247 945 -234 q 981 -259 962 -259 q 996 -258 989 -259 q 1009 -256 1002 -258 l 1010 -316 q 988 -319 1001 -318 q 963 -321 975 -321 m 92 808 l 83 808 l 83 851 l 92 851 q 148 866 128 851 q 168 907 168 881 q 148 944 168 931 q 92 956 128 956 l 65 956 l 65 1016 l 92 1016 q 200 990 162 1016 q 239 914 239 964 q 200 836 239 864 q 92 808 162 808 m 397 813 l 333 813 l 277 1010 l 372 1010 l 397 813 z "},"ᾛ":{"ha":1423,"x_min":65,"x_max":1295,"o":"m 536 0 l 536 1010 l 631 1010 l 631 559 l 1200 559 l 1200 1010 l 1295 1010 l 1295 0 l 1200 0 l 1200 474 l 631 474 l 631 0 l 536 0 m 975 -321 q 901 -292 928 -321 q 873 -211 873 -262 l 873 -75 l 957 -75 l 957 -209 q 966 -247 957 -234 q 994 -259 975 -259 q 1008 -258 1002 -259 q 1021 -256 1015 -258 l 1023 -316 q 1000 -319 1013 -318 q 975 -321 987 -321 m 212 808 q 104 836 142 808 q 65 914 65 864 q 104 990 65 964 q 212 1016 142 1016 l 239 1016 l 239 956 l 212 956 q 156 944 176 956 q 136 907 136 931 q 156 866 136 881 q 212 851 176 851 l 222 851 l 222 808 l 212 808 m 418 813 l 354 813 l 298 1010 l 394 1010 l 418 813 z "},"ᾜ":{"ha":1413,"x_min":65,"x_max":1286,"o":"m 526 0 l 526 1010 l 621 1010 l 621 559 l 1190 559 l 1190 1010 l 1286 1010 l 1286 0 l 1190 0 l 1190 474 l 621 474 l 621 0 l 526 0 m 966 -321 q 891 -292 918 -321 q 864 -211 864 -262 l 864 -75 l 947 -75 l 947 -209 q 956 -247 947 -234 q 984 -259 965 -259 q 999 -258 992 -259 q 1012 -256 1005 -258 l 1013 -316 q 990 -319 1004 -318 q 966 -321 977 -321 m 92 808 l 83 808 l 83 851 l 92 851 q 148 866 128 851 q 168 907 168 881 q 148 944 168 931 q 92 956 128 956 l 65 956 l 65 1016 l 92 1016 q 200 990 162 1016 q 239 914 239 964 q 200 836 239 864 q 92 808 162 808 m 316 813 l 340 1010 l 436 1010 l 380 813 l 316 813 z "},"ᾝ":{"ha":1418,"x_min":65,"x_max":1291,"o":"m 532 0 l 532 1010 l 627 1010 l 627 559 l 1196 559 l 1196 1010 l 1291 1010 l 1291 0 l 1196 0 l 1196 474 l 627 474 l 627 0 l 532 0 m 970 -321 q 896 -292 923 -321 q 869 -211 869 -262 l 869 -75 l 952 -75 l 952 -209 q 961 -247 952 -234 q 989 -259 970 -259 q 1003 -258 997 -259 q 1017 -256 1010 -258 l 1018 -316 q 995 -319 1008 -318 q 970 -321 982 -321 m 212 808 q 104 836 142 808 q 65 914 65 864 q 104 990 65 964 q 212 1016 142 1016 l 239 1016 l 239 956 l 212 956 q 156 944 176 956 q 136 907 136 931 q 156 866 136 881 q 212 851 176 851 l 222 851 l 222 808 l 212 808 m 321 813 l 346 1010 l 441 1010 l 385 813 l 321 813 z "},"ᾞ":{"ha":1338,"x_min":65,"x_max":1211,"o":"m 452 0 l 452 1010 l 547 1010 l 547 559 l 1116 559 l 1116 1010 l 1211 1010 l 1211 0 l 1116 0 l 1116 474 l 547 474 l 547 0 l 452 0 m 890 -321 q 816 -292 843 -321 q 789 -211 789 -262 l 789 -75 l 872 -75 l 872 -209 q 881 -247 872 -234 q 909 -259 890 -259 q 923 -258 917 -259 q 937 -256 930 -258 l 938 -316 q 915 -319 928 -318 q 890 -321 902 -321 m 199 812 l 189 812 l 189 855 l 199 855 q 255 870 235 855 q 275 911 275 885 q 255 948 275 935 q 199 960 235 960 l 172 960 l 172 1020 l 199 1020 q 308 994 269 1020 q 346 918 346 968 q 308 840 346 868 q 199 812 269 812 m 347 1087 q 298 1097 321 1087 q 255 1119 275 1107 q 217 1142 235 1132 q 182 1152 199 1152 q 147 1134 159 1152 q 132 1090 134 1116 l 65 1090 q 95 1183 68 1146 q 173 1219 122 1219 q 223 1210 201 1219 q 264 1187 245 1200 q 301 1165 283 1175 q 337 1155 319 1155 q 370 1169 358 1155 q 387 1215 382 1183 l 453 1215 q 421 1122 449 1157 q 347 1087 393 1087 z "},"ᾟ":{"ha":1340,"x_min":65,"x_max":1213,"o":"m 453 0 l 453 1010 l 548 1010 l 548 559 l 1117 559 l 1117 1010 l 1213 1010 l 1213 0 l 1117 0 l 1117 474 l 548 474 l 548 0 l 453 0 m 892 -321 q 818 -292 845 -321 q 791 -211 791 -262 l 791 -75 l 874 -75 l 874 -209 q 883 -247 874 -234 q 911 -259 892 -259 q 925 -258 919 -259 q 939 -256 932 -258 l 940 -316 q 917 -319 930 -318 q 892 -321 904 -321 m 319 805 q 211 833 249 805 q 172 911 172 861 q 211 987 172 961 q 319 1013 249 1013 l 346 1013 l 346 954 l 319 954 q 263 941 283 954 q 243 904 243 928 q 263 863 243 878 q 319 848 283 848 l 328 848 l 328 805 l 319 805 m 347 1080 q 298 1090 321 1080 q 255 1113 275 1100 q 217 1135 235 1125 q 182 1145 199 1145 q 147 1127 159 1145 q 132 1084 134 1109 l 65 1084 q 95 1176 68 1139 q 173 1213 122 1213 q 223 1203 201 1213 q 264 1180 245 1193 q 301 1158 283 1168 q 337 1148 319 1148 q 370 1162 358 1148 q 387 1208 382 1177 l 453 1208 q 421 1115 449 1150 q 347 1080 393 1080 z "},"ῌ":{"ha":1015,"x_min":127,"x_max":887,"o":"m 127 0 l 127 1010 l 222 1010 l 222 559 l 791 559 l 791 1010 l 887 1010 l 887 0 l 791 0 l 791 474 l 222 474 l 222 0 l 127 0 m 567 -321 q 492 -292 519 -321 q 465 -211 465 -262 l 465 -75 l 549 -75 l 549 -209 q 557 -247 549 -234 q 585 -259 566 -259 q 600 -258 593 -259 q 613 -256 606 -258 l 614 -316 q 592 -319 605 -318 q 567 -321 578 -321 z "},"I":{"ha":350,"x_min":127,"x_max":222,"o":"m 222 1010 l 222 0 l 127 0 l 127 1010 l 222 1010 z "},"":{"ha":700,"x_min":127,"x_max":573,"o":"m 222 1010 l 222 0 l 127 0 l 127 1010 l 222 1010 m 572 1010 l 572 0 l 477 0 l 477 1010 l 572 1010 z "},"Ï":{"ha":350,"x_min":-30,"x_max":380,"o":"m 222 1010 l 222 0 l 127 0 l 127 1010 l 222 1010 m 316 1154 q 271 1173 290 1154 q 252 1219 252 1192 q 271 1264 252 1245 q 316 1282 290 1282 q 361 1264 342 1282 q 380 1219 380 1245 q 361 1173 380 1192 q 316 1154 342 1154 m 35 1154 q -11 1173 8 1154 q -29 1219 -29 1192 q -11 1264 -29 1245 q 35 1282 8 1282 q 80 1264 61 1282 q 98 1219 98 1245 q 80 1173 98 1192 q 35 1154 61 1154 z "},"Ḯ":{"ha":350,"x_min":-26,"x_max":383,"o":"m 222 1010 l 222 0 l 127 0 l 127 1010 l 222 1010 m 319 1132 q 274 1151 293 1132 q 255 1196 255 1170 q 274 1241 255 1223 q 319 1260 293 1260 q 365 1241 346 1260 q 383 1196 383 1223 q 365 1151 383 1170 q 319 1132 346 1132 m 38 1132 q -7 1151 12 1132 q -26 1196 -26 1170 q -7 1241 -26 1223 q 38 1260 12 1260 q 83 1241 64 1260 q 102 1196 102 1223 q 83 1151 102 1170 q 38 1132 64 1132 m 136 1343 l 236 1529 l 340 1529 l 212 1343 l 136 1343 z "},"Ɨ":{"ha":416,"x_min":14,"x_max":403,"o":"m 256 1010 l 256 0 l 161 0 l 161 1010 l 256 1010 m 14 486 l 14 557 l 403 557 l 403 486 l 14 486 z "},"Ḭ":{"ha":350,"x_min":-17,"x_max":371,"o":"m 222 1010 l 222 0 l 127 0 l 127 1010 l 222 1010 m 265 -268 q 216 -258 239 -268 q 173 -236 193 -248 q 135 -213 153 -223 q 100 -203 117 -203 q 65 -221 77 -203 q 50 -264 52 -239 l -17 -264 q 13 -172 -14 -209 q 91 -136 40 -136 q 141 -145 119 -136 q 182 -168 163 -155 q 219 -190 201 -180 q 255 -200 237 -200 q 288 -186 276 -200 q 305 -140 300 -172 l 371 -140 q 339 -233 367 -198 q 265 -268 311 -268 z "},"Ì":{"ha":350,"x_min":16,"x_max":222,"o":"m 222 1010 l 222 0 l 127 0 l 127 1010 l 222 1010 m 139 1112 l 16 1308 l 119 1308 l 216 1112 l 139 1112 z "},"Í":{"ha":350,"x_min":127,"x_max":334,"o":"m 222 1010 l 222 0 l 127 0 l 127 1010 l 222 1010 m 134 1112 l 231 1308 l 334 1308 l 210 1112 l 134 1112 z "},"Î":{"ha":350,"x_min":-31,"x_max":381,"o":"m 222 1010 l 222 0 l 127 0 l 127 1010 l 222 1010 m 60 1122 l -31 1122 l -31 1127 l 134 1310 l 215 1310 l 381 1127 l 381 1122 l 288 1122 l 174 1253 l 60 1122 z "},"Ĩ":{"ha":350,"x_min":-19,"x_max":369,"o":"m 222 1010 l 222 0 l 127 0 l 127 1010 l 222 1010 m 263 1150 q 214 1160 237 1150 q 171 1182 191 1170 q 133 1205 151 1195 q 98 1215 115 1215 q 63 1197 75 1215 q 48 1154 50 1179 l -19 1154 q 11 1246 -16 1209 q 89 1282 38 1282 q 139 1273 117 1282 q 180 1250 161 1263 q 217 1228 199 1238 q 253 1218 235 1218 q 286 1232 274 1218 q 303 1278 298 1246 l 369 1278 q 337 1185 365 1220 q 263 1150 309 1150 z "},"Ī":{"ha":350,"x_min":-3,"x_max":353,"o":"m 222 1010 l 222 0 l 127 0 l 127 1010 l 222 1010 m 353 1253 l 353 1178 l -3 1178 l -3 1253 l 353 1253 z "},"Ĭ":{"ha":350,"x_min":-15,"x_max":365,"o":"m 222 1010 l 222 0 l 127 0 l 127 1010 l 222 1010 m 175 1117 q 79 1142 122 1117 q 11 1209 36 1166 q -15 1303 -15 1252 l 55 1303 q 90 1218 55 1252 q 175 1184 124 1184 q 261 1218 227 1184 q 295 1303 295 1253 l 365 1303 q 340 1210 365 1252 q 272 1142 315 1167 q 175 1117 229 1117 z "},"Į":{"ha":350,"x_min":16,"x_max":249,"o":"m 222 1010 l 222 0 l 127 0 l 127 1010 l 222 1010 m 159 -291 q 57 -260 99 -291 q 16 -169 16 -229 q 49 -72 16 -118 q 141 15 83 -26 l 222 0 q 140 -76 173 -40 q 107 -154 107 -112 q 125 -198 107 -183 q 174 -213 143 -213 q 202 -210 189 -213 q 225 -201 214 -206 l 249 -271 q 210 -284 232 -278 q 159 -291 187 -291 z "},"İ":{"ha":350,"x_min":109,"x_max":241,"o":"m 222 1010 l 222 0 l 127 0 l 127 1010 l 222 1010 m 175 1154 q 128 1173 148 1154 q 109 1219 109 1192 q 128 1264 109 1245 q 175 1282 148 1282 q 222 1264 202 1282 q 241 1219 241 1245 q 222 1173 241 1192 q 175 1154 202 1154 z "},"Ǐ":{"ha":350,"x_min":-31,"x_max":381,"o":"m 222 1010 l 222 0 l 127 0 l 127 1010 l 222 1010 m 60 1309 l 174 1179 l 288 1309 l 381 1309 l 381 1305 l 215 1122 l 134 1122 l -31 1305 l -31 1309 l 60 1309 z "},"Ȉ":{"ha":350,"x_min":-102,"x_max":316,"o":"m 222 1010 l 222 0 l 127 0 l 127 1010 l 222 1010 m 240 1112 l 130 1308 l 232 1308 l 316 1112 l 240 1112 m 37 1112 l -102 1308 l 1 1308 l 114 1112 l 37 1112 z "},"Ȋ":{"ha":350,"x_min":-20,"x_max":370,"o":"m 222 1010 l 222 0 l 127 0 l 127 1010 l 222 1010 m 175 1310 q 275 1285 231 1310 q 345 1218 319 1260 q 370 1122 370 1175 l 301 1122 q 264 1207 301 1174 q 175 1240 227 1240 q 86 1207 123 1240 q 49 1122 49 1174 l -20 1122 q 5 1218 -20 1175 q 75 1285 31 1260 q 175 1310 119 1310 z "},"Ỉ":{"ha":350,"x_min":73,"x_max":268,"o":"m 222 1010 l 222 0 l 127 0 l 127 1010 l 222 1010 m 208 1112 l 136 1112 l 180 1197 q 189 1233 193 1221 q 159 1245 184 1245 l 73 1245 l 73 1308 l 159 1308 q 222 1297 198 1308 q 257 1268 247 1286 q 264 1224 268 1249 q 243 1171 260 1199 l 208 1112 z "},"Ị":{"ha":350,"x_min":110,"x_max":243,"o":"m 222 1010 l 222 0 l 127 0 l 127 1010 l 222 1010 m 176 -266 q 130 -247 149 -266 q 110 -201 110 -228 q 130 -156 110 -175 q 176 -138 149 -138 q 223 -156 203 -138 q 243 -201 243 -175 q 223 -247 243 -228 q 176 -266 203 -266 z "},"Ɩ":{"ha":347,"x_min":110,"x_max":328,"o":"m 274 -3 q 151 32 193 -7 q 110 151 110 71 l 110 1010 l 201 1010 l 201 168 q 219 95 201 114 q 282 79 238 75 q 301 80 294 79 q 314 82 307 80 l 328 3 q 303 -1 318 1 q 274 -3 289 -3 z "},"Ι":{"ha":350,"x_min":127,"x_max":222,"o":"m 222 1010 l 222 0 l 127 0 l 127 1010 l 222 1010 z "},"Ί":{"ha":499,"x_min":65,"x_max":372,"o":"m 371 1010 l 371 0 l 276 0 l 276 1010 l 371 1010 m 65 814 l 90 1010 l 186 1010 l 130 814 l 65 814 z "},"Ϊ":{"ha":350,"x_min":-30,"x_max":380,"o":"m 222 1010 l 222 0 l 127 0 l 127 1010 l 222 1010 m 316 1154 q 271 1173 290 1154 q 252 1219 252 1192 q 271 1264 252 1245 q 316 1282 290 1282 q 361 1264 342 1282 q 380 1219 380 1245 q 361 1173 380 1192 q 316 1154 342 1154 m 35 1154 q -11 1173 8 1154 q -29 1219 -29 1192 q -11 1264 -29 1245 q 35 1282 8 1282 q 80 1264 61 1282 q 98 1219 98 1245 q 80 1173 98 1192 q 35 1154 61 1154 z "},"Ἰ":{"ha":562,"x_min":65,"x_max":435,"o":"m 435 1010 l 435 0 l 340 0 l 340 1010 l 435 1010 m 92 821 l 83 821 l 83 864 l 92 864 q 148 879 128 864 q 168 920 168 894 q 148 957 168 944 q 92 969 128 969 l 65 969 l 65 1029 l 92 1029 q 200 1003 162 1029 q 239 927 239 977 q 200 849 239 877 q 92 821 162 821 z "},"Ἱ":{"ha":568,"x_min":65,"x_max":441,"o":"m 441 1010 l 441 0 l 346 0 l 346 1010 l 441 1010 m 212 808 q 104 836 142 808 q 65 914 65 864 q 104 990 65 964 q 212 1016 142 1016 l 239 1016 l 239 956 l 212 956 q 156 944 176 956 q 136 907 136 931 q 156 866 136 881 q 212 851 176 851 l 222 851 l 222 808 l 212 808 z "},"Ἲ":{"ha":747,"x_min":65,"x_max":619,"o":"m 618 1010 l 618 0 l 524 0 l 524 1010 l 618 1010 m 92 808 l 83 808 l 83 851 l 92 851 q 148 866 128 851 q 168 907 168 881 q 148 944 168 931 q 92 956 128 956 l 65 956 l 65 1016 l 92 1016 q 200 990 162 1016 q 239 914 239 964 q 200 836 239 864 q 92 808 162 808 m 397 813 l 333 813 l 277 1010 l 372 1010 l 397 813 z "},"Ἳ":{"ha":758,"x_min":65,"x_max":631,"o":"m 631 1010 l 631 0 l 536 0 l 536 1010 l 631 1010 m 212 808 q 104 836 142 808 q 65 914 65 864 q 104 990 65 964 q 212 1016 142 1016 l 239 1016 l 239 956 l 212 956 q 156 944 176 956 q 136 907 136 931 q 156 866 136 881 q 212 851 176 851 l 222 851 l 222 808 l 212 808 m 418 813 l 354 813 l 298 1010 l 394 1010 l 418 813 z "},"Ἴ":{"ha":749,"x_min":65,"x_max":622,"o":"m 621 1010 l 621 0 l 526 0 l 526 1010 l 621 1010 m 92 808 l 83 808 l 83 851 l 92 851 q 148 866 128 851 q 168 907 168 881 q 148 944 168 931 q 92 956 128 956 l 65 956 l 65 1016 l 92 1016 q 200 990 162 1016 q 239 914 239 964 q 200 836 239 864 q 92 808 162 808 m 316 813 l 340 1010 l 436 1010 l 380 813 l 316 813 z "},"Ἵ":{"ha":754,"x_min":65,"x_max":627,"o":"m 627 1010 l 627 0 l 532 0 l 532 1010 l 627 1010 m 212 808 q 104 836 142 808 q 65 914 65 864 q 104 990 65 964 q 212 1016 142 1016 l 239 1016 l 239 956 l 212 956 q 156 944 176 956 q 136 907 136 931 q 156 866 136 881 q 212 851 176 851 l 222 851 l 222 808 l 212 808 m 321 813 l 346 1010 l 441 1010 l 385 813 l 321 813 z "},"Ἶ":{"ha":674,"x_min":65,"x_max":547,"o":"m 547 1010 l 547 0 l 452 0 l 452 1010 l 547 1010 m 199 812 l 189 812 l 189 855 l 199 855 q 255 870 235 855 q 275 911 275 885 q 255 948 275 935 q 199 960 235 960 l 172 960 l 172 1020 l 199 1020 q 308 994 269 1020 q 346 918 346 968 q 308 840 346 868 q 199 812 269 812 m 347 1087 q 298 1097 321 1087 q 255 1119 275 1107 q 217 1142 235 1132 q 182 1152 199 1152 q 147 1134 159 1152 q 132 1090 134 1116 l 65 1090 q 95 1183 68 1146 q 173 1219 122 1219 q 223 1210 201 1219 q 264 1187 245 1200 q 301 1165 283 1175 q 337 1155 319 1155 q 370 1169 358 1155 q 387 1215 382 1183 l 453 1215 q 421 1122 449 1157 q 347 1087 393 1087 z "},"Ἷ":{"ha":675,"x_min":65,"x_max":548,"o":"m 548 1010 l 548 0 l 453 0 l 453 1010 l 548 1010 m 319 805 q 211 833 249 805 q 172 911 172 861 q 211 987 172 961 q 319 1013 249 1013 l 346 1013 l 346 954 l 319 954 q 263 941 283 954 q 243 904 243 928 q 263 863 243 878 q 319 848 283 848 l 328 848 l 328 805 l 319 805 m 347 1080 q 298 1090 321 1080 q 255 1113 275 1100 q 217 1135 235 1125 q 182 1145 199 1145 q 147 1127 159 1145 q 132 1084 134 1109 l 65 1084 q 95 1176 68 1139 q 173 1213 122 1213 q 223 1203 201 1213 q 264 1180 245 1193 q 301 1158 283 1168 q 337 1148 319 1148 q 370 1162 358 1148 q 387 1208 382 1177 l 453 1208 q 421 1115 449 1150 q 347 1080 393 1080 z "},"Ῐ":{"ha":350,"x_min":-15,"x_max":365,"o":"m 222 1010 l 222 0 l 127 0 l 127 1010 l 222 1010 m 175 1117 q 79 1142 122 1117 q 11 1209 36 1166 q -15 1303 -15 1252 l 55 1303 q 90 1218 55 1252 q 175 1184 124 1184 q 261 1218 227 1184 q 295 1303 295 1253 l 365 1303 q 340 1210 365 1252 q 272 1142 315 1167 q 175 1117 229 1117 z "},"Ῑ":{"ha":350,"x_min":-3,"x_max":353,"o":"m 222 1010 l 222 0 l 127 0 l 127 1010 l 222 1010 m 353 1253 l 353 1178 l -3 1178 l -3 1253 l 353 1253 z "},"Ὶ":{"ha":465,"x_min":-51,"x_max":337,"o":"m 337 1010 l 337 0 l 242 0 l 242 1010 l 337 1010 m 70 848 l 5 848 l -51 1044 l 45 1044 l 70 848 z "},"Ί":{"ha":499,"x_min":65,"x_max":372,"o":"m 371 1010 l 371 0 l 276 0 l 276 1010 l 371 1010 m 65 814 l 90 1010 l 186 1010 l 130 814 l 65 814 z "},"І":{"ha":350,"x_min":127,"x_max":222,"o":"m 222 1010 l 222 0 l 127 0 l 127 1010 l 222 1010 z "},"Ї":{"ha":350,"x_min":-30,"x_max":380,"o":"m 222 1010 l 222 0 l 127 0 l 127 1010 l 222 1010 m 316 1154 q 271 1173 290 1154 q 252 1219 252 1192 q 271 1264 252 1245 q 316 1282 290 1282 q 361 1264 342 1282 q 380 1219 380 1245 q 361 1173 380 1192 q 316 1154 342 1154 m 35 1154 q -11 1173 8 1154 q -29 1219 -29 1192 q -11 1264 -29 1245 q 35 1282 8 1282 q 80 1264 61 1282 q 98 1219 98 1245 q 80 1173 98 1192 q 35 1154 61 1154 z "},"":{"ha":548,"x_min":65,"x_max":483,"o":"m 65 0 l 65 85 l 227 85 l 227 925 l 65 925 l 65 1010 l 483 1010 l 483 925 l 321 925 l 321 85 l 483 85 l 483 0 l 65 0 z "},"":{"ha":548,"x_min":65,"x_max":483,"o":"m 65 0 l 65 85 l 227 85 l 227 925 l 65 925 l 65 1010 l 483 1010 l 483 925 l 321 925 l 321 85 l 483 85 l 483 0 l 65 0 m 415 1154 q 370 1173 389 1154 q 351 1219 351 1192 q 370 1264 351 1245 q 415 1282 389 1282 q 460 1264 441 1282 q 479 1219 479 1245 q 460 1173 479 1192 q 415 1154 441 1154 m 134 1154 q 89 1173 107 1154 q 70 1219 70 1192 q 89 1264 70 1245 q 134 1282 107 1282 q 179 1264 160 1282 q 197 1219 197 1245 q 179 1173 197 1192 q 134 1154 160 1154 z "},"":{"ha":548,"x_min":65,"x_max":483,"o":"m 65 0 l 65 85 l 227 85 l 227 925 l 65 925 l 65 1010 l 483 1010 l 483 925 l 321 925 l 321 85 l 483 85 l 483 0 l 65 0 m 418 1132 q 373 1151 392 1132 q 354 1196 354 1170 q 373 1241 354 1223 q 418 1260 392 1260 q 464 1241 445 1260 q 482 1196 482 1223 q 464 1151 482 1170 q 418 1132 445 1132 m 137 1132 q 92 1151 111 1132 q 73 1196 73 1170 q 92 1241 73 1223 q 137 1260 111 1260 q 182 1241 163 1260 q 201 1196 201 1223 q 182 1151 201 1170 q 137 1132 163 1132 m 235 1343 l 335 1529 l 439 1529 l 311 1343 l 235 1343 z "},"":{"ha":548,"x_min":65,"x_max":483,"o":"m 65 0 l 65 85 l 227 85 l 227 925 l 65 925 l 65 1010 l 483 1010 l 483 925 l 321 925 l 321 85 l 483 85 l 483 0 l 65 0 m 79 486 l 79 557 l 469 557 l 469 486 l 79 486 z "},"":{"ha":548,"x_min":65,"x_max":483,"o":"m 65 0 l 65 85 l 227 85 l 227 925 l 65 925 l 65 1010 l 483 1010 l 483 925 l 321 925 l 321 85 l 483 85 l 483 0 l 65 0 m 364 -268 q 315 -258 338 -268 q 272 -236 292 -248 q 234 -213 252 -223 q 199 -203 216 -203 q 164 -221 176 -203 q 149 -264 151 -239 l 82 -264 q 112 -172 85 -209 q 190 -136 139 -136 q 240 -145 218 -136 q 281 -168 262 -155 q 318 -190 300 -180 q 354 -200 336 -200 q 387 -186 375 -200 q 404 -140 399 -172 l 470 -140 q 438 -233 466 -198 q 364 -268 410 -268 z "},"":{"ha":548,"x_min":65,"x_max":483,"o":"m 65 0 l 65 85 l 227 85 l 227 925 l 65 925 l 65 1010 l 483 1010 l 483 925 l 321 925 l 321 85 l 483 85 l 483 0 l 65 0 m 238 1112 l 115 1308 l 218 1308 l 315 1112 l 238 1112 z "},"":{"ha":548,"x_min":65,"x_max":483,"o":"m 65 0 l 65 85 l 227 85 l 227 925 l 65 925 l 65 1010 l 483 1010 l 483 925 l 321 925 l 321 85 l 483 85 l 483 0 l 65 0 m 233 1112 l 330 1308 l 433 1308 l 309 1112 l 233 1112 z "},"":{"ha":548,"x_min":65,"x_max":483,"o":"m 65 0 l 65 85 l 227 85 l 227 925 l 65 925 l 65 1010 l 483 1010 l 483 925 l 321 925 l 321 85 l 483 85 l 483 0 l 65 0 m 159 1122 l 68 1122 l 68 1127 l 233 1310 l 314 1310 l 480 1127 l 480 1122 l 387 1122 l 273 1253 l 159 1122 z "},"":{"ha":548,"x_min":65,"x_max":483,"o":"m 65 0 l 65 85 l 227 85 l 227 925 l 65 925 l 65 1010 l 483 1010 l 483 925 l 321 925 l 321 85 l 483 85 l 483 0 l 65 0 m 362 1150 q 313 1160 336 1150 q 270 1182 290 1170 q 232 1205 250 1195 q 197 1215 214 1215 q 162 1197 174 1215 q 147 1154 149 1179 l 80 1154 q 110 1246 83 1209 q 188 1282 137 1282 q 238 1273 216 1282 q 279 1250 260 1263 q 316 1228 298 1238 q 352 1218 334 1218 q 385 1232 373 1218 q 402 1278 397 1246 l 468 1278 q 436 1185 464 1220 q 362 1150 408 1150 z "},"":{"ha":548,"x_min":65,"x_max":483,"o":"m 65 0 l 65 85 l 227 85 l 227 925 l 65 925 l 65 1010 l 483 1010 l 483 925 l 321 925 l 321 85 l 483 85 l 483 0 l 65 0 m 452 1253 l 452 1178 l 96 1178 l 96 1253 l 452 1253 z "},"":{"ha":548,"x_min":65,"x_max":483,"o":"m 65 0 l 65 85 l 227 85 l 227 925 l 65 925 l 65 1010 l 483 1010 l 483 925 l 321 925 l 321 85 l 483 85 l 483 0 l 65 0 m 274 1117 q 178 1142 221 1117 q 110 1209 135 1166 q 84 1303 84 1252 l 154 1303 q 189 1218 154 1252 q 274 1184 223 1184 q 360 1218 326 1184 q 394 1303 394 1253 l 464 1303 q 439 1210 464 1252 q 371 1142 414 1167 q 274 1117 328 1117 z "},"":{"ha":548,"x_min":65,"x_max":509,"o":"m 65 0 l 65 85 l 227 85 l 227 925 l 65 925 l 65 1010 l 483 1010 l 483 925 l 321 925 l 321 85 l 483 85 l 483 0 l 65 0 m 418 -291 q 317 -260 359 -291 q 275 -169 275 -229 q 309 -72 275 -118 q 401 15 342 -26 l 482 0 q 400 -76 433 -40 q 367 -154 367 -112 q 385 -198 367 -183 q 434 -213 403 -213 q 461 -210 449 -213 q 485 -201 474 -206 l 509 -271 q 469 -284 492 -278 q 418 -291 447 -291 z "},"":{"ha":548,"x_min":65,"x_max":483,"o":"m 65 0 l 65 85 l 227 85 l 227 925 l 65 925 l 65 1010 l 483 1010 l 483 925 l 321 925 l 321 85 l 483 85 l 483 0 l 65 0 m 274 1154 q 227 1173 247 1154 q 208 1219 208 1192 q 227 1264 208 1245 q 274 1282 247 1282 q 321 1264 301 1282 q 340 1219 340 1245 q 321 1173 340 1192 q 274 1154 301 1154 z "},"":{"ha":548,"x_min":65,"x_max":483,"o":"m 65 0 l 65 85 l 227 85 l 227 925 l 65 925 l 65 1010 l 483 1010 l 483 925 l 321 925 l 321 85 l 483 85 l 483 0 l 65 0 m 159 1309 l 273 1179 l 387 1309 l 480 1309 l 480 1305 l 314 1122 l 233 1122 l 68 1305 l 68 1309 l 159 1309 z "},"":{"ha":548,"x_min":-3,"x_max":483,"o":"m 65 0 l 65 85 l 227 85 l 227 925 l 65 925 l 65 1010 l 483 1010 l 483 925 l 321 925 l 321 85 l 483 85 l 483 0 l 65 0 m 339 1112 l 229 1308 l 331 1308 l 415 1112 l 339 1112 m 136 1112 l -3 1308 l 100 1308 l 213 1112 l 136 1112 z "},"":{"ha":548,"x_min":65,"x_max":483,"o":"m 65 0 l 65 85 l 227 85 l 227 925 l 65 925 l 65 1010 l 483 1010 l 483 925 l 321 925 l 321 85 l 483 85 l 483 0 l 65 0 m 274 1310 q 374 1285 330 1310 q 444 1218 418 1260 q 469 1122 469 1175 l 400 1122 q 363 1207 400 1174 q 274 1240 326 1240 q 185 1207 222 1240 q 148 1122 148 1174 l 79 1122 q 104 1218 79 1175 q 174 1285 130 1260 q 274 1310 218 1310 z "},"":{"ha":548,"x_min":65,"x_max":483,"o":"m 65 0 l 65 85 l 227 85 l 227 925 l 65 925 l 65 1010 l 483 1010 l 483 925 l 321 925 l 321 85 l 483 85 l 483 0 l 65 0 m 307 1112 l 235 1112 l 279 1197 q 288 1233 292 1221 q 258 1245 283 1245 l 172 1245 l 172 1308 l 258 1308 q 321 1297 297 1308 q 356 1268 346 1286 q 363 1224 367 1249 q 342 1171 359 1199 l 307 1112 z "},"":{"ha":548,"x_min":65,"x_max":483,"o":"m 65 0 l 65 85 l 227 85 l 227 925 l 65 925 l 65 1010 l 483 1010 l 483 925 l 321 925 l 321 85 l 483 85 l 483 0 l 65 0 m 275 -266 q 229 -247 248 -266 q 209 -201 209 -228 q 229 -156 209 -175 q 275 -138 248 -138 q 322 -156 302 -138 q 342 -201 342 -175 q 322 -247 342 -228 q 275 -266 302 -266 z "},"":{"ha":806,"x_min":65,"x_max":741,"o":"m 323 0 l 323 85 l 484 85 l 484 925 l 323 925 l 323 1010 l 741 1010 l 741 925 l 579 925 l 579 85 l 741 85 l 741 0 l 323 0 m 92 821 l 83 821 l 83 864 l 92 864 q 148 879 128 864 q 168 920 168 894 q 148 957 168 944 q 92 969 128 969 l 65 969 l 65 1029 l 92 1029 q 200 1003 162 1029 q 239 927 239 977 q 200 849 239 877 q 92 821 162 821 z "},"":{"ha":812,"x_min":65,"x_max":747,"o":"m 329 0 l 329 85 l 490 85 l 490 925 l 329 925 l 329 1010 l 747 1010 l 747 925 l 585 925 l 585 85 l 747 85 l 747 0 l 329 0 m 212 808 q 104 836 142 808 q 65 914 65 864 q 104 990 65 964 q 212 1016 142 1016 l 239 1016 l 239 956 l 212 956 q 156 944 176 956 q 136 907 136 931 q 156 866 136 881 q 212 851 176 851 l 222 851 l 222 808 l 212 808 z "},"":{"ha":1003,"x_min":65,"x_max":925,"o":"m 507 0 l 507 85 l 669 85 l 669 925 l 507 925 l 507 1010 l 925 1010 l 925 925 l 764 925 l 764 85 l 925 85 l 925 0 l 507 0 m 92 808 l 83 808 l 83 851 l 92 851 q 148 866 128 851 q 168 907 168 881 q 148 944 168 931 q 92 956 128 956 l 65 956 l 65 1016 l 92 1016 q 200 990 162 1016 q 239 914 239 964 q 200 836 239 864 q 92 808 162 808 m 397 813 l 333 813 l 277 1010 l 372 1010 l 397 813 z "},"":{"ha":1002,"x_min":65,"x_max":937,"o":"m 519 0 l 519 85 l 680 85 l 680 925 l 519 925 l 519 1010 l 937 1010 l 937 925 l 775 925 l 775 85 l 937 85 l 937 0 l 519 0 m 212 808 q 104 836 142 808 q 65 914 65 864 q 104 990 65 964 q 212 1016 142 1016 l 239 1016 l 239 956 l 212 956 q 156 944 176 956 q 136 907 136 931 q 156 866 136 881 q 212 851 176 851 l 222 851 l 222 808 l 212 808 m 418 813 l 354 813 l 298 1010 l 394 1010 l 418 813 z "},"":{"ha":992,"x_min":65,"x_max":927,"o":"m 510 0 l 510 85 l 671 85 l 671 925 l 510 925 l 510 1010 l 928 1010 l 928 925 l 766 925 l 766 85 l 928 85 l 928 0 l 510 0 m 92 808 l 83 808 l 83 851 l 92 851 q 148 866 128 851 q 168 907 168 881 q 148 944 168 931 q 92 956 128 956 l 65 956 l 65 1016 l 92 1016 q 200 990 162 1016 q 239 914 239 964 q 200 836 239 864 q 92 808 162 808 m 316 813 l 340 1010 l 436 1010 l 380 813 l 316 813 z "},"":{"ha":998,"x_min":65,"x_max":932,"o":"m 515 0 l 515 85 l 676 85 l 676 925 l 515 925 l 515 1010 l 932 1010 l 932 925 l 771 925 l 771 85 l 932 85 l 932 0 l 515 0 m 212 808 q 104 836 142 808 q 65 914 65 864 q 104 990 65 964 q 212 1016 142 1016 l 239 1016 l 239 956 l 212 956 q 156 944 176 956 q 136 907 136 931 q 156 866 136 881 q 212 851 176 851 l 222 851 l 222 808 l 212 808 m 321 813 l 346 1010 l 441 1010 l 385 813 l 321 813 z "},"":{"ha":918,"x_min":65,"x_max":852,"o":"m 435 0 l 435 85 l 596 85 l 596 925 l 435 925 l 435 1010 l 852 1010 l 852 925 l 691 925 l 691 85 l 852 85 l 852 0 l 435 0 m 199 812 l 189 812 l 189 855 l 199 855 q 255 870 235 855 q 275 911 275 885 q 255 948 275 935 q 199 960 235 960 l 172 960 l 172 1020 l 199 1020 q 308 994 269 1020 q 346 918 346 968 q 308 840 346 868 q 199 812 269 812 m 347 1087 q 298 1097 321 1087 q 255 1119 275 1107 q 217 1142 235 1132 q 182 1152 199 1152 q 147 1134 159 1152 q 132 1090 134 1116 l 65 1090 q 95 1183 68 1146 q 173 1219 122 1219 q 223 1210 201 1219 q 264 1187 245 1200 q 301 1165 283 1175 q 337 1155 319 1155 q 370 1169 358 1155 q 387 1215 382 1183 l 453 1215 q 421 1122 449 1157 q 347 1087 393 1087 z "},"":{"ha":919,"x_min":65,"x_max":854,"o":"m 436 0 l 436 85 l 597 85 l 597 925 l 436 925 l 436 1010 l 854 1010 l 854 925 l 692 925 l 692 85 l 854 85 l 854 0 l 436 0 m 319 805 q 211 833 249 805 q 172 911 172 861 q 211 987 172 961 q 319 1013 249 1013 l 346 1013 l 346 954 l 319 954 q 263 941 283 954 q 243 904 243 928 q 263 863 243 878 q 319 848 283 848 l 328 848 l 328 805 l 319 805 m 347 1080 q 298 1090 321 1080 q 255 1113 275 1100 q 217 1135 235 1125 q 182 1145 199 1145 q 147 1127 159 1145 q 132 1084 134 1109 l 65 1084 q 95 1176 68 1139 q 173 1213 122 1213 q 223 1203 201 1213 q 264 1180 245 1193 q 301 1158 283 1168 q 337 1148 319 1148 q 370 1162 358 1148 q 387 1208 382 1177 l 453 1208 q 421 1115 449 1150 q 347 1080 393 1080 z "},"":{"ha":548,"x_min":65,"x_max":483,"o":"m 65 0 l 65 85 l 227 85 l 227 925 l 65 925 l 65 1010 l 483 1010 l 483 925 l 321 925 l 321 85 l 483 85 l 483 0 l 65 0 m 274 1117 q 178 1142 221 1117 q 110 1209 135 1166 q 84 1303 84 1252 l 154 1303 q 189 1218 154 1252 q 274 1184 223 1184 q 360 1218 326 1184 q 394 1303 394 1253 l 464 1303 q 439 1210 464 1252 q 371 1142 414 1167 q 274 1117 328 1117 z "},"":{"ha":548,"x_min":65,"x_max":483,"o":"m 65 0 l 65 85 l 227 85 l 227 925 l 65 925 l 65 1010 l 483 1010 l 483 925 l 321 925 l 321 85 l 483 85 l 483 0 l 65 0 m 452 1253 l 452 1178 l 96 1178 l 96 1253 l 452 1253 z "},"":{"ha":680,"x_min":-79,"x_max":614,"o":"m 197 0 l 197 85 l 358 85 l 358 925 l 197 925 l 197 1010 l 614 1010 l 614 925 l 453 925 l 453 85 l 614 85 l 614 0 l 197 0 m 42 848 l -22 848 l -79 1044 l 18 1044 l 42 848 z "},"":{"ha":742,"x_min":65,"x_max":677,"o":"m 260 0 l 260 85 l 421 85 l 421 925 l 260 925 l 260 1010 l 677 1010 l 677 925 l 516 925 l 516 85 l 677 85 l 677 0 l 260 0 m 65 814 l 90 1010 l 186 1010 l 130 814 l 65 814 z "},"":{"ha":548,"x_min":65,"x_max":483,"o":"m 65 0 l 65 85 l 227 85 l 227 925 l 65 925 l 65 1010 l 483 1010 l 483 925 l 321 925 l 321 85 l 483 85 l 483 0 l 65 0 z "},"":{"ha":548,"x_min":65,"x_max":483,"o":"m 65 0 l 65 85 l 227 85 l 227 925 l 65 925 l 65 1010 l 483 1010 l 483 925 l 321 925 l 321 85 l 483 85 l 483 0 l 65 0 m 415 1154 q 370 1173 389 1154 q 351 1219 351 1192 q 370 1264 351 1245 q 415 1282 389 1282 q 460 1264 441 1282 q 479 1219 479 1245 q 460 1173 479 1192 q 415 1154 441 1154 m 134 1154 q 89 1173 107 1154 q 70 1219 70 1192 q 89 1264 70 1245 q 134 1282 107 1282 q 179 1264 160 1282 q 197 1219 197 1245 q 179 1173 197 1192 q 134 1154 160 1154 z "},"J":{"ha":774,"x_min":77,"x_max":654,"o":"m 366 -14 q 156 64 236 -14 q 77 282 77 142 l 77 334 l 172 334 l 172 282 q 224 126 172 181 q 366 72 277 72 q 507 126 454 72 q 559 282 559 181 l 559 1010 l 654 1010 l 654 282 q 575 64 654 142 q 366 -14 495 -14 z "},"Ĵ":{"ha":774,"x_min":77,"x_max":813,"o":"m 366 -14 q 156 64 236 -14 q 77 282 77 142 l 77 334 l 172 334 l 172 282 q 224 126 172 181 q 366 72 277 72 q 507 126 454 72 q 559 282 559 181 l 559 1010 l 654 1010 l 654 282 q 575 64 654 142 q 366 -14 495 -14 m 492 1122 l 401 1122 l 401 1127 l 566 1310 l 647 1310 l 813 1127 l 813 1122 l 720 1122 l 606 1253 l 492 1122 z "},"Ɉ":{"ha":808,"x_min":77,"x_max":802,"o":"m 366 -14 q 156 64 236 -14 q 77 282 77 142 l 77 334 l 172 334 l 172 282 q 224 126 172 181 q 366 72 277 72 q 507 126 454 72 q 559 282 559 181 l 559 1010 l 654 1010 l 654 282 q 575 64 654 142 q 366 -14 495 -14 m 412 564 l 412 635 l 802 635 l 802 564 l 412 564 z "},"Ϳ":{"ha":774,"x_min":77,"x_max":654,"o":"m 366 -14 q 156 64 236 -14 q 77 282 77 142 l 77 334 l 172 334 l 172 282 q 224 126 172 181 q 366 72 277 72 q 507 126 454 72 q 559 282 559 181 l 559 1010 l 654 1010 l 654 282 q 575 64 654 142 q 366 -14 495 -14 z "},"Ј":{"ha":774,"x_min":77,"x_max":654,"o":"m 366 -14 q 156 64 236 -14 q 77 282 77 142 l 77 334 l 172 334 l 172 282 q 224 126 172 181 q 366 72 277 72 q 507 126 454 72 q 559 282 559 181 l 559 1010 l 654 1010 l 654 282 q 575 64 654 142 q 366 -14 495 -14 z "},"K":{"ha":886,"x_min":127,"x_max":850,"o":"m 195 314 l 191 420 q 263 506 228 465 q 335 589 299 548 q 410 671 372 629 l 725 1010 l 850 1010 l 424 553 l 417 551 l 195 314 m 127 0 l 127 1010 l 222 1010 l 222 659 l 222 431 l 222 382 l 222 0 l 127 0 m 737 0 l 359 530 l 420 602 l 850 0 l 737 0 z "},"Ķ":{"ha":886,"x_min":127,"x_max":850,"o":"m 195 314 l 191 420 q 263 506 228 465 q 335 589 299 548 q 410 671 372 629 l 725 1010 l 850 1010 l 424 553 l 417 551 l 195 314 m 127 0 l 127 1010 l 222 1010 l 222 659 l 222 431 l 222 382 l 222 0 l 127 0 m 737 0 l 359 530 l 420 602 l 850 0 l 737 0 m 354 -334 l 412 -80 l 506 -80 l 425 -334 l 354 -334 z "},"Ǩ":{"ha":886,"x_min":127,"x_max":850,"o":"m 195 314 l 191 420 q 263 506 228 465 q 335 589 299 548 q 410 671 372 629 l 725 1010 l 850 1010 l 424 553 l 417 551 l 195 314 m 127 0 l 127 1010 l 222 1010 l 222 659 l 222 431 l 222 382 l 222 0 l 127 0 m 737 0 l 359 530 l 420 602 l 850 0 l 737 0 m 347 1309 l 460 1179 l 574 1309 l 667 1309 l 667 1305 l 501 1122 l 420 1122 l 255 1305 l 255 1309 l 347 1309 z "},"Ḱ":{"ha":886,"x_min":127,"x_max":850,"o":"m 195 314 l 191 420 q 263 506 228 465 q 335 589 299 548 q 410 671 372 629 l 725 1010 l 850 1010 l 424 553 l 417 551 l 195 314 m 127 0 l 127 1010 l 222 1010 l 222 659 l 222 431 l 222 382 l 222 0 l 127 0 m 737 0 l 359 530 l 420 602 l 850 0 l 737 0 m 420 1112 l 516 1308 l 619 1308 l 496 1112 l 420 1112 z "},"Ḳ":{"ha":886,"x_min":127,"x_max":850,"o":"m 195 314 l 191 420 q 263 506 228 465 q 335 589 299 548 q 410 671 372 629 l 725 1010 l 850 1010 l 424 553 l 417 551 l 195 314 m 127 0 l 127 1010 l 222 1010 l 222 659 l 222 431 l 222 382 l 222 0 l 127 0 m 737 0 l 359 530 l 420 602 l 850 0 l 737 0 m 462 -266 q 415 -247 435 -266 q 395 -201 395 -228 q 415 -156 395 -175 q 462 -138 435 -138 q 509 -156 489 -138 q 528 -201 528 -175 q 509 -247 528 -228 q 462 -266 489 -266 z "},"Ḵ":{"ha":886,"x_min":127,"x_max":850,"o":"m 195 314 l 191 420 q 263 506 228 465 q 335 589 299 548 q 410 671 372 629 l 725 1010 l 850 1010 l 424 553 l 417 551 l 195 314 m 127 0 l 127 1010 l 222 1010 l 222 659 l 222 431 l 222 382 l 222 0 l 127 0 m 737 0 l 359 530 l 420 602 l 850 0 l 737 0 m 639 -161 l 639 -235 l 283 -235 l 283 -161 l 639 -161 z "},"Ҡ":{"ha":1131,"x_min":65,"x_max":1095,"o":"m 407 1010 l 407 928 l 65 928 l 65 1010 l 407 1010 m 359 0 l 359 1010 l 455 1010 l 455 557 l 613 557 l 963 1010 l 1079 1010 l 694 519 l 1095 0 l 979 0 l 617 473 l 455 473 l 455 0 l 359 0 z "},"Қ":{"ha":939,"x_min":127,"x_max":926,"o":"m 127 0 l 127 1010 l 222 1010 l 222 557 l 381 557 l 730 1010 l 846 1010 l 463 519 l 863 0 l 747 0 l 385 473 l 222 473 l 222 0 l 127 0 m 836 -217 l 836 0 l 777 0 l 777 85 l 926 85 l 926 -217 l 836 -217 z "},"Ƙ":{"ha":917,"x_min":127,"x_max":911,"o":"m 127 0 l 127 1010 l 223 1010 l 223 469 l 233 469 l 673 954 q 749 1008 707 993 q 834 1018 791 1024 q 911 984 876 1012 l 871 914 q 803 931 837 937 q 735 887 770 924 l 418 543 l 863 0 l 745 0 l 358 476 l 223 326 l 223 0 l 127 0 z "},"Κ":{"ha":886,"x_min":127,"x_max":850,"o":"m 195 314 l 191 420 q 263 506 228 465 q 335 589 299 548 q 410 671 372 629 l 725 1010 l 850 1010 l 424 553 l 417 551 l 195 314 m 127 0 l 127 1010 l 222 1010 l 222 659 l 222 431 l 222 382 l 222 0 l 127 0 m 737 0 l 359 530 l 420 602 l 850 0 l 737 0 z "},"L":{"ha":772,"x_min":127,"x_max":707,"o":"m 127 0 l 127 1010 l 223 1010 l 223 85 l 707 85 l 707 0 l 127 0 z "},"Ĺ":{"ha":772,"x_min":127,"x_max":707,"o":"m 127 0 l 127 1010 l 223 1010 l 223 85 l 707 85 l 707 0 l 127 0 m 134 1112 l 231 1308 l 334 1308 l 210 1112 l 134 1112 z "},"Ļ":{"ha":772,"x_min":127,"x_max":707,"o":"m 127 0 l 127 1010 l 223 1010 l 223 85 l 707 85 l 707 0 l 127 0 m 309 -334 l 367 -80 l 460 -80 l 379 -334 l 309 -334 z "},"Ľ":{"ha":772,"x_min":127,"x_max":707,"o":"m 127 0 l 127 1010 l 223 1010 l 223 85 l 707 85 l 707 0 l 127 0 m 415 802 l 415 1058 l 508 1058 l 481 802 l 415 802 z "},"Ḷ":{"ha":772,"x_min":127,"x_max":707,"o":"m 127 0 l 127 1010 l 223 1010 l 223 85 l 707 85 l 707 0 l 127 0 m 416 -266 q 370 -247 389 -266 q 350 -201 350 -228 q 370 -156 350 -175 q 416 -138 389 -138 q 463 -156 444 -138 q 483 -201 483 -175 q 463 -247 483 -228 q 416 -266 444 -266 z "},"Ḹ":{"ha":772,"x_min":-3,"x_max":707,"o":"m 127 0 l 127 1010 l 223 1010 l 223 85 l 707 85 l 707 0 l 127 0 m 416 -266 q 370 -247 389 -266 q 350 -201 350 -228 q 370 -156 350 -175 q 416 -138 389 -138 q 463 -156 444 -138 q 483 -201 483 -175 q 463 -247 483 -228 q 416 -266 444 -266 m 353 1253 l 353 1178 l -3 1178 l -3 1253 l 353 1253 z "},"Ḻ":{"ha":772,"x_min":127,"x_max":707,"o":"m 127 0 l 127 1010 l 223 1010 l 223 85 l 707 85 l 707 0 l 127 0 m 593 -161 l 593 -235 l 237 -235 l 237 -161 l 593 -161 z "},"Ḽ":{"ha":772,"x_min":127,"x_max":707,"o":"m 127 0 l 127 1010 l 223 1010 l 223 85 l 707 85 l 707 0 l 127 0 m 303 -296 l 212 -296 l 212 -291 l 376 -108 l 458 -108 l 624 -291 l 624 -296 l 531 -296 l 417 -165 l 303 -296 z "},"Ł":{"ha":806,"x_min":31,"x_max":741,"o":"m 161 0 l 161 1010 l 257 1010 l 257 85 l 741 85 l 741 0 l 161 0 m 31 372 l 31 469 l 527 756 l 527 659 l 31 372 z "},"Ƚ":{"ha":789,"x_min":20,"x_max":725,"o":"m 145 0 l 145 1010 l 241 1010 l 241 85 l 725 85 l 725 0 l 145 0 m 20 465 l 20 545 l 498 545 l 498 465 l 20 465 z "},"ǈ":{"ha":1084,"x_min":127,"x_max":996,"o":"m 127 0 l 127 1010 l 223 1010 l 223 85 l 707 85 l 707 0 l 127 0 m 883 749 l 975 749 l 975 -79 q 950 -188 975 -142 q 881 -259 926 -234 q 773 -283 836 -283 l 749 -283 l 749 -199 l 770 -199 q 853 -168 823 -199 q 883 -77 883 -136 l 883 749 m 929 892 q 882 911 902 892 q 863 957 863 930 q 882 1002 863 983 q 929 1021 902 1021 q 976 1002 956 1021 q 996 957 996 983 q 976 911 996 930 q 929 892 956 892 z "},"M":{"ha":1235,"x_min":127,"x_max":1107,"o":"m 127 0 l 127 1010 l 261 1010 l 545 315 q 565 263 554 293 q 588 199 576 233 q 610 133 600 166 q 630 73 621 100 l 606 73 q 626 132 615 100 q 649 198 637 164 q 672 262 661 231 q 692 315 683 292 l 972 1010 l 1107 1010 l 1107 0 l 1013 0 l 1013 643 q 1014 708 1013 673 q 1015 782 1014 744 q 1016 859 1015 820 q 1017 935 1017 897 l 1029 935 q 1000 852 1015 894 q 971 773 985 811 q 945 701 958 734 q 922 643 932 668 l 659 0 l 576 0 l 310 643 q 288 701 300 668 q 261 771 275 733 q 232 851 247 809 q 202 935 218 892 l 215 935 q 217 862 216 900 q 218 785 217 824 q 219 710 218 747 q 219 643 219 674 l 219 0 l 127 0 z "},"Ḿ":{"ha":1235,"x_min":127,"x_max":1107,"o":"m 127 0 l 127 1010 l 261 1010 l 545 315 q 565 263 554 293 q 588 199 576 233 q 610 133 600 166 q 630 73 621 100 l 606 73 q 626 132 615 100 q 649 198 637 164 q 672 262 661 231 q 692 315 683 292 l 972 1010 l 1107 1010 l 1107 0 l 1013 0 l 1013 643 q 1014 708 1013 673 q 1015 782 1014 744 q 1016 859 1015 820 q 1017 935 1017 897 l 1029 935 q 1000 852 1015 894 q 971 773 985 811 q 945 701 958 734 q 922 643 932 668 l 659 0 l 576 0 l 310 643 q 288 701 300 668 q 261 771 275 733 q 232 851 247 809 q 202 935 218 892 l 215 935 q 217 862 216 900 q 218 785 217 824 q 219 710 218 747 q 219 643 219 674 l 219 0 l 127 0 m 575 1112 l 671 1308 l 774 1308 l 651 1112 l 575 1112 z "},"Ṁ":{"ha":1235,"x_min":127,"x_max":1107,"o":"m 127 0 l 127 1010 l 261 1010 l 545 315 q 565 263 554 293 q 588 199 576 233 q 610 133 600 166 q 630 73 621 100 l 606 73 q 626 132 615 100 q 649 198 637 164 q 672 262 661 231 q 692 315 683 292 l 972 1010 l 1107 1010 l 1107 0 l 1013 0 l 1013 643 q 1014 708 1013 673 q 1015 782 1014 744 q 1016 859 1015 820 q 1017 935 1017 897 l 1029 935 q 1000 852 1015 894 q 971 773 985 811 q 945 701 958 734 q 922 643 932 668 l 659 0 l 576 0 l 310 643 q 288 701 300 668 q 261 771 275 733 q 232 851 247 809 q 202 935 218 892 l 215 935 q 217 862 216 900 q 218 785 217 824 q 219 710 218 747 q 219 643 219 674 l 219 0 l 127 0 m 616 1154 q 569 1173 589 1154 q 549 1219 549 1192 q 569 1264 549 1245 q 616 1282 589 1282 q 663 1264 643 1282 q 682 1219 682 1245 q 663 1173 682 1192 q 616 1154 643 1154 z "},"Ṃ":{"ha":1235,"x_min":127,"x_max":1107,"o":"m 127 0 l 127 1010 l 261 1010 l 545 315 q 565 263 554 293 q 588 199 576 233 q 610 133 600 166 q 630 73 621 100 l 606 73 q 626 132 615 100 q 649 198 637 164 q 672 262 661 231 q 692 315 683 292 l 972 1010 l 1107 1010 l 1107 0 l 1013 0 l 1013 643 q 1014 708 1013 673 q 1015 782 1014 744 q 1016 859 1015 820 q 1017 935 1017 897 l 1029 935 q 1000 852 1015 894 q 971 773 985 811 q 945 701 958 734 q 922 643 932 668 l 659 0 l 576 0 l 310 643 q 288 701 300 668 q 261 771 275 733 q 232 851 247 809 q 202 935 218 892 l 215 935 q 217 862 216 900 q 218 785 217 824 q 219 710 218 747 q 219 643 219 674 l 219 0 l 127 0 m 617 -266 q 570 -247 590 -266 q 551 -201 551 -228 q 570 -156 551 -175 q 617 -138 590 -138 q 664 -156 644 -138 q 684 -201 684 -175 q 664 -247 684 -228 q 617 -266 644 -266 z "},"Ӎ":{"ha":1235,"x_min":127,"x_max":1222,"o":"m 127 0 l 127 1010 l 261 1010 l 545 315 q 565 263 554 293 q 588 199 576 233 q 610 133 600 166 q 630 73 621 100 l 606 73 q 626 132 615 100 q 649 198 637 164 q 672 262 661 231 q 692 315 683 292 l 972 1010 l 1107 1010 l 1107 0 l 1013 0 l 1013 643 q 1014 708 1013 673 q 1015 782 1014 744 q 1016 859 1015 820 q 1017 935 1017 897 l 1029 935 q 1000 852 1015 894 q 971 773 985 811 q 945 701 958 734 q 922 643 932 668 l 659 0 l 576 0 l 310 643 q 288 701 300 668 q 261 771 275 733 q 232 851 247 809 q 202 935 218 892 l 215 935 q 217 862 216 900 q 218 785 217 824 q 219 710 218 747 q 219 643 219 674 l 219 0 l 127 0 m 1033 -217 l 1105 0 l 1047 0 l 1047 85 l 1222 85 l 1124 -217 l 1033 -217 z "},"Μ":{"ha":1235,"x_min":127,"x_max":1107,"o":"m 127 0 l 127 1010 l 261 1010 l 545 315 q 565 263 554 293 q 588 199 576 233 q 610 133 600 166 q 630 73 621 100 l 606 73 q 626 132 615 100 q 649 198 637 164 q 672 262 661 231 q 692 315 683 292 l 972 1010 l 1107 1010 l 1107 0 l 1013 0 l 1013 643 q 1014 708 1013 673 q 1015 782 1014 744 q 1016 859 1015 820 q 1017 935 1017 897 l 1029 935 q 1000 852 1015 894 q 971 773 985 811 q 945 701 958 734 q 922 643 932 668 l 659 0 l 576 0 l 310 643 q 288 701 300 668 q 261 771 275 733 q 232 851 247 809 q 202 935 218 892 l 215 935 q 217 862 216 900 q 218 785 217 824 q 219 710 218 747 q 219 643 219 674 l 219 0 l 127 0 z "},"Ϻ":{"ha":1235,"x_min":127,"x_max":1107,"o":"m 127 0 l 127 1010 l 261 1010 l 545 315 q 565 263 554 293 q 588 199 576 233 q 610 133 600 166 q 630 73 621 100 l 606 73 q 626 132 615 100 q 649 198 637 164 q 672 262 661 231 q 692 315 683 292 l 972 1010 l 1107 1010 l 1107 0 l 1013 0 l 1013 643 q 1014 708 1013 673 q 1015 782 1014 744 q 1016 859 1015 820 q 1017 935 1017 897 l 1029 935 q 1000 852 1015 894 q 971 773 985 811 q 945 701 958 734 q 922 643 932 668 l 659 0 l 576 0 l 310 643 q 288 701 300 668 q 261 771 275 733 q 232 851 247 809 q 202 935 218 892 l 215 935 q 217 862 216 900 q 218 785 217 824 q 219 710 218 747 q 219 643 219 674 l 219 0 l 127 0 z "},"М":{"ha":1235,"x_min":127,"x_max":1107,"o":"m 127 0 l 127 1010 l 261 1010 l 545 315 q 565 263 554 293 q 588 199 576 233 q 610 133 600 166 q 630 73 621 100 l 606 73 q 626 132 615 100 q 649 198 637 164 q 672 262 661 231 q 692 315 683 292 l 972 1010 l 1107 1010 l 1107 0 l 1013 0 l 1013 643 q 1014 708 1013 673 q 1015 782 1014 744 q 1016 859 1015 820 q 1017 935 1017 897 l 1029 935 q 1000 852 1015 894 q 971 773 985 811 q 945 701 958 734 q 922 643 932 668 l 659 0 l 576 0 l 310 643 q 288 701 300 668 q 261 771 275 733 q 232 851 247 809 q 202 935 218 892 l 215 935 q 217 862 216 900 q 218 785 217 824 q 219 710 218 747 q 219 643 219 674 l 219 0 l 127 0 z "},"N":{"ha":1040,"x_min":127,"x_max":912,"o":"m 127 0 l 127 1010 l 237 1010 l 698 322 q 740 257 717 294 q 789 176 764 220 q 840 86 815 133 l 825 83 q 820 177 822 130 q 817 264 818 223 q 817 337 817 306 l 817 1010 l 912 1010 l 912 0 l 802 0 l 371 640 q 322 716 347 676 q 267 806 297 755 q 197 922 237 856 l 215 927 q 219 810 217 865 q 222 713 220 756 q 223 641 223 671 l 223 0 l 127 0 z "},"Ñ":{"ha":1040,"x_min":127,"x_max":912,"o":"m 127 0 l 127 1010 l 237 1010 l 698 322 q 740 257 717 294 q 789 176 764 220 q 840 86 815 133 l 825 83 q 820 177 822 130 q 817 264 818 223 q 817 337 817 306 l 817 1010 l 912 1010 l 912 0 l 802 0 l 371 640 q 322 716 347 676 q 267 806 297 755 q 197 922 237 856 l 215 927 q 219 810 217 865 q 222 713 220 756 q 223 641 223 671 l 223 0 l 127 0 m 608 1150 q 559 1160 583 1150 q 516 1182 536 1170 q 478 1205 496 1195 q 444 1215 460 1215 q 408 1197 420 1215 q 393 1154 395 1179 l 326 1154 q 356 1246 329 1209 q 434 1282 383 1282 q 485 1273 463 1282 q 526 1250 507 1263 q 562 1228 545 1238 q 598 1218 580 1218 q 631 1232 619 1218 q 648 1278 644 1246 l 714 1278 q 682 1185 710 1220 q 608 1150 654 1150 z "},"Ń":{"ha":1040,"x_min":127,"x_max":912,"o":"m 127 0 l 127 1010 l 237 1010 l 698 322 q 740 257 717 294 q 789 176 764 220 q 840 86 815 133 l 825 83 q 820 177 822 130 q 817 264 818 223 q 817 337 817 306 l 817 1010 l 912 1010 l 912 0 l 802 0 l 371 640 q 322 716 347 676 q 267 806 297 755 q 197 922 237 856 l 215 927 q 219 810 217 865 q 222 713 220 756 q 223 641 223 671 l 223 0 l 127 0 m 479 1112 l 576 1308 l 679 1308 l 555 1112 l 479 1112 z "},"Ņ":{"ha":1040,"x_min":127,"x_max":912,"o":"m 127 0 l 127 1010 l 237 1010 l 698 322 q 740 257 717 294 q 789 176 764 220 q 840 86 815 133 l 825 83 q 820 177 822 130 q 817 264 818 223 q 817 337 817 306 l 817 1010 l 912 1010 l 912 0 l 802 0 l 371 640 q 322 716 347 676 q 267 806 297 755 q 197 922 237 856 l 215 927 q 219 810 217 865 q 222 713 220 756 q 223 641 223 671 l 223 0 l 127 0 m 413 -334 l 471 -80 l 565 -80 l 484 -334 l 413 -334 z "},"Ň":{"ha":1040,"x_min":127,"x_max":912,"o":"m 127 0 l 127 1010 l 237 1010 l 698 322 q 740 257 717 294 q 789 176 764 220 q 840 86 815 133 l 825 83 q 820 177 822 130 q 817 264 818 223 q 817 337 817 306 l 817 1010 l 912 1010 l 912 0 l 802 0 l 371 640 q 322 716 347 676 q 267 806 297 755 q 197 922 237 856 l 215 927 q 219 810 217 865 q 222 713 220 756 q 223 641 223 671 l 223 0 l 127 0 m 406 1309 l 519 1179 l 633 1309 l 726 1309 l 726 1305 l 560 1122 l 479 1122 l 314 1305 l 314 1309 l 406 1309 z "},"Ǹ":{"ha":1040,"x_min":127,"x_max":912,"o":"m 127 0 l 127 1010 l 237 1010 l 698 322 q 740 257 717 294 q 789 176 764 220 q 840 86 815 133 l 825 83 q 820 177 822 130 q 817 264 818 223 q 817 337 817 306 l 817 1010 l 912 1010 l 912 0 l 802 0 l 371 640 q 322 716 347 676 q 267 806 297 755 q 197 922 237 856 l 215 927 q 219 810 217 865 q 222 713 220 756 q 223 641 223 671 l 223 0 l 127 0 m 484 1112 l 361 1308 l 465 1308 l 561 1112 l 484 1112 z "},"Ṅ":{"ha":1040,"x_min":127,"x_max":912,"o":"m 127 0 l 127 1010 l 237 1010 l 698 322 q 740 257 717 294 q 789 176 764 220 q 840 86 815 133 l 825 83 q 820 177 822 130 q 817 264 818 223 q 817 337 817 306 l 817 1010 l 912 1010 l 912 0 l 802 0 l 371 640 q 322 716 347 676 q 267 806 297 755 q 197 922 237 856 l 215 927 q 219 810 217 865 q 222 713 220 756 q 223 641 223 671 l 223 0 l 127 0 m 520 1154 q 473 1173 493 1154 q 454 1219 454 1192 q 473 1264 454 1245 q 520 1282 493 1282 q 567 1264 547 1282 q 587 1219 587 1245 q 567 1173 587 1192 q 520 1154 547 1154 z "},"Ṇ":{"ha":1040,"x_min":127,"x_max":912,"o":"m 127 0 l 127 1010 l 237 1010 l 698 322 q 740 257 717 294 q 789 176 764 220 q 840 86 815 133 l 825 83 q 820 177 822 130 q 817 264 818 223 q 817 337 817 306 l 817 1010 l 912 1010 l 912 0 l 802 0 l 371 640 q 322 716 347 676 q 267 806 297 755 q 197 922 237 856 l 215 927 q 219 810 217 865 q 222 713 220 756 q 223 641 223 671 l 223 0 l 127 0 m 521 -266 q 474 -247 494 -266 q 454 -201 454 -228 q 474 -156 454 -175 q 521 -138 494 -138 q 568 -156 548 -138 q 587 -201 587 -175 q 568 -247 587 -228 q 521 -266 548 -266 z "},"Ṉ":{"ha":1040,"x_min":127,"x_max":912,"o":"m 127 0 l 127 1010 l 237 1010 l 698 322 q 740 257 717 294 q 789 176 764 220 q 840 86 815 133 l 825 83 q 820 177 822 130 q 817 264 818 223 q 817 337 817 306 l 817 1010 l 912 1010 l 912 0 l 802 0 l 371 640 q 322 716 347 676 q 267 806 297 755 q 197 922 237 856 l 215 927 q 219 810 217 865 q 222 713 220 756 q 223 641 223 671 l 223 0 l 127 0 m 698 -161 l 698 -235 l 342 -235 l 342 -161 l 698 -161 z "},"Ṋ":{"ha":1040,"x_min":127,"x_max":912,"o":"m 127 0 l 127 1010 l 237 1010 l 698 322 q 740 257 717 294 q 789 176 764 220 q 840 86 815 133 l 825 83 q 820 177 822 130 q 817 264 818 223 q 817 337 817 306 l 817 1010 l 912 1010 l 912 0 l 802 0 l 371 640 q 322 716 347 676 q 267 806 297 755 q 197 922 237 856 l 215 927 q 219 810 217 865 q 222 713 220 756 q 223 641 223 671 l 223 0 l 127 0 m 408 -296 l 317 -296 l 317 -291 l 481 -108 l 563 -108 l 729 -291 l 729 -296 l 636 -296 l 522 -165 l 408 -296 z "},"Ɲ":{"ha":1040,"x_min":-14,"x_max":912,"o":"m -14 -283 l -14 -201 q 12 -203 -2 -203 q 33 -203 25 -203 q 106 -184 85 -203 q 127 -123 127 -165 l 127 87 l 222 87 l 222 -127 q 179 -246 222 -205 q 50 -287 135 -287 q 15 -286 33 -287 q -14 -283 -3 -285 m 127 0 l 127 1010 l 237 1010 l 698 322 q 740 257 717 294 q 789 176 764 220 q 840 86 815 133 l 825 83 q 820 177 822 130 q 817 264 818 223 q 817 337 817 306 l 817 1010 l 912 1010 l 912 0 l 802 0 l 371 640 q 322 716 347 676 q 267 806 297 755 q 197 922 237 856 l 215 927 q 219 810 217 865 q 222 713 220 756 q 223 641 223 671 l 223 0 l 127 0 z "},"Ŋ":{"ha":1040,"x_min":127,"x_max":916,"o":"m 680 -283 l 680 -201 q 705 -203 692 -203 q 726 -203 718 -203 q 800 -184 779 -203 q 821 -123 821 -165 l 821 87 l 916 87 l 916 -127 q 872 -246 916 -205 q 743 -287 829 -287 q 708 -286 726 -287 q 680 -283 691 -285 m 127 0 l 127 1010 l 237 1010 l 698 322 q 740 257 717 294 q 789 176 764 220 q 840 86 815 133 l 825 83 q 820 177 822 130 q 817 264 818 223 q 817 337 817 306 l 817 1010 l 912 1010 l 912 0 l 802 0 l 371 640 q 322 716 347 676 q 267 806 297 755 q 197 922 237 856 l 215 927 q 219 810 217 865 q 222 713 220 756 q 223 641 223 671 l 223 0 l 127 0 z "},"И":{"ha":1040,"x_min":127,"x_max":912,"o":"m 912 0 l 817 0 l 817 641 q 818 713 817 671 q 821 810 819 756 q 825 927 823 865 l 842 922 q 773 806 803 856 q 718 716 743 755 q 668 640 692 676 l 238 0 l 127 0 l 127 1010 l 222 1010 l 222 337 q 222 264 222 306 q 219 177 221 223 q 214 83 218 130 l 199 86 q 251 176 225 133 q 300 257 276 220 q 342 322 323 294 l 802 1010 l 912 1010 l 912 0 z "},"Ѝ":{"ha":1040,"x_min":127,"x_max":912,"o":"m 912 0 l 817 0 l 817 641 q 818 713 817 671 q 821 810 819 756 q 825 927 823 865 l 842 922 q 773 806 803 856 q 718 716 743 755 q 668 640 692 676 l 238 0 l 127 0 l 127 1010 l 222 1010 l 222 337 q 222 264 222 306 q 219 177 221 223 q 214 83 218 130 l 199 86 q 251 176 225 133 q 300 257 276 220 q 342 322 323 294 l 802 1010 l 912 1010 l 912 0 m 485 1112 l 362 1308 l 465 1308 l 562 1112 l 485 1112 z "},"Й":{"ha":1040,"x_min":127,"x_max":912,"o":"m 912 0 l 817 0 l 817 641 q 818 713 817 671 q 821 810 819 756 q 825 927 823 865 l 842 922 q 773 806 803 856 q 718 716 743 755 q 668 640 692 676 l 238 0 l 127 0 l 127 1010 l 222 1010 l 222 337 q 222 264 222 306 q 219 177 221 223 q 214 83 218 130 l 199 86 q 251 176 225 133 q 300 257 276 220 q 342 322 323 294 l 802 1010 l 912 1010 l 912 0 m 521 1117 q 425 1142 468 1117 q 356 1209 382 1166 q 331 1303 331 1252 l 401 1303 q 435 1218 401 1252 q 521 1184 470 1184 q 607 1218 572 1184 q 641 1303 641 1253 l 711 1303 q 686 1210 711 1252 q 617 1142 661 1167 q 521 1117 574 1117 z "},"Ӣ":{"ha":1040,"x_min":127,"x_max":912,"o":"m 912 0 l 817 0 l 817 641 q 818 713 817 671 q 821 810 819 756 q 825 927 823 865 l 842 922 q 773 806 803 856 q 718 716 743 755 q 668 640 692 676 l 238 0 l 127 0 l 127 1010 l 222 1010 l 222 337 q 222 264 222 306 q 219 177 221 223 q 214 83 218 130 l 199 86 q 251 176 225 133 q 300 257 276 220 q 342 322 323 294 l 802 1010 l 912 1010 l 912 0 m 699 1253 l 699 1178 l 343 1178 l 343 1253 l 699 1253 z "},"Ӥ":{"ha":1040,"x_min":127,"x_max":912,"o":"m 912 0 l 817 0 l 817 641 q 818 713 817 671 q 821 810 819 756 q 825 927 823 865 l 842 922 q 773 806 803 856 q 718 716 743 755 q 668 640 692 676 l 238 0 l 127 0 l 127 1010 l 222 1010 l 222 337 q 222 264 222 306 q 219 177 221 223 q 214 83 218 130 l 199 86 q 251 176 225 133 q 300 257 276 220 q 342 322 323 294 l 802 1010 l 912 1010 l 912 0 m 662 1154 q 616 1173 635 1154 q 597 1219 597 1192 q 616 1264 597 1245 q 662 1282 635 1282 q 707 1264 688 1282 q 726 1219 726 1245 q 707 1173 726 1192 q 662 1154 688 1154 m 380 1154 q 335 1173 354 1154 q 317 1219 317 1192 q 335 1264 317 1245 q 380 1282 354 1282 q 426 1264 407 1282 q 444 1219 444 1245 q 426 1173 444 1192 q 380 1154 407 1154 z "},"Ҋ":{"ha":1040,"x_min":127,"x_max":1038,"o":"m 912 0 l 817 0 l 817 641 q 818 713 817 671 q 821 810 819 756 q 825 927 823 865 l 842 922 q 773 806 803 856 q 718 716 743 755 q 668 640 692 676 l 238 0 l 127 0 l 127 1010 l 222 1010 l 222 337 q 222 264 222 306 q 219 177 221 223 q 214 83 218 130 l 199 86 q 251 176 225 133 q 300 257 276 220 q 342 322 323 294 l 802 1010 l 912 1010 l 912 0 m 521 1117 q 425 1142 468 1117 q 356 1209 382 1166 q 331 1303 331 1252 l 401 1303 q 435 1218 401 1252 q 521 1184 470 1184 q 607 1218 572 1184 q 641 1303 641 1253 l 711 1303 q 686 1210 711 1252 q 617 1142 661 1167 q 521 1117 574 1117 m 849 -217 l 921 0 l 863 0 l 863 85 l 1038 85 l 940 -217 l 849 -217 z "},"Ͷ":{"ha":1040,"x_min":127,"x_max":912,"o":"m 912 0 l 817 0 l 817 641 q 818 713 817 671 q 821 810 819 756 q 825 927 823 865 l 842 922 q 773 806 803 856 q 718 716 743 755 q 668 640 692 676 l 238 0 l 127 0 l 127 1010 l 222 1010 l 222 337 q 222 264 222 306 q 219 177 221 223 q 214 83 218 130 l 199 86 q 251 176 225 133 q 300 257 276 220 q 342 322 323 294 l 802 1010 l 912 1010 l 912 0 z "},"Ν":{"ha":1040,"x_min":127,"x_max":912,"o":"m 127 0 l 127 1010 l 237 1010 l 698 322 q 740 257 717 294 q 789 176 764 220 q 840 86 815 133 l 825 83 q 820 177 822 130 q 817 264 818 223 q 817 337 817 306 l 817 1010 l 912 1010 l 912 0 l 802 0 l 371 640 q 322 716 347 676 q 267 806 297 755 q 197 922 237 856 l 215 927 q 219 810 217 865 q 222 713 220 756 q 223 641 223 671 l 223 0 l 127 0 z "},"ǋ":{"ha":1351,"x_min":127,"x_max":1263,"o":"m 127 0 l 127 1010 l 237 1010 l 698 322 q 740 257 717 294 q 789 176 764 220 q 840 86 815 133 l 825 83 q 820 177 822 130 q 817 264 818 223 q 817 337 817 306 l 817 1010 l 912 1010 l 912 0 l 802 0 l 371 640 q 322 716 347 676 q 267 806 297 755 q 197 922 237 856 l 215 927 q 219 810 217 865 q 222 713 220 756 q 223 641 223 671 l 223 0 l 127 0 m 1150 749 l 1242 749 l 1242 -79 q 1218 -188 1242 -142 q 1148 -259 1194 -234 q 1040 -283 1103 -283 l 1016 -283 l 1016 -199 l 1038 -199 q 1120 -168 1090 -199 q 1150 -77 1150 -136 l 1150 749 m 1196 892 q 1149 911 1169 892 q 1130 957 1130 930 q 1149 1002 1130 983 q 1196 1021 1169 1021 q 1243 1002 1223 1021 q 1263 957 1263 983 q 1243 911 1263 930 q 1196 892 1223 892 z "},"O":{"ha":1044,"x_min":82,"x_max":962,"o":"m 523 -14 q 295 51 394 -14 q 139 231 195 115 q 82 505 82 348 q 139 779 82 662 q 295 960 195 895 q 523 1024 394 1024 q 750 960 651 1024 q 906 779 849 895 q 962 505 962 662 q 906 231 962 348 q 750 51 849 115 q 523 -14 651 -14 m 523 75 q 700 126 621 75 q 823 274 778 178 q 869 505 869 370 q 823 736 869 640 q 700 884 778 833 q 523 935 621 935 q 345 884 424 935 q 221 736 267 833 q 176 505 176 640 q 221 274 176 370 q 345 127 267 178 q 523 75 423 75 z "},"Ö":{"ha":1044,"x_min":82,"x_max":962,"o":"m 523 -14 q 295 51 394 -14 q 139 231 195 115 q 82 505 82 348 q 139 779 82 662 q 295 960 195 895 q 523 1024 394 1024 q 750 960 651 1024 q 906 779 849 895 q 962 505 962 662 q 906 231 962 348 q 750 51 849 115 q 523 -14 651 -14 m 523 75 q 700 126 621 75 q 823 274 778 178 q 869 505 869 370 q 823 736 869 640 q 700 884 778 833 q 523 935 621 935 q 345 884 424 935 q 221 736 267 833 q 176 505 176 640 q 221 274 176 370 q 345 127 267 178 q 523 75 423 75 m 663 1154 q 618 1173 637 1154 q 599 1219 599 1192 q 618 1264 599 1245 q 663 1282 637 1282 q 708 1264 690 1282 q 727 1219 727 1245 q 708 1173 727 1192 q 663 1154 690 1154 m 382 1154 q 337 1173 355 1154 q 318 1219 318 1192 q 337 1264 318 1245 q 382 1282 355 1282 q 427 1264 408 1282 q 446 1219 446 1245 q 427 1173 446 1192 q 382 1154 408 1154 z "},"Õ":{"ha":1044,"x_min":82,"x_max":962,"o":"m 523 -14 q 295 51 394 -14 q 139 231 195 115 q 82 505 82 348 q 139 779 82 662 q 295 960 195 895 q 523 1024 394 1024 q 750 960 651 1024 q 906 779 849 895 q 962 505 962 662 q 906 231 962 348 q 750 51 849 115 q 523 -14 651 -14 m 523 75 q 700 126 621 75 q 823 274 778 178 q 869 505 869 370 q 823 736 869 640 q 700 884 778 833 q 523 935 621 935 q 345 884 424 935 q 221 736 267 833 q 176 505 176 640 q 221 274 176 370 q 345 127 267 178 q 523 75 423 75 m 611 1150 q 562 1160 585 1150 q 519 1182 539 1170 q 481 1205 499 1195 q 446 1215 463 1215 q 411 1197 423 1215 q 396 1154 398 1179 l 329 1154 q 359 1246 332 1209 q 437 1282 386 1282 q 487 1273 465 1282 q 528 1250 509 1263 q 565 1228 547 1238 q 601 1218 583 1218 q 634 1232 622 1218 q 651 1278 646 1246 l 717 1278 q 685 1185 713 1220 q 611 1150 657 1150 z "},"Ø":{"ha":1044,"x_min":82,"x_max":962,"o":"m 523 -14 q 295 51 394 -14 q 139 231 195 115 q 82 505 82 348 q 139 779 82 662 q 295 960 195 895 q 523 1024 394 1024 q 750 960 651 1024 q 906 779 849 895 q 962 505 962 662 q 906 231 962 348 q 750 51 849 115 q 523 -14 651 -14 m 523 75 q 700 126 621 75 q 823 274 778 178 q 869 505 869 370 q 823 736 869 640 q 700 884 778 833 q 523 935 621 935 q 345 884 424 935 q 221 736 267 833 q 176 505 176 640 q 221 274 176 370 q 345 127 267 178 q 523 75 423 75 m 202 -24 l 134 24 l 844 1035 l 911 987 l 202 -24 z "},"Ơ":{"ha":1042,"x_min":82,"x_max":962,"o":"m 521 957 l 521 1025 q 588 1022 562 1025 q 642 1017 614 1020 q 718 1013 671 1015 q 847 1010 765 1010 q 873 1036 873 1010 l 873 1156 l 960 1156 l 960 1040 q 933 962 960 988 q 855 935 907 935 q 794 939 823 935 q 729 946 765 942 q 643 954 693 951 q 521 957 593 957 m 523 -14 q 295 51 394 -14 q 139 231 195 115 q 82 505 82 348 q 139 779 82 662 q 295 960 195 895 q 523 1024 394 1024 q 750 960 651 1024 q 906 779 849 895 q 962 505 962 662 q 906 231 962 348 q 750 51 849 115 q 523 -14 651 -14 m 523 75 q 700 126 621 75 q 823 274 778 178 q 869 505 869 370 q 823 736 869 640 q 700 884 778 833 q 523 935 621 935 q 345 884 424 935 q 221 736 267 833 q 176 505 176 640 q 221 274 176 370 q 345 127 267 178 q 523 75 423 75 z "},"Ò":{"ha":1044,"x_min":82,"x_max":962,"o":"m 523 -14 q 295 51 394 -14 q 139 231 195 115 q 82 505 82 348 q 139 779 82 662 q 295 960 195 895 q 523 1024 394 1024 q 750 960 651 1024 q 906 779 849 895 q 962 505 962 662 q 906 231 962 348 q 750 51 849 115 q 523 -14 651 -14 m 523 75 q 700 126 621 75 q 823 274 778 178 q 869 505 869 370 q 823 736 869 640 q 700 884 778 833 q 523 935 621 935 q 345 884 424 935 q 221 736 267 833 q 176 505 176 640 q 221 274 176 370 q 345 127 267 178 q 523 75 423 75 m 487 1112 l 364 1308 l 467 1308 l 564 1112 l 487 1112 z "},"Ó":{"ha":1044,"x_min":82,"x_max":962,"o":"m 523 -14 q 295 51 394 -14 q 139 231 195 115 q 82 505 82 348 q 139 779 82 662 q 295 960 195 895 q 523 1024 394 1024 q 750 960 651 1024 q 906 779 849 895 q 962 505 962 662 q 906 231 962 348 q 750 51 849 115 q 523 -14 651 -14 m 523 75 q 700 126 621 75 q 823 274 778 178 q 869 505 869 370 q 823 736 869 640 q 700 884 778 833 q 523 935 621 935 q 345 884 424 935 q 221 736 267 833 q 176 505 176 640 q 221 274 176 370 q 345 127 267 178 q 523 75 423 75 m 482 1112 l 578 1308 l 682 1308 l 558 1112 l 482 1112 z "},"Ô":{"ha":1044,"x_min":82,"x_max":962,"o":"m 523 -14 q 295 51 394 -14 q 139 231 195 115 q 82 505 82 348 q 139 779 82 662 q 295 960 195 895 q 523 1024 394 1024 q 750 960 651 1024 q 906 779 849 895 q 962 505 962 662 q 906 231 962 348 q 750 51 849 115 q 523 -14 651 -14 m 523 75 q 700 126 621 75 q 823 274 778 178 q 869 505 869 370 q 823 736 869 640 q 700 884 778 833 q 523 935 621 935 q 345 884 424 935 q 221 736 267 833 q 176 505 176 640 q 221 274 176 370 q 345 127 267 178 q 523 75 423 75 m 408 1122 l 317 1122 l 317 1127 l 481 1310 l 563 1310 l 729 1127 l 729 1122 l 636 1122 l 522 1253 l 408 1122 z "},"Ō":{"ha":1044,"x_min":82,"x_max":962,"o":"m 523 -14 q 295 51 394 -14 q 139 231 195 115 q 82 505 82 348 q 139 779 82 662 q 295 960 195 895 q 523 1024 394 1024 q 750 960 651 1024 q 906 779 849 895 q 962 505 962 662 q 906 231 962 348 q 750 51 849 115 q 523 -14 651 -14 m 523 75 q 700 126 621 75 q 823 274 778 178 q 869 505 869 370 q 823 736 869 640 q 700 884 778 833 q 523 935 621 935 q 345 884 424 935 q 221 736 267 833 q 176 505 176 640 q 221 274 176 370 q 345 127 267 178 q 523 75 423 75 m 700 1253 l 700 1178 l 345 1178 l 345 1253 l 700 1253 z "},"Ŏ":{"ha":1044,"x_min":82,"x_max":962,"o":"m 523 -14 q 295 51 394 -14 q 139 231 195 115 q 82 505 82 348 q 139 779 82 662 q 295 960 195 895 q 523 1024 394 1024 q 750 960 651 1024 q 906 779 849 895 q 962 505 962 662 q 906 231 962 348 q 750 51 849 115 q 523 -14 651 -14 m 523 75 q 700 126 621 75 q 823 274 778 178 q 869 505 869 370 q 823 736 869 640 q 700 884 778 833 q 523 935 621 935 q 345 884 424 935 q 221 736 267 833 q 176 505 176 640 q 221 274 176 370 q 345 127 267 178 q 523 75 423 75 m 522 1117 q 426 1142 469 1117 q 358 1209 383 1166 q 332 1303 332 1252 l 402 1303 q 437 1218 402 1252 q 522 1184 471 1184 q 608 1218 574 1184 q 642 1303 642 1253 l 712 1303 q 687 1210 712 1252 q 619 1142 662 1167 q 522 1117 576 1117 z "},"Ő":{"ha":1044,"x_min":82,"x_max":962,"o":"m 523 -14 q 295 51 394 -14 q 139 231 195 115 q 82 505 82 348 q 139 779 82 662 q 295 960 195 895 q 523 1024 394 1024 q 750 960 651 1024 q 906 779 849 895 q 962 505 962 662 q 906 231 962 348 q 750 51 849 115 q 523 -14 651 -14 m 523 75 q 700 126 621 75 q 823 274 778 178 q 869 505 869 370 q 823 736 869 640 q 700 884 778 833 q 523 935 621 935 q 345 884 424 935 q 221 736 267 833 q 176 505 176 640 q 221 274 176 370 q 345 127 267 178 q 523 75 423 75 m 410 1112 l 334 1112 l 418 1308 l 520 1308 l 410 1112 m 614 1112 l 536 1112 l 650 1308 l 752 1308 l 614 1112 z "},"Ǒ":{"ha":1044,"x_min":82,"x_max":962,"o":"m 523 -14 q 295 51 394 -14 q 139 231 195 115 q 82 505 82 348 q 139 779 82 662 q 295 960 195 895 q 523 1024 394 1024 q 750 960 651 1024 q 906 779 849 895 q 962 505 962 662 q 906 231 962 348 q 750 51 849 115 q 523 -14 651 -14 m 523 75 q 700 126 621 75 q 823 274 778 178 q 869 505 869 370 q 823 736 869 640 q 700 884 778 833 q 523 935 621 935 q 345 884 424 935 q 221 736 267 833 q 176 505 176 640 q 221 274 176 370 q 345 127 267 178 q 523 75 423 75 m 408 1309 l 522 1179 l 636 1309 l 729 1309 l 729 1305 l 563 1122 l 481 1122 l 317 1305 l 317 1309 l 408 1309 z "},"Ǫ":{"ha":1044,"x_min":82,"x_max":962,"o":"m 523 -14 q 295 51 394 -14 q 139 231 195 115 q 82 505 82 348 q 139 779 82 662 q 295 960 195 895 q 523 1024 394 1024 q 750 960 651 1024 q 906 779 849 895 q 962 505 962 662 q 906 231 962 348 q 750 51 849 115 q 523 -14 651 -14 m 523 75 q 700 126 621 75 q 823 274 778 178 q 869 505 869 370 q 823 736 869 640 q 700 884 778 833 q 523 935 621 935 q 345 884 424 935 q 221 736 267 833 q 176 505 176 640 q 221 274 176 370 q 345 127 267 178 q 523 75 423 75 m 570 -291 q 469 -260 511 -291 q 427 -168 427 -229 q 453 -84 427 -119 q 524 -22 480 -50 q 621 35 568 6 q 727 101 674 64 q 823 192 779 139 q 894 321 867 245 q 921 505 921 397 l 962 505 q 938 312 962 393 q 874 174 914 231 q 788 77 835 117 q 693 9 741 37 q 606 -43 646 -20 q 543 -93 567 -67 q 519 -152 519 -118 q 537 -198 519 -183 q 586 -213 555 -213 q 613 -210 601 -213 q 637 -201 626 -206 l 661 -271 q 621 -284 644 -278 q 570 -291 599 -291 z "},"Ǭ":{"ha":1044,"x_min":82,"x_max":962,"o":"m 523 -14 q 295 51 394 -14 q 139 231 195 115 q 82 505 82 348 q 139 779 82 662 q 295 960 195 895 q 523 1024 394 1024 q 750 960 651 1024 q 906 779 849 895 q 962 505 962 662 q 906 231 962 348 q 750 51 849 115 q 523 -14 651 -14 m 523 75 q 700 126 621 75 q 823 274 778 178 q 869 505 869 370 q 823 736 869 640 q 700 884 778 833 q 523 935 621 935 q 345 884 424 935 q 221 736 267 833 q 176 505 176 640 q 221 274 176 370 q 345 127 267 178 q 523 75 423 75 m 570 -291 q 469 -260 511 -291 q 427 -168 427 -229 q 453 -84 427 -119 q 524 -22 480 -50 q 621 35 568 6 q 727 101 674 64 q 823 192 779 139 q 894 321 867 245 q 921 505 921 397 l 962 505 q 938 312 962 393 q 874 174 914 231 q 788 77 835 117 q 693 9 741 37 q 606 -43 646 -20 q 543 -93 567 -67 q 519 -152 519 -118 q 537 -198 519 -183 q 586 -213 555 -213 q 613 -210 601 -213 q 637 -201 626 -206 l 661 -271 q 621 -284 644 -278 q 570 -291 599 -291 m 700 1253 l 700 1178 l 345 1178 l 345 1253 l 700 1253 z "},"Ȍ":{"ha":1044,"x_min":82,"x_max":962,"o":"m 523 -14 q 295 51 394 -14 q 139 231 195 115 q 82 505 82 348 q 139 779 82 662 q 295 960 195 895 q 523 1024 394 1024 q 750 960 651 1024 q 906 779 849 895 q 962 505 962 662 q 906 231 962 348 q 750 51 849 115 q 523 -14 651 -14 m 523 75 q 700 126 621 75 q 823 274 778 178 q 869 505 869 370 q 823 736 869 640 q 700 884 778 833 q 523 935 621 935 q 345 884 424 935 q 221 736 267 833 q 176 505 176 640 q 221 274 176 370 q 345 127 267 178 q 523 75 423 75 m 587 1112 l 477 1308 l 579 1308 l 663 1112 l 587 1112 m 384 1112 l 245 1308 l 348 1308 l 461 1112 l 384 1112 z "},"Ȏ":{"ha":1044,"x_min":82,"x_max":962,"o":"m 523 -14 q 295 51 394 -14 q 139 231 195 115 q 82 505 82 348 q 139 779 82 662 q 295 960 195 895 q 523 1024 394 1024 q 750 960 651 1024 q 906 779 849 895 q 962 505 962 662 q 906 231 962 348 q 750 51 849 115 q 523 -14 651 -14 m 523 75 q 700 126 621 75 q 823 274 778 178 q 869 505 869 370 q 823 736 869 640 q 700 884 778 833 q 523 935 621 935 q 345 884 424 935 q 221 736 267 833 q 176 505 176 640 q 221 274 176 370 q 345 127 267 178 q 523 75 423 75 m 523 1310 q 623 1285 579 1310 q 692 1218 667 1260 q 718 1122 718 1175 l 649 1122 q 612 1207 649 1174 q 523 1240 574 1240 q 434 1207 471 1240 q 397 1122 397 1174 l 328 1122 q 353 1218 328 1175 q 423 1285 379 1260 q 523 1310 467 1310 z "},"Ȫ":{"ha":1044,"x_min":82,"x_max":962,"o":"m 523 -14 q 295 51 394 -14 q 139 231 195 115 q 82 505 82 348 q 139 779 82 662 q 295 960 195 895 q 523 1024 394 1024 q 750 960 651 1024 q 906 779 849 895 q 962 505 962 662 q 906 231 962 348 q 750 51 849 115 q 523 -14 651 -14 m 523 75 q 700 126 621 75 q 823 274 778 178 q 869 505 869 370 q 823 736 869 640 q 700 884 778 833 q 523 935 621 935 q 345 884 424 935 q 221 736 267 833 q 176 505 176 640 q 221 274 176 370 q 345 127 267 178 q 523 75 423 75 m 667 1132 q 622 1151 641 1132 q 603 1196 603 1170 q 622 1241 603 1223 q 667 1260 641 1260 q 712 1241 694 1260 q 731 1196 731 1223 q 712 1151 731 1170 q 667 1132 694 1132 m 386 1132 q 341 1151 359 1132 q 322 1196 322 1170 q 341 1241 322 1223 q 386 1260 359 1260 q 431 1241 412 1260 q 450 1196 450 1223 q 431 1151 450 1170 q 386 1132 412 1132 m 701 1438 l 701 1370 l 345 1370 l 345 1438 l 701 1438 z "},"Ȭ":{"ha":1044,"x_min":82,"x_max":962,"o":"m 523 -14 q 295 51 394 -14 q 139 231 195 115 q 82 505 82 348 q 139 779 82 662 q 295 960 195 895 q 523 1024 394 1024 q 750 960 651 1024 q 906 779 849 895 q 962 505 962 662 q 906 231 962 348 q 750 51 849 115 q 523 -14 651 -14 m 523 75 q 700 126 621 75 q 823 274 778 178 q 869 505 869 370 q 823 736 869 640 q 700 884 778 833 q 523 935 621 935 q 345 884 424 935 q 221 736 267 833 q 176 505 176 640 q 221 274 176 370 q 345 127 267 178 q 523 75 423 75 m 612 1128 q 564 1138 587 1128 q 520 1161 541 1148 q 482 1183 500 1173 q 448 1192 464 1192 q 412 1174 425 1192 q 397 1132 399 1156 l 330 1132 q 360 1224 333 1187 q 438 1261 387 1261 q 489 1251 467 1261 q 530 1229 511 1241 q 566 1206 549 1216 q 602 1196 584 1196 q 635 1210 623 1196 q 652 1257 648 1224 l 718 1257 q 686 1163 714 1198 q 612 1128 659 1128 m 701 1438 l 701 1370 l 345 1370 l 345 1438 l 701 1438 z "},"Ȯ":{"ha":1044,"x_min":82,"x_max":962,"o":"m 523 -14 q 295 51 394 -14 q 139 231 195 115 q 82 505 82 348 q 139 779 82 662 q 295 960 195 895 q 523 1024 394 1024 q 750 960 651 1024 q 906 779 849 895 q 962 505 962 662 q 906 231 962 348 q 750 51 849 115 q 523 -14 651 -14 m 523 75 q 700 126 621 75 q 823 274 778 178 q 869 505 869 370 q 823 736 869 640 q 700 884 778 833 q 523 935 621 935 q 345 884 424 935 q 221 736 267 833 q 176 505 176 640 q 221 274 176 370 q 345 127 267 178 q 523 75 423 75 m 523 1154 q 476 1173 496 1154 q 456 1219 456 1192 q 476 1264 456 1245 q 523 1282 496 1282 q 570 1264 550 1282 q 589 1219 589 1245 q 570 1173 589 1192 q 523 1154 550 1154 z "},"Ȱ":{"ha":1044,"x_min":82,"x_max":962,"o":"m 523 -14 q 295 51 394 -14 q 139 231 195 115 q 82 505 82 348 q 139 779 82 662 q 295 960 195 895 q 523 1024 394 1024 q 750 960 651 1024 q 906 779 849 895 q 962 505 962 662 q 906 231 962 348 q 750 51 849 115 q 523 -14 651 -14 m 523 75 q 700 126 621 75 q 823 274 778 178 q 869 505 869 370 q 823 736 869 640 q 700 884 778 833 q 523 935 621 935 q 345 884 424 935 q 221 736 267 833 q 176 505 176 640 q 221 274 176 370 q 345 127 267 178 q 523 75 423 75 m 524 1132 q 477 1151 497 1132 q 458 1196 458 1170 q 477 1241 458 1223 q 524 1260 497 1260 q 571 1241 551 1260 q 591 1196 591 1223 q 571 1151 591 1170 q 524 1132 551 1132 m 701 1438 l 701 1370 l 346 1370 l 346 1438 l 701 1438 z "},"Ṍ":{"ha":1044,"x_min":82,"x_max":962,"o":"m 523 -14 q 295 51 394 -14 q 139 231 195 115 q 82 505 82 348 q 139 779 82 662 q 295 960 195 895 q 523 1024 394 1024 q 750 960 651 1024 q 906 779 849 895 q 962 505 962 662 q 906 231 962 348 q 750 51 849 115 q 523 -14 651 -14 m 523 75 q 700 126 621 75 q 823 274 778 178 q 869 505 869 370 q 823 736 869 640 q 700 884 778 833 q 523 935 621 935 q 345 884 424 935 q 221 736 267 833 q 176 505 176 640 q 221 274 176 370 q 345 127 267 178 q 523 75 423 75 m 612 1128 q 564 1138 587 1128 q 520 1161 541 1148 q 482 1183 500 1173 q 448 1192 464 1192 q 412 1174 425 1192 q 397 1132 399 1156 l 330 1132 q 360 1224 333 1187 q 438 1261 387 1261 q 489 1251 467 1261 q 530 1229 511 1241 q 566 1206 549 1216 q 602 1196 584 1196 q 635 1210 623 1196 q 652 1257 648 1224 l 718 1257 q 686 1163 714 1198 q 612 1128 659 1128 m 479 1343 l 579 1529 l 683 1529 l 556 1343 l 479 1343 z "},"Ṏ":{"ha":1044,"x_min":82,"x_max":962,"o":"m 523 -14 q 295 51 394 -14 q 139 231 195 115 q 82 505 82 348 q 139 779 82 662 q 295 960 195 895 q 523 1024 394 1024 q 750 960 651 1024 q 906 779 849 895 q 962 505 962 662 q 906 231 962 348 q 750 51 849 115 q 523 -14 651 -14 m 523 75 q 700 126 621 75 q 823 274 778 178 q 869 505 869 370 q 823 736 869 640 q 700 884 778 833 q 523 935 621 935 q 345 884 424 935 q 221 736 267 833 q 176 505 176 640 q 221 274 176 370 q 345 127 267 178 q 523 75 423 75 m 612 1128 q 564 1138 587 1128 q 520 1161 541 1148 q 482 1183 500 1173 q 448 1192 464 1192 q 412 1174 425 1192 q 397 1132 399 1156 l 330 1132 q 360 1224 333 1187 q 438 1261 387 1261 q 489 1251 467 1261 q 530 1229 511 1241 q 566 1206 549 1216 q 602 1196 584 1196 q 635 1210 623 1196 q 652 1257 648 1224 l 718 1257 q 686 1163 714 1198 q 612 1128 659 1128 m 668 1342 q 623 1361 642 1342 q 604 1407 604 1380 q 623 1452 604 1433 q 668 1470 642 1470 q 713 1452 694 1470 q 732 1407 732 1433 q 713 1361 732 1380 q 668 1342 694 1342 m 387 1342 q 341 1361 360 1342 q 323 1407 323 1380 q 341 1452 323 1433 q 387 1470 360 1470 q 432 1452 413 1470 q 450 1407 450 1433 q 432 1361 450 1380 q 387 1342 413 1342 z "},"Ṑ":{"ha":1044,"x_min":82,"x_max":962,"o":"m 523 -14 q 295 51 394 -14 q 139 231 195 115 q 82 505 82 348 q 139 779 82 662 q 295 960 195 895 q 523 1024 394 1024 q 750 960 651 1024 q 906 779 849 895 q 962 505 962 662 q 906 231 962 348 q 750 51 849 115 q 523 -14 651 -14 m 523 75 q 700 126 621 75 q 823 274 778 178 q 869 505 869 370 q 823 736 869 640 q 700 884 778 833 q 523 935 621 935 q 345 884 424 935 q 221 736 267 833 q 176 505 176 640 q 221 274 176 370 q 345 127 267 178 q 523 75 423 75 m 701 1234 l 701 1159 l 345 1159 l 345 1234 l 701 1234 m 489 1343 l 362 1529 l 466 1529 l 566 1343 l 489 1343 z "},"Ṓ":{"ha":1044,"x_min":82,"x_max":962,"o":"m 523 -14 q 295 51 394 -14 q 139 231 195 115 q 82 505 82 348 q 139 779 82 662 q 295 960 195 895 q 523 1024 394 1024 q 750 960 651 1024 q 906 779 849 895 q 962 505 962 662 q 906 231 962 348 q 750 51 849 115 q 523 -14 651 -14 m 523 75 q 700 126 621 75 q 823 274 778 178 q 869 505 869 370 q 823 736 869 640 q 700 884 778 833 q 523 935 621 935 q 345 884 424 935 q 221 736 267 833 q 176 505 176 640 q 221 274 176 370 q 345 127 267 178 q 523 75 423 75 m 701 1234 l 701 1159 l 345 1159 l 345 1234 l 701 1234 m 487 1343 l 587 1529 l 690 1529 l 564 1343 l 487 1343 z "},"Ọ":{"ha":1044,"x_min":82,"x_max":962,"o":"m 523 -14 q 295 51 394 -14 q 139 231 195 115 q 82 505 82 348 q 139 779 82 662 q 295 960 195 895 q 523 1024 394 1024 q 750 960 651 1024 q 906 779 849 895 q 962 505 962 662 q 906 231 962 348 q 750 51 849 115 q 523 -14 651 -14 m 523 75 q 700 126 621 75 q 823 274 778 178 q 869 505 869 370 q 823 736 869 640 q 700 884 778 833 q 523 935 621 935 q 345 884 424 935 q 221 736 267 833 q 176 505 176 640 q 221 274 176 370 q 345 127 267 178 q 523 75 423 75 m 524 -266 q 477 -247 497 -266 q 458 -201 458 -228 q 477 -156 458 -175 q 524 -138 497 -138 q 571 -156 551 -138 q 591 -201 591 -175 q 571 -247 591 -228 q 524 -266 551 -266 z "},"Ỏ":{"ha":1044,"x_min":82,"x_max":962,"o":"m 523 -14 q 295 51 394 -14 q 139 231 195 115 q 82 505 82 348 q 139 779 82 662 q 295 960 195 895 q 523 1024 394 1024 q 750 960 651 1024 q 906 779 849 895 q 962 505 962 662 q 906 231 962 348 q 750 51 849 115 q 523 -14 651 -14 m 523 75 q 700 126 621 75 q 823 274 778 178 q 869 505 869 370 q 823 736 869 640 q 700 884 778 833 q 523 935 621 935 q 345 884 424 935 q 221 736 267 833 q 176 505 176 640 q 221 274 176 370 q 345 127 267 178 q 523 75 423 75 m 555 1112 l 483 1112 l 528 1197 q 536 1233 541 1221 q 507 1245 532 1245 l 420 1245 l 420 1308 l 507 1308 q 570 1297 545 1308 q 605 1268 594 1286 q 611 1224 615 1249 q 590 1171 608 1199 l 555 1112 z "},"Ố":{"ha":1044,"x_min":82,"x_max":962,"o":"m 523 -14 q 295 51 394 -14 q 139 231 195 115 q 82 505 82 348 q 139 779 82 662 q 295 960 195 895 q 523 1024 394 1024 q 750 960 651 1024 q 906 779 849 895 q 962 505 962 662 q 906 231 962 348 q 750 51 849 115 q 523 -14 651 -14 m 523 75 q 700 126 621 75 q 823 274 778 178 q 869 505 869 370 q 823 736 869 640 q 700 884 778 833 q 523 935 621 935 q 345 884 424 935 q 221 736 267 833 q 176 505 176 640 q 221 274 176 370 q 345 127 267 178 q 523 75 423 75 m 411 1102 l 319 1102 l 319 1107 l 484 1290 l 566 1290 l 732 1107 l 732 1102 l 639 1102 l 525 1233 l 411 1102 m 622 1338 l 722 1525 l 825 1525 l 699 1338 l 622 1338 z "},"Ồ":{"ha":1044,"x_min":82,"x_max":962,"o":"m 523 -14 q 295 51 394 -14 q 139 231 195 115 q 82 505 82 348 q 139 779 82 662 q 295 960 195 895 q 523 1024 394 1024 q 750 960 651 1024 q 906 779 849 895 q 962 505 962 662 q 906 231 962 348 q 750 51 849 115 q 523 -14 651 -14 m 523 75 q 700 126 621 75 q 823 274 778 178 q 869 505 869 370 q 823 736 869 640 q 700 884 778 833 q 523 935 621 935 q 345 884 424 935 q 221 736 267 833 q 176 505 176 640 q 221 274 176 370 q 345 127 267 178 q 523 75 423 75 m 411 1102 l 319 1102 l 319 1107 l 484 1290 l 566 1290 l 732 1107 l 732 1102 l 639 1102 l 525 1233 l 411 1102 m 661 1338 l 534 1525 l 637 1525 l 737 1338 l 661 1338 z "},"Ổ":{"ha":1044,"x_min":82,"x_max":962,"o":"m 523 -14 q 295 51 394 -14 q 139 231 195 115 q 82 505 82 348 q 139 779 82 662 q 295 960 195 895 q 523 1024 394 1024 q 750 960 651 1024 q 906 779 849 895 q 962 505 962 662 q 906 231 962 348 q 750 51 849 115 q 523 -14 651 -14 m 523 75 q 700 126 621 75 q 823 274 778 178 q 869 505 869 370 q 823 736 869 640 q 700 884 778 833 q 523 935 621 935 q 345 884 424 935 q 221 736 267 833 q 176 505 176 640 q 221 274 176 370 q 345 127 267 178 q 523 75 423 75 m 411 1102 l 319 1102 l 319 1107 l 484 1290 l 566 1290 l 732 1107 l 732 1102 l 639 1102 l 525 1233 l 411 1102 m 688 1338 l 616 1338 l 657 1414 q 667 1450 671 1438 q 636 1461 662 1461 l 550 1461 l 550 1525 l 636 1525 q 715 1506 688 1525 q 744 1456 743 1487 q 720 1388 745 1426 l 688 1338 z "},"Ỗ":{"ha":1044,"x_min":82,"x_max":962,"o":"m 523 -14 q 295 51 394 -14 q 139 231 195 115 q 82 505 82 348 q 139 779 82 662 q 295 960 195 895 q 523 1024 394 1024 q 750 960 651 1024 q 906 779 849 895 q 962 505 962 662 q 906 231 962 348 q 750 51 849 115 q 523 -14 651 -14 m 523 75 q 700 126 621 75 q 823 274 778 178 q 869 505 869 370 q 823 736 869 640 q 700 884 778 833 q 523 935 621 935 q 345 884 424 935 q 221 736 267 833 q 176 505 176 640 q 221 274 176 370 q 345 127 267 178 q 523 75 423 75 m 410 1102 l 319 1102 l 319 1107 l 484 1290 l 565 1290 l 731 1107 l 731 1102 l 638 1102 l 525 1233 l 410 1102 m 612 1366 q 564 1376 587 1366 q 520 1398 541 1385 q 482 1420 500 1411 q 448 1430 464 1430 q 412 1412 425 1430 q 397 1369 399 1394 l 330 1369 q 360 1462 333 1426 q 438 1499 387 1499 q 488 1489 466 1499 q 530 1466 511 1478 q 566 1443 549 1453 q 602 1434 584 1434 q 635 1448 623 1434 q 652 1494 647 1462 l 718 1494 q 686 1401 714 1436 q 612 1366 659 1366 z "},"Ộ":{"ha":1044,"x_min":82,"x_max":962,"o":"m 523 -14 q 295 51 394 -14 q 139 231 195 115 q 82 505 82 348 q 139 779 82 662 q 295 960 195 895 q 523 1024 394 1024 q 750 960 651 1024 q 906 779 849 895 q 962 505 962 662 q 906 231 962 348 q 750 51 849 115 q 523 -14 651 -14 m 523 75 q 700 126 621 75 q 823 274 778 178 q 869 505 869 370 q 823 736 869 640 q 700 884 778 833 q 523 935 621 935 q 345 884 424 935 q 221 736 267 833 q 176 505 176 640 q 221 274 176 370 q 345 127 267 178 q 523 75 423 75 m 408 1122 l 317 1122 l 317 1127 l 481 1310 l 563 1310 l 729 1127 l 729 1122 l 636 1122 l 522 1253 l 408 1122 m 524 -266 q 477 -247 497 -266 q 458 -201 458 -228 q 477 -156 458 -175 q 524 -138 497 -138 q 571 -156 551 -138 q 591 -201 591 -175 q 571 -247 591 -228 q 524 -266 551 -266 z "},"Ớ":{"ha":1042,"x_min":82,"x_max":962,"o":"m 521 957 l 521 1025 q 588 1022 562 1025 q 642 1017 614 1020 q 718 1013 671 1015 q 847 1010 765 1010 q 873 1036 873 1010 l 873 1156 l 960 1156 l 960 1040 q 933 962 960 988 q 855 935 907 935 q 794 939 823 935 q 729 946 765 942 q 643 954 693 951 q 521 957 593 957 m 523 -14 q 295 51 394 -14 q 139 231 195 115 q 82 505 82 348 q 139 779 82 662 q 295 960 195 895 q 523 1024 394 1024 q 750 960 651 1024 q 906 779 849 895 q 962 505 962 662 q 906 231 962 348 q 750 51 849 115 q 523 -14 651 -14 m 523 75 q 700 126 621 75 q 823 274 778 178 q 869 505 869 370 q 823 736 869 640 q 700 884 778 833 q 523 935 621 935 q 345 884 424 935 q 221 736 267 833 q 176 505 176 640 q 221 274 176 370 q 345 127 267 178 q 523 75 423 75 m 482 1112 l 578 1308 l 682 1308 l 558 1112 l 482 1112 z "},"Ờ":{"ha":1042,"x_min":82,"x_max":962,"o":"m 521 957 l 521 1025 q 588 1022 562 1025 q 642 1017 614 1020 q 718 1013 671 1015 q 847 1010 765 1010 q 873 1036 873 1010 l 873 1156 l 960 1156 l 960 1040 q 933 962 960 988 q 855 935 907 935 q 794 939 823 935 q 729 946 765 942 q 643 954 693 951 q 521 957 593 957 m 523 -14 q 295 51 394 -14 q 139 231 195 115 q 82 505 82 348 q 139 779 82 662 q 295 960 195 895 q 523 1024 394 1024 q 750 960 651 1024 q 906 779 849 895 q 962 505 962 662 q 906 231 962 348 q 750 51 849 115 q 523 -14 651 -14 m 523 75 q 700 126 621 75 q 823 274 778 178 q 869 505 869 370 q 823 736 869 640 q 700 884 778 833 q 523 935 621 935 q 345 884 424 935 q 221 736 267 833 q 176 505 176 640 q 221 274 176 370 q 345 127 267 178 q 523 75 423 75 m 487 1112 l 364 1308 l 467 1308 l 564 1112 l 487 1112 z "},"Ở":{"ha":1042,"x_min":82,"x_max":962,"o":"m 521 957 l 521 1025 q 588 1022 562 1025 q 642 1017 614 1020 q 718 1013 671 1015 q 847 1010 765 1010 q 873 1036 873 1010 l 873 1156 l 960 1156 l 960 1040 q 933 962 960 988 q 855 935 907 935 q 794 939 823 935 q 729 946 765 942 q 643 954 693 951 q 521 957 593 957 m 523 -14 q 295 51 394 -14 q 139 231 195 115 q 82 505 82 348 q 139 779 82 662 q 295 960 195 895 q 523 1024 394 1024 q 750 960 651 1024 q 906 779 849 895 q 962 505 962 662 q 906 231 962 348 q 750 51 849 115 q 523 -14 651 -14 m 523 75 q 700 126 621 75 q 823 274 778 178 q 869 505 869 370 q 823 736 869 640 q 700 884 778 833 q 523 935 621 935 q 345 884 424 935 q 221 736 267 833 q 176 505 176 640 q 221 274 176 370 q 345 127 267 178 q 523 75 423 75 m 555 1112 l 483 1112 l 528 1197 q 536 1233 541 1221 q 507 1245 532 1245 l 420 1245 l 420 1308 l 507 1308 q 570 1297 545 1308 q 605 1268 594 1286 q 611 1224 615 1249 q 590 1171 608 1199 l 555 1112 z "},"Ỡ":{"ha":1042,"x_min":82,"x_max":962,"o":"m 521 957 l 521 1025 q 588 1022 562 1025 q 642 1017 614 1020 q 718 1013 671 1015 q 847 1010 765 1010 q 873 1036 873 1010 l 873 1156 l 960 1156 l 960 1040 q 933 962 960 988 q 855 935 907 935 q 794 939 823 935 q 729 946 765 942 q 643 954 693 951 q 521 957 593 957 m 523 -14 q 295 51 394 -14 q 139 231 195 115 q 82 505 82 348 q 139 779 82 662 q 295 960 195 895 q 523 1024 394 1024 q 750 960 651 1024 q 906 779 849 895 q 962 505 962 662 q 906 231 962 348 q 750 51 849 115 q 523 -14 651 -14 m 523 75 q 700 126 621 75 q 823 274 778 178 q 869 505 869 370 q 823 736 869 640 q 700 884 778 833 q 523 935 621 935 q 345 884 424 935 q 221 736 267 833 q 176 505 176 640 q 221 274 176 370 q 345 127 267 178 q 523 75 423 75 m 611 1150 q 562 1160 585 1150 q 519 1182 539 1170 q 481 1205 499 1195 q 446 1215 463 1215 q 411 1197 423 1215 q 396 1154 398 1179 l 329 1154 q 359 1246 332 1209 q 437 1282 386 1282 q 487 1273 465 1282 q 528 1250 509 1263 q 565 1228 547 1238 q 601 1218 583 1218 q 634 1232 622 1218 q 651 1278 646 1246 l 717 1278 q 685 1185 713 1220 q 611 1150 657 1150 z "},"Ợ":{"ha":1042,"x_min":82,"x_max":962,"o":"m 521 957 l 521 1025 q 588 1022 562 1025 q 642 1017 614 1020 q 718 1013 671 1015 q 847 1010 765 1010 q 873 1036 873 1010 l 873 1156 l 960 1156 l 960 1040 q 933 962 960 988 q 855 935 907 935 q 794 939 823 935 q 729 946 765 942 q 643 954 693 951 q 521 957 593 957 m 523 -14 q 295 51 394 -14 q 139 231 195 115 q 82 505 82 348 q 139 779 82 662 q 295 960 195 895 q 523 1024 394 1024 q 750 960 651 1024 q 906 779 849 895 q 962 505 962 662 q 906 231 962 348 q 750 51 849 115 q 523 -14 651 -14 m 523 75 q 700 126 621 75 q 823 274 778 178 q 869 505 869 370 q 823 736 869 640 q 700 884 778 833 q 523 935 621 935 q 345 884 424 935 q 221 736 267 833 q 176 505 176 640 q 221 274 176 370 q 345 127 267 178 q 523 75 423 75 m 524 -266 q 477 -247 497 -266 q 458 -201 458 -228 q 477 -156 458 -175 q 524 -138 497 -138 q 571 -156 551 -138 q 591 -201 591 -175 q 571 -247 591 -228 q 524 -266 551 -266 z "},"Ǿ":{"ha":1044,"x_min":82,"x_max":962,"o":"m 523 -14 q 295 51 394 -14 q 139 231 195 115 q 82 505 82 348 q 139 779 82 662 q 295 960 195 895 q 523 1024 394 1024 q 750 960 651 1024 q 906 779 849 895 q 962 505 962 662 q 906 231 962 348 q 750 51 849 115 q 523 -14 651 -14 m 523 75 q 700 126 621 75 q 823 274 778 178 q 869 505 869 370 q 823 736 869 640 q 700 884 778 833 q 523 935 621 935 q 345 884 424 935 q 221 736 267 833 q 176 505 176 640 q 221 274 176 370 q 345 127 267 178 q 523 75 423 75 m 202 -24 l 134 24 l 844 1035 l 911 987 l 202 -24 m 482 1112 l 578 1308 l 682 1308 l 558 1112 l 482 1112 z "},"Ο":{"ha":1044,"x_min":82,"x_max":962,"o":"m 523 -14 q 295 51 394 -14 q 139 231 195 115 q 82 505 82 348 q 139 779 82 662 q 295 960 195 895 q 523 1024 394 1024 q 750 960 651 1024 q 906 779 849 895 q 962 505 962 662 q 906 231 962 348 q 750 51 849 115 q 523 -14 651 -14 m 523 75 q 700 126 621 75 q 823 274 778 178 q 869 505 869 370 q 823 736 869 640 q 700 884 778 833 q 523 935 621 935 q 345 884 424 935 q 221 736 267 833 q 176 505 176 640 q 221 274 176 370 q 345 127 267 178 q 523 75 423 75 z "},"Ό":{"ha":1142,"x_min":65,"x_max":1059,"o":"m 621 -14 q 392 51 492 -14 q 236 231 293 115 q 180 505 180 348 q 236 779 180 662 q 392 960 293 895 q 621 1024 492 1024 q 848 960 749 1024 q 1003 779 947 895 q 1060 505 1060 662 q 1003 231 1060 348 q 848 51 947 115 q 621 -14 749 -14 m 621 75 q 797 126 719 75 q 921 274 876 178 q 966 505 966 370 q 921 736 966 640 q 797 884 876 833 q 621 935 719 935 q 443 884 522 935 q 319 736 364 833 q 273 505 273 640 q 319 274 273 370 q 443 127 364 178 q 621 75 521 75 m 65 814 l 90 1010 l 186 1010 l 130 814 l 65 814 z "},"Ὀ":{"ha":1205,"x_min":65,"x_max":1123,"o":"m 684 -14 q 455 51 555 -14 q 299 231 356 115 q 243 505 243 348 q 299 779 243 662 q 455 960 356 895 q 684 1024 555 1024 q 911 960 812 1024 q 1066 779 1010 895 q 1123 505 1123 662 q 1066 231 1123 348 q 911 51 1010 115 q 684 -14 812 -14 m 684 75 q 860 126 782 75 q 984 274 939 178 q 1029 505 1029 370 q 984 736 1029 640 q 860 884 939 833 q 684 935 782 935 q 506 884 585 935 q 382 736 427 833 q 336 505 336 640 q 382 274 336 370 q 506 127 427 178 q 684 75 584 75 m 92 821 l 83 821 l 83 864 l 92 864 q 148 879 128 864 q 168 920 168 894 q 148 957 168 944 q 92 969 128 969 l 65 969 l 65 1029 l 92 1029 q 200 1003 162 1029 q 239 927 239 977 q 200 849 239 877 q 92 821 162 821 z "},"Ὁ":{"ha":1211,"x_min":65,"x_max":1129,"o":"m 690 -14 q 461 51 561 -14 q 306 231 362 115 q 249 505 249 348 q 306 779 249 662 q 461 960 362 895 q 690 1024 561 1024 q 917 960 818 1024 q 1073 779 1016 895 q 1129 505 1129 662 q 1073 231 1129 348 q 917 51 1016 115 q 690 -14 818 -14 m 690 75 q 866 126 788 75 q 990 274 945 178 q 1036 505 1036 370 q 990 736 1036 640 q 866 884 945 833 q 690 935 788 935 q 512 884 591 935 q 388 736 433 833 q 342 505 342 640 q 388 274 342 370 q 512 127 433 178 q 690 75 590 75 m 212 808 q 104 836 142 808 q 65 914 65 864 q 104 990 65 964 q 212 1016 142 1016 l 239 1016 l 239 956 l 212 956 q 156 944 176 956 q 136 907 136 931 q 156 866 136 881 q 212 851 176 851 l 222 851 l 222 808 l 212 808 z "},"Ὂ":{"ha":1390,"x_min":65,"x_max":1308,"o":"m 868 -14 q 640 51 739 -14 q 484 231 541 115 q 427 505 427 348 q 484 779 427 662 q 640 960 541 895 q 868 1024 739 1024 q 1095 960 996 1024 q 1251 779 1194 895 q 1308 505 1308 662 q 1251 231 1308 348 q 1095 51 1194 115 q 868 -14 996 -14 m 868 75 q 1045 126 966 75 q 1168 274 1123 178 q 1214 505 1214 370 q 1168 736 1214 640 q 1045 884 1123 833 q 868 935 966 935 q 690 884 769 935 q 566 736 612 833 q 521 505 521 640 q 566 274 521 370 q 690 127 612 178 q 868 75 768 75 m 92 808 l 83 808 l 83 851 l 92 851 q 148 866 128 851 q 168 907 168 881 q 148 944 168 931 q 92 956 128 956 l 65 956 l 65 1016 l 92 1016 q 200 990 162 1016 q 239 914 239 964 q 200 836 239 864 q 92 808 162 808 m 397 813 l 333 813 l 277 1010 l 372 1010 l 397 813 z "},"Ὃ":{"ha":1401,"x_min":65,"x_max":1319,"o":"m 880 -14 q 652 51 751 -14 q 496 231 553 115 q 439 505 439 348 q 496 779 439 662 q 652 960 553 895 q 880 1024 751 1024 q 1107 960 1008 1024 q 1263 779 1206 895 q 1320 505 1320 662 q 1263 231 1320 348 q 1107 51 1206 115 q 880 -14 1008 -14 m 880 75 q 1057 126 979 75 q 1181 274 1135 178 q 1226 505 1226 370 q 1181 736 1226 640 q 1057 884 1135 833 q 880 935 979 935 q 703 884 781 935 q 578 736 624 833 q 533 505 533 640 q 578 274 533 370 q 702 127 624 178 q 880 75 781 75 m 212 808 q 104 836 142 808 q 65 914 65 864 q 104 990 65 964 q 212 1016 142 1016 l 239 1016 l 239 956 l 212 956 q 156 944 176 956 q 136 907 136 931 q 156 866 136 881 q 212 851 176 851 l 222 851 l 222 808 l 212 808 m 418 813 l 354 813 l 298 1010 l 394 1010 l 418 813 z "},"Ὄ":{"ha":1392,"x_min":65,"x_max":1310,"o":"m 871 -14 q 643 51 742 -14 q 487 231 543 115 q 430 505 430 348 q 487 779 430 662 q 643 960 543 895 q 871 1024 742 1024 q 1098 960 999 1024 q 1254 779 1197 895 q 1310 505 1310 662 q 1254 231 1310 348 q 1098 51 1197 115 q 871 -14 999 -14 m 871 75 q 1047 126 969 75 q 1171 274 1126 178 q 1217 505 1217 370 q 1171 736 1217 640 q 1047 884 1126 833 q 871 935 969 935 q 693 884 772 935 q 569 736 614 833 q 524 505 524 640 q 569 274 524 370 q 693 127 614 178 q 871 75 771 75 m 92 808 l 83 808 l 83 851 l 92 851 q 148 866 128 851 q 168 907 168 881 q 148 944 168 931 q 92 956 128 956 l 65 956 l 65 1016 l 92 1016 q 200 990 162 1016 q 239 914 239 964 q 200 836 239 864 q 92 808 162 808 m 316 813 l 340 1010 l 436 1010 l 380 813 l 316 813 z "},"Ὅ":{"ha":1397,"x_min":65,"x_max":1315,"o":"m 876 -14 q 647 51 747 -14 q 491 231 548 115 q 435 505 435 348 q 491 779 435 662 q 647 960 548 895 q 876 1024 747 1024 q 1103 960 1004 1024 q 1258 779 1202 895 q 1315 505 1315 662 q 1258 231 1315 348 q 1103 51 1202 115 q 876 -14 1004 -14 m 876 75 q 1052 126 974 75 q 1176 274 1131 178 q 1221 505 1221 370 q 1176 736 1221 640 q 1052 884 1131 833 q 876 935 974 935 q 698 884 777 935 q 574 736 619 833 q 528 505 528 640 q 574 274 528 370 q 697 127 619 178 q 876 75 776 75 m 212 808 q 104 836 142 808 q 65 914 65 864 q 104 990 65 964 q 212 1016 142 1016 l 239 1016 l 239 956 l 212 956 q 156 944 176 956 q 136 907 136 931 q 156 866 136 881 q 212 851 176 851 l 222 851 l 222 808 l 212 808 m 321 813 l 346 1010 l 441 1010 l 385 813 l 321 813 z "},"Ὸ":{"ha":1044,"x_min":-114,"x_max":962,"o":"m 523 -14 q 295 51 394 -14 q 139 231 195 115 q 82 505 82 348 q 139 779 82 662 q 295 960 195 895 q 523 1024 394 1024 q 750 960 651 1024 q 906 779 849 895 q 962 505 962 662 q 906 231 962 348 q 750 51 849 115 q 523 -14 651 -14 m 523 75 q 700 126 621 75 q 823 274 778 178 q 869 505 869 370 q 823 736 869 640 q 700 884 778 833 q 523 935 621 935 q 345 884 424 935 q 221 736 267 833 q 176 505 176 640 q 221 274 176 370 q 345 127 267 178 q 523 75 423 75 m 7 848 l -58 848 l -114 1044 l -18 1044 l 7 848 z "},"ϴ":{"ha":1044,"x_min":82,"x_max":962,"o":"m 884 546 l 884 463 l 155 463 l 155 546 l 884 546 m 523 -14 q 295 51 394 -14 q 139 231 195 115 q 82 505 82 348 q 139 779 82 662 q 295 960 195 895 q 523 1024 394 1024 q 750 960 651 1024 q 906 779 849 895 q 962 505 962 662 q 906 231 962 348 q 750 51 849 115 q 523 -14 651 -14 m 523 75 q 700 126 621 75 q 823 274 778 178 q 869 505 869 370 q 823 736 869 640 q 700 884 778 833 q 523 935 621 935 q 345 884 424 935 q 221 736 267 833 q 176 505 176 640 q 221 274 176 370 q 345 127 267 178 q 523 75 423 75 z "},"Ό":{"ha":1142,"x_min":65,"x_max":1059,"o":"m 621 -14 q 392 51 492 -14 q 236 231 293 115 q 180 505 180 348 q 236 779 180 662 q 392 960 293 895 q 621 1024 492 1024 q 848 960 749 1024 q 1003 779 947 895 q 1060 505 1060 662 q 1003 231 1060 348 q 848 51 947 115 q 621 -14 749 -14 m 621 75 q 797 126 719 75 q 921 274 876 178 q 966 505 966 370 q 921 736 966 640 q 797 884 876 833 q 621 935 719 935 q 443 884 522 935 q 319 736 364 833 q 273 505 273 640 q 319 274 273 370 q 443 127 364 178 q 621 75 521 75 m 65 814 l 90 1010 l 186 1010 l 130 814 l 65 814 z "},"О":{"ha":1044,"x_min":82,"x_max":962,"o":"m 523 -14 q 295 51 394 -14 q 139 231 195 115 q 82 505 82 348 q 139 779 82 662 q 295 960 195 895 q 523 1024 394 1024 q 750 960 651 1024 q 906 779 849 895 q 962 505 962 662 q 906 231 962 348 q 750 51 849 115 q 523 -14 651 -14 m 523 75 q 700 126 621 75 q 823 274 778 178 q 869 505 869 370 q 823 736 869 640 q 700 884 778 833 q 523 935 621 935 q 345 884 424 935 q 221 736 267 833 q 176 505 176 640 q 221 274 176 370 q 345 127 267 178 q 523 75 423 75 z "},"Ӧ":{"ha":1044,"x_min":82,"x_max":962,"o":"m 523 -14 q 295 51 394 -14 q 139 231 195 115 q 82 505 82 348 q 139 779 82 662 q 295 960 195 895 q 523 1024 394 1024 q 750 960 651 1024 q 906 779 849 895 q 962 505 962 662 q 906 231 962 348 q 750 51 849 115 q 523 -14 651 -14 m 523 75 q 700 126 621 75 q 823 274 778 178 q 869 505 869 370 q 823 736 869 640 q 700 884 778 833 q 523 935 621 935 q 345 884 424 935 q 221 736 267 833 q 176 505 176 640 q 221 274 176 370 q 345 127 267 178 q 523 75 423 75 m 663 1154 q 618 1173 637 1154 q 599 1219 599 1192 q 618 1264 599 1245 q 663 1282 637 1282 q 708 1264 690 1282 q 727 1219 727 1245 q 708 1173 727 1192 q 663 1154 690 1154 m 382 1154 q 337 1173 355 1154 q 318 1219 318 1192 q 337 1264 318 1245 q 382 1282 355 1282 q 427 1264 408 1282 q 446 1219 446 1245 q 427 1173 446 1192 q 382 1154 408 1154 z "},"Ɵ":{"ha":1044,"x_min":82,"x_max":962,"o":"m 884 546 l 884 463 l 155 463 l 155 546 l 884 546 m 523 -14 q 295 51 394 -14 q 139 231 195 115 q 82 505 82 348 q 139 779 82 662 q 295 960 195 895 q 523 1024 394 1024 q 750 960 651 1024 q 906 779 849 895 q 962 505 962 662 q 906 231 962 348 q 750 51 849 115 q 523 -14 651 -14 m 523 75 q 700 126 621 75 q 823 274 778 178 q 869 505 869 370 q 823 736 869 640 q 700 884 778 833 q 523 935 621 935 q 345 884 424 935 q 221 736 267 833 q 176 505 176 640 q 221 274 176 370 q 345 127 267 178 q 523 75 423 75 z "},"Ө":{"ha":1044,"x_min":82,"x_max":962,"o":"m 884 546 l 884 463 l 155 463 l 155 546 l 884 546 m 523 -14 q 295 51 394 -14 q 139 231 195 115 q 82 505 82 348 q 139 779 82 662 q 295 960 195 895 q 523 1024 394 1024 q 750 960 651 1024 q 906 779 849 895 q 962 505 962 662 q 906 231 962 348 q 750 51 849 115 q 523 -14 651 -14 m 523 75 q 700 126 621 75 q 823 274 778 178 q 869 505 869 370 q 823 736 869 640 q 700 884 778 833 q 523 935 621 935 q 345 884 424 935 q 221 736 267 833 q 176 505 176 640 q 221 274 176 370 q 345 127 267 178 q 523 75 423 75 z "},"Ӫ":{"ha":1044,"x_min":82,"x_max":962,"o":"m 884 546 l 884 463 l 155 463 l 155 546 l 884 546 m 523 -14 q 295 51 394 -14 q 139 231 195 115 q 82 505 82 348 q 139 779 82 662 q 295 960 195 895 q 523 1024 394 1024 q 750 960 651 1024 q 906 779 849 895 q 962 505 962 662 q 906 231 962 348 q 750 51 849 115 q 523 -14 651 -14 m 523 75 q 700 126 621 75 q 823 274 778 178 q 869 505 869 370 q 823 736 869 640 q 700 884 778 833 q 523 935 621 935 q 345 884 424 935 q 221 736 267 833 q 176 505 176 640 q 221 274 176 370 q 345 127 267 178 q 523 75 423 75 m 663 1154 q 618 1173 637 1154 q 599 1219 599 1192 q 618 1264 599 1245 q 663 1282 637 1282 q 708 1264 690 1282 q 727 1219 727 1245 q 708 1173 727 1192 q 663 1154 690 1154 m 382 1154 q 337 1173 355 1154 q 318 1219 318 1192 q 337 1264 318 1245 q 382 1282 355 1282 q 427 1264 408 1282 q 446 1219 446 1245 q 427 1173 446 1192 q 382 1154 408 1154 z "},"Œ":{"ha":1351,"x_min":82,"x_max":1267,"o":"m 528 0 q 295 63 395 0 q 138 240 194 126 q 82 505 82 354 q 138 771 82 657 q 294 948 194 885 q 526 1010 394 1010 l 698 1010 l 698 924 l 528 924 q 342 873 421 925 q 219 727 262 821 q 175 505 175 633 q 219 284 175 379 q 342 138 262 190 q 530 85 422 85 l 697 85 l 697 0 l 528 0 m 659 0 l 659 1010 l 1260 1010 l 1260 925 l 754 925 l 754 553 l 1226 553 l 1226 467 l 754 467 l 754 85 l 1267 85 l 1267 0 l 659 0 z "},"P":{"ha":861,"x_min":127,"x_max":787,"o":"m 127 0 l 127 1010 l 462 1010 q 640 970 567 1010 q 750 860 712 930 q 787 701 787 790 q 750 541 787 611 q 639 430 712 471 q 461 389 566 389 l 195 389 l 195 475 l 458 475 q 588 504 536 475 q 666 584 640 532 q 693 701 693 635 q 666 817 693 766 q 587 896 640 867 q 458 925 535 925 l 222 925 l 222 0 l 127 0 z "},"Ṕ":{"ha":861,"x_min":127,"x_max":787,"o":"m 127 0 l 127 1010 l 462 1010 q 640 970 567 1010 q 750 860 712 930 q 787 701 787 790 q 750 541 787 611 q 639 430 712 471 q 461 389 566 389 l 195 389 l 195 475 l 458 475 q 588 504 536 475 q 666 584 640 532 q 693 701 693 635 q 666 817 693 766 q 587 896 640 867 q 458 925 535 925 l 222 925 l 222 0 l 127 0 m 391 1112 l 488 1308 l 591 1308 l 467 1112 l 391 1112 z "},"Ṗ":{"ha":861,"x_min":127,"x_max":787,"o":"m 127 0 l 127 1010 l 462 1010 q 640 970 567 1010 q 750 860 712 930 q 787 701 787 790 q 750 541 787 611 q 639 430 712 471 q 461 389 566 389 l 195 389 l 195 475 l 458 475 q 588 504 536 475 q 666 584 640 532 q 693 701 693 635 q 666 817 693 766 q 587 896 640 867 q 458 925 535 925 l 222 925 l 222 0 l 127 0 m 433 1154 q 386 1173 406 1154 q 366 1219 366 1192 q 386 1264 366 1245 q 433 1282 406 1282 q 479 1264 460 1282 q 499 1219 499 1245 q 479 1173 499 1192 q 433 1154 460 1154 z "},"Ҏ":{"ha":857,"x_min":125,"x_max":786,"o":"m 555 641 l 744 351 l 675 306 l 485 597 l 555 641 m 125 0 l 125 1010 l 460 1010 q 638 970 565 1010 q 748 860 711 930 q 786 701 786 790 q 748 541 786 611 q 637 430 710 471 q 460 389 565 389 l 193 389 l 193 475 l 456 475 q 586 504 534 475 q 665 584 638 532 q 691 701 691 635 q 665 817 691 766 q 586 896 638 867 q 456 925 533 925 l 221 925 l 221 0 l 125 0 z "},"Ƥ":{"ha":1023,"x_min":42,"x_max":950,"o":"m 42 750 l 42 831 q 87 965 42 920 q 223 1010 133 1010 l 290 1010 l 290 925 l 224 925 q 154 902 176 925 q 132 830 132 880 l 132 750 l 42 750 m 290 0 l 290 1010 l 625 1010 q 802 970 730 1010 q 912 860 875 930 q 950 701 950 790 q 912 541 950 611 q 802 430 875 471 q 624 389 729 389 l 357 389 l 357 475 l 621 475 q 751 504 699 475 q 829 584 803 532 q 856 701 856 635 q 829 817 856 766 q 750 896 803 867 q 621 925 698 925 l 385 925 l 385 0 l 290 0 z "},"Ρ":{"ha":861,"x_min":127,"x_max":787,"o":"m 127 0 l 127 1010 l 462 1010 q 640 970 567 1010 q 750 860 712 930 q 787 701 787 790 q 750 541 787 611 q 639 430 712 471 q 461 389 566 389 l 195 389 l 195 475 l 458 475 q 588 504 536 475 q 666 584 640 532 q 693 701 693 635 q 666 817 693 766 q 587 896 640 867 q 458 925 535 925 l 222 925 l 222 0 l 127 0 z "},"Ῥ":{"ha":1103,"x_min":65,"x_max":1030,"o":"m 370 0 l 370 1010 l 705 1010 q 882 970 810 1010 q 992 860 955 930 q 1030 701 1030 790 q 992 541 1030 611 q 882 430 955 471 q 704 389 809 389 l 437 389 l 437 475 l 701 475 q 830 504 779 475 q 909 584 882 532 q 936 701 936 635 q 909 817 936 766 q 830 896 882 867 q 701 925 778 925 l 465 925 l 465 0 l 370 0 m 212 808 q 104 836 142 808 q 65 914 65 864 q 104 990 65 964 q 212 1016 142 1016 l 239 1016 l 239 956 l 212 956 q 156 944 176 956 q 136 907 136 931 q 156 866 136 881 q 212 851 176 851 l 222 851 l 222 808 l 212 808 z "},"Q":{"ha":1044,"x_min":82,"x_max":962,"o":"m 507 316 l 609 316 l 739 145 l 760 116 l 918 -95 l 816 -95 l 700 60 l 679 88 l 507 316 m 523 -14 q 295 51 394 -14 q 139 231 195 115 q 82 505 82 348 q 139 779 82 662 q 295 960 195 895 q 523 1024 394 1024 q 750 960 651 1024 q 906 779 849 895 q 962 505 962 662 q 906 231 962 348 q 750 51 849 115 q 523 -14 651 -14 m 523 75 q 700 126 621 75 q 823 274 778 178 q 869 505 869 370 q 823 736 869 640 q 700 884 778 833 q 523 935 621 935 q 345 884 424 935 q 221 736 267 833 q 176 505 176 640 q 221 274 176 370 q 345 127 267 178 q 523 75 423 75 z "},"Ɋ":{"ha":1043,"x_min":82,"x_max":1060,"o":"m 916 1010 l 916 0 l 825 0 l 825 193 l 819 193 q 698 39 779 93 q 508 -16 616 -16 q 336 23 414 -16 q 201 131 258 61 q 113 296 144 201 q 82 507 82 392 q 113 715 82 621 q 201 879 144 810 q 337 987 258 949 q 510 1025 415 1025 q 699 971 618 1025 q 819 820 780 918 l 825 820 l 825 1010 l 916 1010 m 511 75 q 687 130 616 75 q 792 282 757 184 q 827 506 827 379 q 790 729 827 632 q 684 882 754 827 q 513 937 614 937 q 337 882 412 937 q 219 730 261 827 q 177 506 177 633 q 219 279 177 376 q 337 129 262 182 q 511 75 413 75 m 997 -287 q 868 -246 912 -287 q 825 -127 825 -205 l 825 0 l 916 0 l 916 -127 q 938 -188 916 -169 q 1013 -207 961 -207 q 1035 -207 1022 -207 q 1060 -205 1048 -206 l 1060 -283 q 1032 -286 1049 -285 q 997 -287 1015 -287 z "},"R":{"ha":875,"x_min":127,"x_max":825,"o":"m 127 0 l 127 1010 l 464 1010 q 642 972 569 1010 q 752 865 714 934 q 789 707 789 797 q 751 550 789 618 q 641 445 713 483 q 463 407 568 407 l 180 407 l 180 493 l 460 493 q 590 519 538 493 q 668 594 642 546 q 694 707 694 642 q 668 822 694 773 q 589 898 642 871 q 460 925 537 925 l 222 925 l 222 0 l 127 0 m 715 0 l 469 456 l 577 456 l 825 0 l 715 0 z "},"Ŕ":{"ha":875,"x_min":127,"x_max":825,"o":"m 127 0 l 127 1010 l 464 1010 q 642 972 569 1010 q 752 865 714 934 q 789 707 789 797 q 751 550 789 618 q 641 445 713 483 q 463 407 568 407 l 180 407 l 180 493 l 460 493 q 590 519 538 493 q 668 594 642 546 q 694 707 694 642 q 668 822 694 773 q 589 898 642 871 q 460 925 537 925 l 222 925 l 222 0 l 127 0 m 715 0 l 469 456 l 577 456 l 825 0 l 715 0 m 393 1112 l 489 1308 l 592 1308 l 469 1112 l 393 1112 z "},"Ŗ":{"ha":875,"x_min":127,"x_max":825,"o":"m 127 0 l 127 1010 l 464 1010 q 642 972 569 1010 q 752 865 714 934 q 789 707 789 797 q 751 550 789 618 q 641 445 713 483 q 463 407 568 407 l 180 407 l 180 493 l 460 493 q 590 519 538 493 q 668 594 642 546 q 694 707 694 642 q 668 822 694 773 q 589 898 642 871 q 460 925 537 925 l 222 925 l 222 0 l 127 0 m 715 0 l 469 456 l 577 456 l 825 0 l 715 0 m 340 -334 l 399 -80 l 492 -80 l 411 -334 l 340 -334 z "},"Ř":{"ha":875,"x_min":127,"x_max":825,"o":"m 127 0 l 127 1010 l 464 1010 q 642 972 569 1010 q 752 865 714 934 q 789 707 789 797 q 751 550 789 618 q 641 445 713 483 q 463 407 568 407 l 180 407 l 180 493 l 460 493 q 590 519 538 493 q 668 594 642 546 q 694 707 694 642 q 668 822 694 773 q 589 898 642 871 q 460 925 537 925 l 222 925 l 222 0 l 127 0 m 715 0 l 469 456 l 577 456 l 825 0 l 715 0 m 319 1309 l 433 1179 l 547 1309 l 640 1309 l 640 1305 l 473 1122 l 392 1122 l 227 1305 l 227 1309 l 319 1309 z "},"Ȑ":{"ha":875,"x_min":127,"x_max":825,"o":"m 127 0 l 127 1010 l 464 1010 q 642 972 569 1010 q 752 865 714 934 q 789 707 789 797 q 751 550 789 618 q 641 445 713 483 q 463 407 568 407 l 180 407 l 180 493 l 460 493 q 590 519 538 493 q 668 594 642 546 q 694 707 694 642 q 668 822 694 773 q 589 898 642 871 q 460 925 537 925 l 222 925 l 222 0 l 127 0 m 715 0 l 469 456 l 577 456 l 825 0 l 715 0 m 498 1112 l 389 1308 l 490 1308 l 574 1112 l 498 1112 m 295 1112 l 157 1308 l 259 1308 l 372 1112 l 295 1112 z "},"Ȓ":{"ha":875,"x_min":127,"x_max":825,"o":"m 127 0 l 127 1010 l 464 1010 q 642 972 569 1010 q 752 865 714 934 q 789 707 789 797 q 751 550 789 618 q 641 445 713 483 q 463 407 568 407 l 180 407 l 180 493 l 460 493 q 590 519 538 493 q 668 594 642 546 q 694 707 694 642 q 668 822 694 773 q 589 898 642 871 q 460 925 537 925 l 222 925 l 222 0 l 127 0 m 715 0 l 469 456 l 577 456 l 825 0 l 715 0 m 433 1310 q 533 1285 490 1310 q 603 1218 577 1260 q 629 1122 629 1175 l 559 1122 q 522 1207 559 1174 q 433 1240 485 1240 q 345 1207 382 1240 q 307 1122 307 1174 l 238 1122 q 264 1218 238 1175 q 334 1285 290 1260 q 433 1310 378 1310 z "},"Ṙ":{"ha":875,"x_min":127,"x_max":825,"o":"m 127 0 l 127 1010 l 464 1010 q 642 972 569 1010 q 752 865 714 934 q 789 707 789 797 q 751 550 789 618 q 641 445 713 483 q 463 407 568 407 l 180 407 l 180 493 l 460 493 q 590 519 538 493 q 668 594 642 546 q 694 707 694 642 q 668 822 694 773 q 589 898 642 871 q 460 925 537 925 l 222 925 l 222 0 l 127 0 m 715 0 l 469 456 l 577 456 l 825 0 l 715 0 m 433 1154 q 387 1173 406 1154 q 367 1219 367 1192 q 387 1264 367 1245 q 433 1282 406 1282 q 480 1264 460 1282 q 500 1219 500 1245 q 480 1173 500 1192 q 433 1154 460 1154 z "},"Ṛ":{"ha":875,"x_min":127,"x_max":825,"o":"m 127 0 l 127 1010 l 464 1010 q 642 972 569 1010 q 752 865 714 934 q 789 707 789 797 q 751 550 789 618 q 641 445 713 483 q 463 407 568 407 l 180 407 l 180 493 l 460 493 q 590 519 538 493 q 668 594 642 546 q 694 707 694 642 q 668 822 694 773 q 589 898 642 871 q 460 925 537 925 l 222 925 l 222 0 l 127 0 m 715 0 l 469 456 l 577 456 l 825 0 l 715 0 m 448 -266 q 401 -247 421 -266 q 382 -201 382 -228 q 401 -156 382 -175 q 448 -138 421 -138 q 495 -156 475 -138 q 515 -201 515 -175 q 495 -247 515 -228 q 448 -266 475 -266 z "},"Ṝ":{"ha":875,"x_min":127,"x_max":825,"o":"m 127 0 l 127 1010 l 464 1010 q 642 972 569 1010 q 752 865 714 934 q 789 707 789 797 q 751 550 789 618 q 641 445 713 483 q 463 407 568 407 l 180 407 l 180 493 l 460 493 q 590 519 538 493 q 668 594 642 546 q 694 707 694 642 q 668 822 694 773 q 589 898 642 871 q 460 925 537 925 l 222 925 l 222 0 l 127 0 m 715 0 l 469 456 l 577 456 l 825 0 l 715 0 m 448 -266 q 401 -247 421 -266 q 382 -201 382 -228 q 401 -156 382 -175 q 448 -138 421 -138 q 495 -156 475 -138 q 515 -201 515 -175 q 495 -247 515 -228 q 448 -266 475 -266 m 611 1253 l 611 1178 l 256 1178 l 256 1253 l 611 1253 z "},"Ṟ":{"ha":875,"x_min":127,"x_max":825,"o":"m 127 0 l 127 1010 l 464 1010 q 642 972 569 1010 q 752 865 714 934 q 789 707 789 797 q 751 550 789 618 q 641 445 713 483 q 463 407 568 407 l 180 407 l 180 493 l 460 493 q 590 519 538 493 q 668 594 642 546 q 694 707 694 642 q 668 822 694 773 q 589 898 642 871 q 460 925 537 925 l 222 925 l 222 0 l 127 0 m 715 0 l 469 456 l 577 456 l 825 0 l 715 0 m 625 -161 l 625 -235 l 269 -235 l 269 -161 l 625 -161 z "},"℟":{"ha":865,"x_min":126,"x_max":823,"o":"m 663 1135 l 245 -233 l 183 -220 l 587 1097 l 368 1168 l 390 1227 l 663 1135 m 126 0 l 126 1010 l 463 1010 q 640 972 568 1010 q 750 865 713 934 q 788 707 788 797 q 750 550 788 618 q 639 445 712 483 q 461 407 566 407 l 179 407 l 179 493 l 459 493 q 588 519 536 493 q 667 594 640 546 q 693 707 693 642 q 667 822 693 773 q 588 898 640 871 q 458 925 536 925 l 221 925 l 221 0 l 126 0 m 713 0 l 468 456 l 576 456 l 823 0 l 713 0 z "},"℞":{"ha":896,"x_min":127,"x_max":863,"o":"m 127 1010 l 454 1010 q 634 970 562 1010 q 742 861 706 930 q 777 707 777 793 q 747 565 777 627 q 660 465 716 504 q 525 413 603 427 l 496 406 l 198 406 l 198 494 l 445 494 q 581 521 528 494 q 658 596 633 548 q 683 707 683 644 q 661 814 683 764 q 588 894 638 863 q 454 925 538 925 l 223 925 l 223 0 l 127 0 l 127 1010 m 753 0 l 427 450 l 533 450 l 863 0 l 753 0 m 536 0 l 427 0 l 757 450 l 862 450 l 536 0 z "},"Ɍ":{"ha":873,"x_min":12,"x_max":833,"o":"m 186 408 l 12 408 l 12 492 l 186 492 l 186 408 m 136 0 l 136 1010 l 472 1010 q 650 972 577 1010 q 761 865 723 934 q 798 707 798 797 q 760 550 798 618 q 649 445 722 483 q 471 407 576 407 l 189 407 l 189 493 l 469 493 q 598 519 546 493 q 676 594 650 546 q 703 707 703 642 q 676 822 703 773 q 598 898 650 871 q 468 925 546 925 l 231 925 l 231 0 l 136 0 m 723 0 l 478 456 l 585 456 l 833 0 l 723 0 z "},"S":{"ha":865,"x_min":81,"x_max":785,"o":"m 433 -17 q 251 18 328 -17 q 130 117 174 54 q 81 264 86 180 l 178 264 q 217 159 183 202 q 307 93 250 115 q 433 70 363 70 q 567 95 509 70 q 658 165 625 120 q 691 270 691 210 q 666 354 691 319 q 594 412 641 388 q 481 455 547 436 l 363 489 q 172 588 237 525 q 106 748 106 652 q 150 892 106 830 q 268 990 193 955 q 438 1025 343 1025 q 607 989 534 1025 q 723 892 680 954 q 768 750 765 830 l 675 750 q 602 888 667 837 q 435 939 536 939 q 313 915 366 939 q 230 848 260 890 q 200 752 200 806 q 228 667 200 702 q 301 610 256 633 q 401 571 347 587 l 509 541 q 612 504 562 526 q 700 450 661 481 q 762 374 739 418 q 785 269 785 330 q 742 122 785 187 q 621 20 699 58 q 433 -17 542 -17 z "},"Ś":{"ha":865,"x_min":81,"x_max":785,"o":"m 433 -17 q 251 18 328 -17 q 130 117 174 54 q 81 264 86 180 l 178 264 q 217 159 183 202 q 307 93 250 115 q 433 70 363 70 q 567 95 509 70 q 658 165 625 120 q 691 270 691 210 q 666 354 691 319 q 594 412 641 388 q 481 455 547 436 l 363 489 q 172 588 237 525 q 106 748 106 652 q 150 892 106 830 q 268 990 193 955 q 438 1025 343 1025 q 607 989 534 1025 q 723 892 680 954 q 768 750 765 830 l 675 750 q 602 888 667 837 q 435 939 536 939 q 313 915 366 939 q 230 848 260 890 q 200 752 200 806 q 228 667 200 702 q 301 610 256 633 q 401 571 347 587 l 509 541 q 612 504 562 526 q 700 450 661 481 q 762 374 739 418 q 785 269 785 330 q 742 122 785 187 q 621 20 699 58 q 433 -17 542 -17 m 391 1112 l 488 1308 l 591 1308 l 467 1112 l 391 1112 z "},"Ŝ":{"ha":865,"x_min":81,"x_max":785,"o":"m 433 -17 q 251 18 328 -17 q 130 117 174 54 q 81 264 86 180 l 178 264 q 217 159 183 202 q 307 93 250 115 q 433 70 363 70 q 567 95 509 70 q 658 165 625 120 q 691 270 691 210 q 666 354 691 319 q 594 412 641 388 q 481 455 547 436 l 363 489 q 172 588 237 525 q 106 748 106 652 q 150 892 106 830 q 268 990 193 955 q 438 1025 343 1025 q 607 989 534 1025 q 723 892 680 954 q 768 750 765 830 l 675 750 q 602 888 667 837 q 435 939 536 939 q 313 915 366 939 q 230 848 260 890 q 200 752 200 806 q 228 667 200 702 q 301 610 256 633 q 401 571 347 587 l 509 541 q 612 504 562 526 q 700 450 661 481 q 762 374 739 418 q 785 269 785 330 q 742 122 785 187 q 621 20 699 58 q 433 -17 542 -17 m 318 1122 l 227 1122 l 227 1127 l 391 1310 l 473 1310 l 639 1127 l 639 1122 l 546 1122 l 432 1253 l 318 1122 z "}}}
